<mxfile modified="2023-07-16T02:43:32.352Z" host="app.diagrams.net" agent="Mozilla/5.0 (Windows NT 10.0; Win64; x64) AppleWebKit/537.36 (KHTML, like Gecko) Chrome/114.0.0.0 Safari/537.36 OPR/100.0.0.0" etag="gvbeKwgg2RxJvO4tmPu9" version="21.6.2" type="google">
  <diagram name="Arquitectura Logico Alto Nivel" id="M_TP1tPiwtbeVENYkN44">
    <mxGraphModel grid="0" page="1" gridSize="10" guides="1" tooltips="1" connect="1" arrows="1" fold="1" pageScale="1" pageWidth="1169" pageHeight="827" background="#ffffff" math="0" shadow="0">
      <root>
        <mxCell id="zsZflPO1nQ_0W1WZPVxn-0" />
        <mxCell id="zsZflPO1nQ_0W1WZPVxn-1" parent="zsZflPO1nQ_0W1WZPVxn-0" />
        <mxCell id="zsZflPO1nQ_0W1WZPVxn-3" value="" style="rounded=0;whiteSpace=wrap;html=1;dashed=1;strokeWidth=2;strokeColor=#172DBF;" vertex="1" parent="zsZflPO1nQ_0W1WZPVxn-1">
          <mxGeometry x="15" y="60.5" width="560" height="459.5" as="geometry" />
        </mxCell>
        <mxCell id="zsZflPO1nQ_0W1WZPVxn-5" value="&lt;b style=&quot;font-size: 14px&quot;&gt;Cloud Azure -&amp;nbsp;&lt;/b&gt;&lt;span style=&quot;font-size: 14px&quot;&gt;Tenant: unmsm.com.pe&lt;/span&gt;" style="text;html=1;strokeColor=none;fillColor=none;align=center;verticalAlign=middle;whiteSpace=wrap;rounded=0;dashed=1;" vertex="1" parent="zsZflPO1nQ_0W1WZPVxn-1">
          <mxGeometry x="161.47000000000003" y="60.5" width="340" height="20" as="geometry" />
        </mxCell>
        <mxCell id="zsZflPO1nQ_0W1WZPVxn-6" value="SuscripciÃ³n&amp;nbsp; suscripcion-soda-stereo" style="fontStyle=0;verticalAlign=top;align=center;spacingTop=-2;rounded=0;whiteSpace=wrap;html=1;strokeWidth=2;dashed=1;container=1;collapsible=0;expand=0;recursiveResize=0;" vertex="1" parent="zsZflPO1nQ_0W1WZPVxn-1">
          <mxGeometry x="35" y="90" width="520" height="419" as="geometry" />
        </mxCell>
        <mxCell id="zsZflPO1nQ_0W1WZPVxn-7" style="edgeStyle=orthogonalEdgeStyle;rounded=0;orthogonalLoop=1;jettySize=auto;html=1;strokeWidth=1;" edge="1" parent="zsZflPO1nQ_0W1WZPVxn-6" source="zsZflPO1nQ_0W1WZPVxn-9" target="zsZflPO1nQ_0W1WZPVxn-12">
          <mxGeometry relative="1" as="geometry">
            <Array as="points">
              <mxPoint x="413" y="65" />
              <mxPoint x="413" y="100" />
              <mxPoint x="456" y="100" />
            </Array>
          </mxGeometry>
        </mxCell>
        <mxCell id="zsZflPO1nQ_0W1WZPVxn-8" style="edgeStyle=orthogonalEdgeStyle;rounded=0;orthogonalLoop=1;jettySize=auto;html=1;entryX=-0.04;entryY=0.38;entryDx=0;entryDy=0;entryPerimeter=0;" edge="1" parent="zsZflPO1nQ_0W1WZPVxn-6" source="zsZflPO1nQ_0W1WZPVxn-9" target="zsZflPO1nQ_0W1WZPVxn-10">
          <mxGeometry relative="1" as="geometry">
            <Array as="points">
              <mxPoint x="415" y="219" />
              <mxPoint x="415" y="219" />
            </Array>
          </mxGeometry>
        </mxCell>
        <mxCell id="zsZflPO1nQ_0W1WZPVxn-9" value="Cluster AKS&amp;nbsp;" style="fontStyle=0;verticalAlign=top;align=center;spacingTop=-2;fillColor=none;rounded=0;whiteSpace=wrap;html=1;strokeColor=#172DBF;strokeWidth=1;dashed=1;container=0;collapsible=0;expand=0;recursiveResize=0;" vertex="1" parent="zsZflPO1nQ_0W1WZPVxn-6">
          <mxGeometry x="9.45" y="23" width="387" height="222.47" as="geometry" />
        </mxCell>
        <mxCell id="zsZflPO1nQ_0W1WZPVxn-10" value="&lt;b style=&quot;color: rgb(0, 0, 0);&quot;&gt;Azure cache &lt;br&gt;for Redis&lt;/b&gt;" style="sketch=0;aspect=fixed;html=1;points=[];align=center;image;fontSize=12;image=img/lib/mscae/Azure_Cache_for_Redis.svg;dashed=1;fontColor=#EA6B66;strokeColor=#172DBF;strokeWidth=1.5;fillColor=#FF6666;gradientColor=#ffffff;labelBackgroundColor=none;" vertex="1" parent="zsZflPO1nQ_0W1WZPVxn-6">
          <mxGeometry x="441.00000000000006" y="200" width="50" height="50" as="geometry" />
        </mxCell>
        <mxCell id="zsZflPO1nQ_0W1WZPVxn-11" value="&lt;b&gt;Azure Database for MySQL&amp;nbsp;&lt;/b&gt;" style="text;html=1;strokeColor=none;fillColor=none;align=center;verticalAlign=middle;whiteSpace=wrap;rounded=0;dashed=1;" vertex="1" parent="zsZflPO1nQ_0W1WZPVxn-6">
          <mxGeometry x="410" y="114.67" width="91" height="20" as="geometry" />
        </mxCell>
        <mxCell id="zsZflPO1nQ_0W1WZPVxn-12" value="" style="sketch=0;aspect=fixed;html=1;points=[];align=center;image;fontSize=12;image=img/lib/mscae/Azure_Database_for_MySQL_servers.svg;rounded=1;shadow=1;glass=1;strokeColor=default;fillColor=default;gradientColor=#ffffff;" vertex="1" parent="zsZflPO1nQ_0W1WZPVxn-6">
          <mxGeometry x="436.75" y="39.999999999999986" width="37.5" height="49.34" as="geometry" />
        </mxCell>
        <mxCell id="zsZflPO1nQ_0W1WZPVxn-14" value="&lt;b&gt;Storage Account&lt;/b&gt;" style="aspect=fixed;html=1;points=[];align=center;image;fontSize=12;image=img/lib/azure2/storage/Storage_Accounts.svg;labelBackgroundColor=none;" vertex="1" parent="zsZflPO1nQ_0W1WZPVxn-6">
          <mxGeometry x="101" y="296" width="53.77" height="43.02" as="geometry" />
        </mxCell>
        <mxCell id="zsZflPO1nQ_0W1WZPVxn-16" value="&lt;b style=&quot;color: rgb(0, 0, 0); font-family: helvetica; font-size: 12px; font-style: normal; letter-spacing: normal; text-align: center; text-indent: 0px; text-transform: none; word-spacing: 0px;&quot;&gt;Azure &lt;br&gt;Monitor&lt;/b&gt;" style="aspect=fixed;html=1;points=[];align=center;image;fontSize=12;image=img/lib/azure2/management_governance/Monitor.svg;dashed=1;labelBackgroundColor=none;" vertex="1" parent="zsZflPO1nQ_0W1WZPVxn-6">
          <mxGeometry x="232" y="290.93" width="38.18" height="38.18" as="geometry" />
        </mxCell>
        <mxCell id="zsZflPO1nQ_0W1WZPVxn-22" value="" style="aspect=fixed;html=1;points=[];align=center;image;fontSize=12;image=img/lib/azure2/compute/Kubernetes_Services.svg;dashed=1;strokeColor=#172DBF;strokeWidth=1.5;gradientColor=#ffffff;" vertex="1" parent="zsZflPO1nQ_0W1WZPVxn-6">
          <mxGeometry x="167" y="40" width="51" height="45" as="geometry" />
        </mxCell>
        <mxCell id="zsZflPO1nQ_0W1WZPVxn-28" value="" style="sketch=0;html=1;dashed=0;whitespace=wrap;fillColor=#2875E2;strokeColor=#ffffff;points=[[0.005,0.63,0],[0.1,0.2,0],[0.9,0.2,0],[0.5,0,0],[0.995,0.63,0],[0.72,0.99,0],[0.5,1,0],[0.28,0.99,0]];shape=mxgraph.kubernetes.icon;prIcon=api;labelBackgroundColor=none;fontColor=default;" vertex="1" parent="zsZflPO1nQ_0W1WZPVxn-6">
          <mxGeometry x="229" y="122" width="50" height="48" as="geometry" />
        </mxCell>
        <mxCell id="zsZflPO1nQ_0W1WZPVxn-29" value="" style="sketch=0;html=1;dashed=0;whitespace=wrap;fillColor=#2875E2;strokeColor=#ffffff;points=[[0.005,0.63,0],[0.1,0.2,0],[0.9,0.2,0],[0.5,0,0],[0.995,0.63,0],[0.72,0.99,0],[0.5,1,0],[0.28,0.99,0]];shape=mxgraph.kubernetes.icon;prIcon=api;labelBackgroundColor=none;fontColor=default;" vertex="1" parent="zsZflPO1nQ_0W1WZPVxn-6">
          <mxGeometry x="37" y="119" width="50" height="48" as="geometry" />
        </mxCell>
        <mxCell id="zsZflPO1nQ_0W1WZPVxn-30" value="" style="sketch=0;html=1;dashed=0;whitespace=wrap;fillColor=#2875E2;strokeColor=#ffffff;points=[[0.005,0.63,0],[0.1,0.2,0],[0.9,0.2,0],[0.5,0,0],[0.995,0.63,0],[0.72,0.99,0],[0.5,1,0],[0.28,0.99,0]];shape=mxgraph.kubernetes.icon;prIcon=api;labelBackgroundColor=none;fontColor=default;" vertex="1" parent="zsZflPO1nQ_0W1WZPVxn-6">
          <mxGeometry x="137" y="156" width="50" height="48" as="geometry" />
        </mxCell>
        <mxCell id="zsZflPO1nQ_0W1WZPVxn-31" value="" style="sketch=0;html=1;dashed=0;whitespace=wrap;fillColor=#2875E2;strokeColor=#ffffff;points=[[0.005,0.63,0],[0.1,0.2,0],[0.9,0.2,0],[0.5,0,0],[0.995,0.63,0],[0.72,0.99,0],[0.5,1,0],[0.28,0.99,0]];shape=mxgraph.kubernetes.icon;prIcon=api;labelBackgroundColor=none;fontColor=default;" vertex="1" parent="zsZflPO1nQ_0W1WZPVxn-6">
          <mxGeometry x="318.5" y="149" width="50" height="48" as="geometry" />
        </mxCell>
        <mxCell id="zsZflPO1nQ_0W1WZPVxn-32" value="" style="sketch=0;html=1;dashed=0;whitespace=wrap;fillColor=#2875E2;strokeColor=#ffffff;points=[[0.005,0.63,0],[0.1,0.2,0],[0.9,0.2,0],[0.5,0,0],[0.995,0.63,0],[0.72,0.99,0],[0.5,1,0],[0.28,0.99,0]];shape=mxgraph.kubernetes.icon;prIcon=api;labelBackgroundColor=none;fontColor=default;" vertex="1" parent="zsZflPO1nQ_0W1WZPVxn-6">
          <mxGeometry x="235" y="45" width="50" height="48" as="geometry" />
        </mxCell>
        <mxCell id="zsZflPO1nQ_0W1WZPVxn-33" value="" style="sketch=0;html=1;dashed=0;whitespace=wrap;fillColor=#2875E2;strokeColor=#ffffff;points=[[0.005,0.63,0],[0.1,0.2,0],[0.9,0.2,0],[0.5,0,0],[0.995,0.63,0],[0.72,0.99,0],[0.5,1,0],[0.28,0.99,0]];shape=mxgraph.kubernetes.icon;prIcon=api;labelBackgroundColor=none;fontColor=default;" vertex="1" parent="zsZflPO1nQ_0W1WZPVxn-6">
          <mxGeometry x="328" y="43" width="50" height="48" as="geometry" />
        </mxCell>
        <mxCell id="Njy59l79x8MNpqtLaCjR-6" style="edgeStyle=orthogonalEdgeStyle;rounded=0;orthogonalLoop=1;jettySize=auto;html=1;entryX=0.946;entryY=1.008;entryDx=0;entryDy=0;entryPerimeter=0;" edge="1" parent="zsZflPO1nQ_0W1WZPVxn-6" source="w8S-NbnA3TeBPGS0DVrZ-1" target="zsZflPO1nQ_0W1WZPVxn-9">
          <mxGeometry relative="1" as="geometry" />
        </mxCell>
        <mxCell id="w8S-NbnA3TeBPGS0DVrZ-1" value="Azure Container Registry" style="aspect=fixed;html=1;points=[];align=center;image;fontSize=12;image=img/lib/azure2/containers/Container_Registries.svg;" vertex="1" parent="zsZflPO1nQ_0W1WZPVxn-6">
          <mxGeometry x="343" y="281.02" width="64.66" height="58" as="geometry" />
        </mxCell>
        <mxCell id="aXKroNKd5q0ugokkoE1i-3" value="//Autenticar_Usuario" style="text;html=1;strokeColor=none;fillColor=none;align=center;verticalAlign=middle;whiteSpace=wrap;rounded=0;" vertex="1" parent="zsZflPO1nQ_0W1WZPVxn-6">
          <mxGeometry x="13" y="160" width="117" height="30" as="geometry" />
        </mxCell>
        <mxCell id="aXKroNKd5q0ugokkoE1i-4" value="//Registrar_Usuario" style="text;html=1;strokeColor=none;fillColor=none;align=center;verticalAlign=middle;whiteSpace=wrap;rounded=0;" vertex="1" parent="zsZflPO1nQ_0W1WZPVxn-6">
          <mxGeometry x="101" y="202" width="117" height="30" as="geometry" />
        </mxCell>
        <mxCell id="aXKroNKd5q0ugokkoE1i-5" value="//Recuperar_Cuenta" style="text;html=1;strokeColor=none;fillColor=none;align=center;verticalAlign=middle;whiteSpace=wrap;rounded=0;" vertex="1" parent="zsZflPO1nQ_0W1WZPVxn-6">
          <mxGeometry x="195.5" y="167" width="117" height="30" as="geometry" />
        </mxCell>
        <mxCell id="aXKroNKd5q0ugokkoE1i-8" value="//Metodos_Pago" style="text;html=1;strokeColor=none;fillColor=none;align=center;verticalAlign=middle;whiteSpace=wrap;rounded=0;" vertex="1" parent="zsZflPO1nQ_0W1WZPVxn-6">
          <mxGeometry x="285" y="190" width="117" height="30" as="geometry" />
        </mxCell>
        <mxCell id="aXKroNKd5q0ugokkoE1i-7" value="//Consultar_BD" style="text;html=1;strokeColor=none;fillColor=none;align=center;verticalAlign=middle;whiteSpace=wrap;rounded=0;" vertex="1" parent="zsZflPO1nQ_0W1WZPVxn-6">
          <mxGeometry x="293" y="84.66999999999999" width="117" height="30" as="geometry" />
        </mxCell>
        <mxCell id="aXKroNKd5q0ugokkoE1i-6" value="//Reservar_Cita" style="text;html=1;strokeColor=none;fillColor=none;align=center;verticalAlign=middle;whiteSpace=wrap;rounded=0;" vertex="1" parent="zsZflPO1nQ_0W1WZPVxn-6">
          <mxGeometry x="201.5" y="84.66999999999999" width="117" height="30" as="geometry" />
        </mxCell>
        <mxCell id="aXKroNKd5q0ugokkoE1i-9" style="edgeStyle=orthogonalEdgeStyle;rounded=0;orthogonalLoop=1;jettySize=auto;html=1;exitX=0.5;exitY=1;exitDx=0;exitDy=0;" edge="1" parent="zsZflPO1nQ_0W1WZPVxn-6" source="zsZflPO1nQ_0W1WZPVxn-11" target="zsZflPO1nQ_0W1WZPVxn-11">
          <mxGeometry relative="1" as="geometry" />
        </mxCell>
        <mxCell id="zsZflPO1nQ_0W1WZPVxn-43" value="" style="rounded=0;whiteSpace=wrap;html=1;labelBackgroundColor=none;dashed=1;" vertex="1" parent="zsZflPO1nQ_0W1WZPVxn-1">
          <mxGeometry x="-200" y="140" width="100" height="185" as="geometry" />
        </mxCell>
        <mxCell id="zsZflPO1nQ_0W1WZPVxn-45" value="&lt;span style=&quot;font-size: 14px;&quot;&gt;&lt;b&gt;TheCureAPP&lt;/b&gt;&lt;/span&gt;" style="text;html=1;resizable=0;points=[];autosize=1;align=center;verticalAlign=top;spacingTop=-4;labelBackgroundColor=none;" vertex="1" parent="zsZflPO1nQ_0W1WZPVxn-1">
          <mxGeometry x="-200" y="147" width="104" height="23" as="geometry" />
        </mxCell>
        <mxCell id="xhmHPQjb44Xtpgljff9c-0" style="edgeStyle=orthogonalEdgeStyle;rounded=0;orthogonalLoop=1;jettySize=auto;html=1;entryX=0.408;entryY=0.947;entryDx=0;entryDy=0;entryPerimeter=0;" edge="1" parent="zsZflPO1nQ_0W1WZPVxn-1" source="zsZflPO1nQ_0W1WZPVxn-46" target="zsZflPO1nQ_0W1WZPVxn-22">
          <mxGeometry relative="1" as="geometry">
            <Array as="points">
              <mxPoint x="177" y="198" />
              <mxPoint x="177" y="181" />
            </Array>
          </mxGeometry>
        </mxCell>
        <mxCell id="zsZflPO1nQ_0W1WZPVxn-46" value="" style="shape=image;verticalLabelPosition=bottom;labelBackgroundColor=none;verticalAlign=top;aspect=fixed;imageAspect=0;image=data:image/svg+xml,PHN2ZyB4bWxuczpjYz0iaHR0cDovL2NyZWF0aXZlY29tbW9ucy5vcmcvbnMjIiB4bWxuczpkYz0iaHR0cDovL3B1cmwub3JnL2RjL2VsZW1lbnRzLzEuMS8iIHhtbG5zOmlua3NjYXBlPSJodHRwOi8vd3d3Lmlua3NjYXBlLm9yZy9uYW1lc3BhY2VzL2lua3NjYXBlIiB4bWxuczpyZGY9Imh0dHA6Ly93d3cudzMub3JnLzE5OTkvMDIvMjItcmRmLXN5bnRheC1ucyMiIHhtbG5zOnNvZGlwb2RpPSJodHRwOi8vc29kaXBvZGkuc291cmNlZm9yZ2UubmV0L0RURC9zb2RpcG9kaS0wLmR0ZCIgeG1sbnM6c3ZnPSJodHRwOi8vd3d3LnczLm9yZy8yMDAwL3N2ZyIgeG1sbnM9Imh0dHA6Ly93d3cudzMub3JnLzIwMDAvc3ZnIiB4bWxuczp4bGluaz0iaHR0cDovL3d3dy53My5vcmcvMTk5OS94bGluayIgdmVyc2lvbj0iMS4xIiBpZD0ic3ZnMjQzMyIgaW5rc2NhcGU6dmVyc2lvbj0iMC45Mi4zICgyNDA1NTQ2LCAyMDE4LTAzLTExKSIgc29kaXBvZGk6ZG9jbmFtZT0iZGV2aWNlX2FuZHJvaWQuc3ZnIiB4PSIwcHgiIHk9IjBweCIgdmlld0JveD0iMCAwIDI4LjY5IDU5LjIiIHN0eWxlPSJlbmFibGUtYmFja2dyb3VuZDpuZXcgMCAwIDI4LjY5IDU5LjI7IiB4bWw6c3BhY2U9InByZXNlcnZlIj4mI3hhOzxzb2RpcG9kaTpuYW1lZHZpZXcgYm9yZGVyY29sb3I9IiM2NjY2NjYiIGJvcmRlcm9wYWNpdHk9IjEiIGZpdC1tYXJnaW4tYm90dG9tPSIwIiBmaXQtbWFyZ2luLWxlZnQ9IjAiIGZpdC1tYXJnaW4tcmlnaHQ9IjAiIGZpdC1tYXJnaW4tdG9wPSIwIiBncmlkdG9sZXJhbmNlPSIxMCIgZ3VpZGV0b2xlcmFuY2U9IjEwIiBpZD0ibmFtZWR2aWV3MjQzNSIgaW5rc2NhcGU6Y3VycmVudC1sYXllcj0ic3ZnMjQzMyIgaW5rc2NhcGU6Y3g9IjE5LjEyODg2NCIgaW5rc2NhcGU6Y3k9IjM5LjQ2OTkyOCIgaW5rc2NhcGU6cGFnZW9wYWNpdHk9IjAiIGlua3NjYXBlOnBhZ2VzaGFkb3c9IjIiIGlua3NjYXBlOndpbmRvdy1oZWlnaHQ9IjEwMTciIGlua3NjYXBlOndpbmRvdy1tYXhpbWl6ZWQ9IjEiIGlua3NjYXBlOndpbmRvdy13aWR0aD0iMTkyMCIgaW5rc2NhcGU6d2luZG93LXg9Ii04IiBpbmtzY2FwZTp3aW5kb3cteT0iLTgiIGlua3NjYXBlOnpvb209IjEwLjk4NDg1MSIgb2JqZWN0dG9sZXJhbmNlPSIxMCIgcGFnZWNvbG9yPSIjZmZmZmZmIiBzaG93Z3JpZD0iZmFsc2UiPiYjeGE7CTwvc29kaXBvZGk6bmFtZWR2aWV3PiYjeGE7PGcgaWQ9ImcyNDMxIiB0cmFuc2Zvcm09InRyYW5zbGF0ZSgwLC0zLjM2MzU5OTFlLTUpIj4mI3hhOwk8dGl0bGUgaWQ9InRpdGxlMjM3NyI+UGFnZS0xPC90aXRsZT4mI3hhOwk8ZyBpZD0iZ3JvdXAzNDgxLTEiPiYjeGE7CQk8dGl0bGUgaWQ9InRpdGxlMjM3OSI+RGV2aWNlOiBBbmRyb2lkPC90aXRsZT4mI3hhOwkJPGcgaWQ9InNoYXBlMzQ4Mi0yIj4mI3hhOwkJCTx0aXRsZSBpZD0idGl0bGUyMzgxIj5TaGVldC4zNDgyPC90aXRsZT4mI3hhOwkJCTxwYXRoIGlkPSJwYXRoMjM4MyIgaW5rc2NhcGU6Y29ubmVjdG9yLWN1cnZhdHVyZT0iMCIgc3R5bGU9ImZpbGw6IzNGNTc2NTsiIGQ9Ik0yOC42OSw1NS4wNGMwLDIuMjctMS44OSw0LjE2LTQuMjIsNC4xNiAgICAgYy0yMC4yOCwwLTIwLjI4LDAtMjAuMjgsMEMxLjg1LDU5LjIsMCw1Ny4zMSwwLDU1LjA0QzAsNC4yMiwwLDQuMjIsMCw0LjIyQzAsMS44OSwxLjg1LDAsNC4xOSwwYzIwLjI4LDAsMjAuMjgsMCwyMC4yOCwwICAgICBjMi4zMywwLDQuMjIsMS44OSw0LjIyLDQuMjJWNTUuMDR6Ii8+JiN4YTsJCTwvZz4mI3hhOwkJPGcgaWQ9InNoYXBlMzQ4My00IiB0cmFuc2Zvcm09InRyYW5zbGF0ZSg3LjI3NDYzLC0zMS44MTgyKSI+JiN4YTsJCQk8dGl0bGUgaWQ9InRpdGxlMjM4NiI+U2hlZXQuMzQ4MzwvdGl0bGU+JiN4YTsJCQk8ZGVzYyBpZD0iZGVzYzIzODgiPlY8L2Rlc2M+JiN4YTsJCQk8cGF0aCBpZD0icGF0aDIzOTAiIGlua3NjYXBlOmNvbm5lY3Rvci1jdXJ2YXR1cmU9IjAiIHN0eWxlPSJmaWxsOm5vbmU7IiBkPSJNMTYuNDEsMzcuNjJIMFY1OS4yaDE2LjQxVjM3LjYyIi8+JiN4YTsJCQk8dGV4dCBpZD0idGV4dDIzOTIiIHRyYW5zZm9ybT0ibWF0cml4KDEgMCAwIDEgMy4xIDUzLjgpIiBzdHlsZT0iZmlsbDojNTA1MDUwOyBmb250LWZhbWlseTonQ2FsaWJyaSc7IGZvbnQtc2l6ZToxNy45NzQycHg7Ij5WPC90ZXh0PiYjeGE7CQk8L2c+JiN4YTsJCTxnIGlkPSJzaGFwZTM0ODQtOCIgdHJhbnNmb3JtPSJ0cmFuc2xhdGUoMS41NjA3MiwtOC4xNDgzMikiPiYjeGE7CQkJPHRpdGxlIGlkPSJ0aXRsZTIzOTUiPlNoZWV0LjM0ODQ8L3RpdGxlPiYjeGE7CQkJPHBhdGggaWQ9InBhdGgyMzk3IiBpbmtzY2FwZTpjb25uZWN0b3ItY3VydmF0dXJlPSIwIiBzdHlsZT0iZmlsbDojOEQ5RkIwOyIgZD0iTTAsMTQuNjJWNTkuMmgyNS41N1YxNC42MkgweiIvPiYjeGE7CQk8L2c+JiN4YTsJCTxnIGlkPSJzaGFwZTM0ODUtMTAiIHRyYW5zZm9ybT0idHJhbnNsYXRlKDYuMjQyODksLTU1LjQ4MDUpIj4mI3hhOwkJCTx0aXRsZSBpZD0idGl0bGUyNDAwIj5TaGVldC4zNDg1PC90aXRsZT4mI3hhOwkJCTxwYXRoIGlkPSJwYXRoMjQwMiIgaW5rc2NhcGU6Y29ubmVjdG9yLWN1cnZhdHVyZT0iMCIgc3R5bGU9ImZpbGw6IzhFOUZCMDsiIGQ9Ik0xMi45Nyw1OC42YzAsMC4zMy0wLjMsMC42LTAuNjMsMC42ICAgICBjLTExLjcsMC0xMS43LDAtMTEuNywwQzAuMyw1OS4yLDAsNTguOTMsMCw1OC42bDAsMEMwLDU4LjI3LDAuMyw1OCwwLjY0LDU4YzExLjcsMCwxMS43LDAsMTEuNywwICAgICBDMTIuNjcsNTgsMTIuOTcsNTguMjcsMTIuOTcsNTguNnoiLz4mI3hhOwkJPC9nPiYjeGE7CQk8ZyBpZD0ic2hhcGUzNDg2LTEyIiB0cmFuc2Zvcm09InRyYW5zbGF0ZSgyMS4wMDk3LC01NS4zNjA2KSI+JiN4YTsJCQk8dGl0bGUgaWQ9InRpdGxlMjQwNSI+U2hlZXQuMzQ4NjwvdGl0bGU+JiN4YTsJCQk8cGF0aCBpZD0icGF0aDI0MDciIGlua3NjYXBlOmNvbm5lY3Rvci1jdXJ2YXR1cmU9IjAiIHN0eWxlPSJmaWxsOiM4RTlGQjA7IiBkPSJNMCw1OC40OGMwLTAuNCwwLjMyLTAuNzIsMC43Mi0wLjcyICAgICBzMC43MiwwLjMyLDAuNzIsMC43MmMwLDAuMzktMC4zMiwwLjcyLTAuNzIsMC43MlMwLDU4Ljg3LDAsNTguNDh6Ii8+JiN4YTsJCTwvZz4mI3hhOwkJPGcgaWQ9InNoYXBlMzQ4Ny0xNCIgdHJhbnNmb3JtPSJ0cmFuc2xhdGUoNi4yNDI4OSwtMi4wMzcwOCkiPiYjeGE7CQkJPHRpdGxlIGlkPSJ0aXRsZTI0MTAiPlNoZWV0LjM0ODc8L3RpdGxlPiYjeGE7CQkJPHBhdGggaWQ9InBhdGgyNDEyIiBpbmtzY2FwZTpjb25uZWN0b3ItY3VydmF0dXJlPSIwIiBzdHlsZT0iZmlsbDojOEU5RkIwOyIgZD0iTTE2LjIxLDU4LjY5YzAsMC4zLTAuMiwwLjUxLTAuNDksMC41MSAgICAgYy0xNS4xOCwwLTE1LjE4LDAtMTUuMTgsMEMwLjI1LDU5LjIsMCw1OC45OSwwLDU4LjY5bDAsMGMwLTAuMzEsMC4yNS0wLjU3LDAuNTQtMC41N2MxNS4xOCwwLDE1LjE4LDAsMTUuMTgsMCAgICAgQzE2LjAxLDU4LjEyLDE2LjIxLDU4LjM4LDE2LjIxLDU4LjY5eiIvPiYjeGE7CQk8L2c+JiN4YTsJCTxnIGlkPSJzaGFwZTM0ODgtMTYiIHRyYW5zZm9ybT0idHJhbnNsYXRlKDcuOTIzNjcsLTI2Ljg0MTUpIj4mI3hhOwkJCTx0aXRsZSBpZD0idGl0bGUyNDE1Ij5TaGVldC4zNDg4PC90aXRsZT4mI3hhOwkJCTxwYXRoIGlkPSJwYXRoMjQxNyIgaW5rc2NhcGU6Y29ubmVjdG9yLWN1cnZhdHVyZT0iMCIgc3R5bGU9ImZpbGw6I0ZGRkZGRjsiIGQ9Ik0xMS45NCw1My42OGMtMC41LDAtMC45MiwwLjQyLTAuOTIsMC45NSAgICAgYzAsMy42MywwLDMuNjMsMCwzLjYzYzAsMC41MiwwLjQyLDAuOTQsMC45MiwwLjk0YzAuNDksMCwwLjkxLTAuNDIsMC45MS0wLjk0YzAtMy42MywwLTMuNjMsMC0zLjYzICAgICBDMTIuODUsNTQuMSwxMi40Myw1My42OCwxMS45NCw1My42OHogTTAuOTIsNTMuNjhDMC40Miw1My42OCwwLDU0LjEsMCw1NC42M2MwLDMuNjMsMCwzLjYzLDAsMy42M2MwLDAuNTIsMC40MiwwLjk0LDAuOTIsMC45NCAgICAgczAuOTEtMC40MiwwLjkxLTAuOTRjMC0zLjYzLDAtMy42MywwLTMuNjNDMS44Myw1NC4xLDEuNDIsNTMuNjgsMC45Miw1My42OHoiLz4mI3hhOwkJPC9nPiYjeGE7CQk8ZyBpZD0ic2hhcGUzNDg5LTE4IiB0cmFuc2Zvcm09InRyYW5zbGF0ZSgxMC4zMjQ4LC0yMi4wNDg0KSI+JiN4YTsJCQk8dGl0bGUgaWQ9InRpdGxlMjQyMCI+U2hlZXQuMzQ4OTwvdGl0bGU+JiN4YTsJCQk8cGF0aCBpZD0icGF0aDI0MjIiIGlua3NjYXBlOmNvbm5lY3Rvci1jdXJ2YXR1cmU9IjAiIHN0eWxlPSJmaWxsOiNGRkZGRkY7IiBkPSJNMCw0OC44OWMwLDYuNjQsMCw2LjY0LDAsNi42NCAgICAgYzAsMC40LDAuMzIsMC43MSwwLjcxLDAuNzFjMC44MiwwLDAuODIsMCwwLjgyLDBjMCwyLjAyLDAsMi4wMiwwLDIuMDJjMCwwLjUyLDAuNDIsMC45NCwwLjkyLDAuOTRjMC41MSwwLDAuOTMtMC40MiwwLjkzLTAuOTQgICAgIGMwLTIuMDIsMC0yLjAyLDAtMi4wMmMxLjQxLDAsMS40MSwwLDEuNDEsMGMwLDIuMDIsMCwyLjAyLDAsMi4wMmMwLDAuNTIsMC40MiwwLjk0LDAuOTMsMC45NGMwLjUsMCwwLjkyLTAuNDIsMC45Mi0wLjk0ICAgICBjMC0yLjAyLDAtMi4wMiwwLTIuMDJjMC44MiwwLDAuODIsMCwwLjgyLDBjMC40LDAsMC43LTAuMzEsMC43LTAuNzFjMC02LjY0LDAtNi42NCwwLTYuNjRIMHoiLz4mI3hhOwkJPC9nPiYjeGE7CQk8ZyBpZD0ic2hhcGUzNDkwLTIwIiB0cmFuc2Zvcm09InRyYW5zbGF0ZSgxMC4zMjQ4LC0zMi45NTI4KSI+JiN4YTsJCQk8dGl0bGUgaWQ9InRpdGxlMjQyNSI+U2hlZXQuMzQ5MDwvdGl0bGU+JiN4YTsJCQk8cGF0aCBpZD0icGF0aDI0MjciIGlua3NjYXBlOmNvbm5lY3Rvci1jdXJ2YXR1cmU9IjAiIHN0eWxlPSJmaWxsOiNGRkZGRkY7IiBkPSJNNS45NCw1Ni40MWMwLjc1LTEuMDYsMC43NS0xLjA2LDAuNzUtMS4wNiAgICAgYzAuMDQtMC4wNiwwLjAyLTAuMTUtMC4wMy0wLjE4Yy0wLjA2LTAuMDUtMC4xNC0wLjAzLTAuMTgsMC4wM0M1LjcsNTYuMzMsNS43LDU2LjMzLDUuNyw1Ni4zM0M1LjE4LDU2LjEyLDQuNjIsNTYsNC4wMiw1NiAgICAgYy0wLjU5LDAtMS4xNSwwLjEyLTEuNjYsMC4zM0MxLjU3LDU1LjIsMS41Nyw1NS4yLDEuNTcsNTUuMmMtMC4wNC0wLjA2LTAuMTItMC4wOC0wLjE4LTAuMDNjLTAuMDUsMC4wMy0wLjA3LDAuMTItMC4wMiwwLjE4ICAgICBjMC43NCwxLjA2LDAuNzQsMS4wNiwwLjc0LDEuMDZDMC45Myw1Ni45NiwwLjExLDU4LDAsNTkuMmM4LjA0LDAsOC4wNCwwLDguMDQsMEM3Ljk1LDU4LDcuMTIsNTYuOTYsNS45NCw1Ni40MXogTTIuMzMsNTguMSAgICAgYy0wLjI0LDAtMC40NS0wLjIxLTAuNDUtMC40NWMwLTAuMjIsMC4yMS0wLjQyLDAuNDUtMC40MmMwLjI1LDAsMC40NCwwLjIsMC40NCwwLjQyQzIuNzcsNTcuODksMi41OCw1OC4xLDIuMzMsNTguMXogTTUuNzgsNTguMSAgICAgYy0wLjI1LDAtMC40NC0wLjIxLTAuNDQtMC40NWMwLTAuMjIsMC4xOS0wLjQyLDAuNDQtMC40MnMwLjQ2LDAuMiwwLjQ2LDAuNDJDNi4yNCw1Ny44OSw2LjAzLDU4LjEsNS43OCw1OC4xeiIvPiYjeGE7CQk8L2c+JiN4YTsJPC9nPiYjeGE7PC9nPiYjeGE7PC9zdmc+;" vertex="1" parent="zsZflPO1nQ_0W1WZPVxn-1">
          <mxGeometry x="-164.5" y="175" width="29" height="59" as="geometry" />
        </mxCell>
        <mxCell id="zsZflPO1nQ_0W1WZPVxn-76" value="&lt;p style=&quot;margin-top: 0pt ; margin-bottom: 0pt ; margin-left: 0in ; direction: ltr ; unicode-bidi: embed ; word-break: normal&quot;&gt;&lt;font face=&quot;calibri&quot;&gt;&lt;span style=&quot;font-size: 21px;&quot;&gt;&lt;b&gt;Servicios Externos&lt;/b&gt;&lt;/span&gt;&lt;/font&gt;&lt;/p&gt;" style="text;html=1;strokeColor=none;fillColor=none;align=center;verticalAlign=middle;whiteSpace=wrap;rounded=0;dashed=1;" vertex="1" parent="zsZflPO1nQ_0W1WZPVxn-1">
          <mxGeometry x="800" y="-30" width="240" height="20" as="geometry" />
        </mxCell>
        <mxCell id="zsZflPO1nQ_0W1WZPVxn-100" value="" style="endArrow=none;dashed=1;html=1;dashPattern=1 3;strokeWidth=2;rounded=0;edgeStyle=orthogonalEdgeStyle;" edge="1" parent="zsZflPO1nQ_0W1WZPVxn-1">
          <mxGeometry width="50" height="50" relative="1" as="geometry">
            <mxPoint x="802" y="668" as="sourcePoint" />
            <mxPoint x="802" y="-69" as="targetPoint" />
            <Array as="points">
              <mxPoint x="802" y="645" />
            </Array>
          </mxGeometry>
        </mxCell>
        <mxCell id="zsZflPO1nQ_0W1WZPVxn-106" value="&lt;p style=&quot;margin-top: 0pt ; margin-bottom: 0pt ; margin-left: 0in ; direction: ltr ; unicode-bidi: embed ; word-break: normal&quot;&gt;&lt;font face=&quot;calibri&quot; size=&quot;1&quot;&gt;&lt;b style=&quot;font-size: 20px&quot;&gt;Azure Cloud Infraestructura&lt;/b&gt;&lt;/font&gt;&lt;/p&gt;" style="text;html=1;strokeColor=none;fillColor=none;align=center;verticalAlign=middle;whiteSpace=wrap;rounded=0;dashed=1;" vertex="1" parent="zsZflPO1nQ_0W1WZPVxn-1">
          <mxGeometry x="108" y="-44" width="174.64" height="20" as="geometry" />
        </mxCell>
        <mxCell id="zsZflPO1nQ_0W1WZPVxn-107" value="&lt;p style=&quot;margin-top: 0pt ; margin-bottom: 0pt ; margin-left: 0in ; direction: ltr ; unicode-bidi: embed ; word-break: normal&quot;&gt;&lt;font face=&quot;calibri&quot; size=&quot;1&quot;&gt;&lt;b style=&quot;font-size: 20px&quot;&gt;Canal Consumidor&lt;/b&gt;&lt;/font&gt;&lt;/p&gt;" style="text;html=1;strokeColor=none;fillColor=none;align=center;verticalAlign=middle;whiteSpace=wrap;rounded=0;dashed=1;" vertex="1" parent="zsZflPO1nQ_0W1WZPVxn-1">
          <mxGeometry x="-195" y="-35" width="174.64" height="20" as="geometry" />
        </mxCell>
        <mxCell id="xhmHPQjb44Xtpgljff9c-1" value="1.- Flujo autenticacion (componente de seguridad que valide y devuelva un token)" style="text;html=1;strokeColor=none;fillColor=none;align=center;verticalAlign=middle;whiteSpace=wrap;rounded=0;" vertex="1" parent="zsZflPO1nQ_0W1WZPVxn-1">
          <mxGeometry x="296" y="-65" width="476" height="30" as="geometry" />
        </mxCell>
        <mxCell id="xhmHPQjb44Xtpgljff9c-2" value="2.- Flujo autorizacion (consultar empleasod fabrica + token)" style="text;html=1;strokeColor=none;fillColor=none;align=center;verticalAlign=middle;whiteSpace=wrap;rounded=0;" vertex="1" parent="zsZflPO1nQ_0W1WZPVxn-1">
          <mxGeometry x="308" y="-35" width="334" height="30" as="geometry" />
        </mxCell>
        <mxCell id="KI6fTCVYNoJTf58LXmG9-0" value="&lt;h1&gt;Spring security&lt;/h1&gt;&lt;div&gt;JWT crear los tokens y validar la autenticacion. y la autorizacion&lt;/div&gt;&lt;p&gt;&lt;br&gt;&lt;/p&gt;" style="text;html=1;strokeColor=none;fillColor=none;spacing=5;spacingTop=-20;whiteSpace=wrap;overflow=hidden;rounded=0;" vertex="1" parent="zsZflPO1nQ_0W1WZPVxn-1">
          <mxGeometry x="604" y="83" width="190" height="120" as="geometry" />
        </mxCell>
        <mxCell id="xOS9s1Z4wNZh5gjSmwhJ-1" style="edgeStyle=orthogonalEdgeStyle;rounded=0;orthogonalLoop=1;jettySize=auto;html=1;" edge="1" parent="zsZflPO1nQ_0W1WZPVxn-1">
          <mxGeometry relative="1" as="geometry">
            <Array as="points">
              <mxPoint x="996.45" y="262.59" />
            </Array>
            <mxPoint x="996.4500000000005" y="240.99999999999986" as="targetPoint" />
            <mxPoint x="401.45" y="262.59" as="sourcePoint" />
          </mxGeometry>
        </mxCell>
        <mxCell id="w8S-NbnA3TeBPGS0DVrZ-2" value="- token y un tiempo de expirracion&amp;nbsp;" style="text;html=1;align=center;verticalAlign=middle;resizable=0;points=[];autosize=1;strokeColor=none;fillColor=none;" vertex="1" parent="zsZflPO1nQ_0W1WZPVxn-1">
          <mxGeometry x="598" y="177" width="202" height="26" as="geometry" />
        </mxCell>
        <mxCell id="Njy59l79x8MNpqtLaCjR-0" value="" style="shape=image;verticalLabelPosition=bottom;labelBackgroundColor=default;verticalAlign=top;aspect=fixed;imageAspect=0;image=data:image/png,iVBORw0KGgoAAAANSUhEUgAAAY8AAAF4CAYAAACsDXVGAAAgAElEQVR4nOy9aZPjRrKu+bhHACRzz9q0tPrMGZtrYzb//9dcG7OZe+6dPqdbUi25cMES7vMhAiDIZJaq1Gp1VQuvxEoSCIBAINPf8F3MzZkxY8aMGTM+A/rPvoAZM2bMmPH1YSaPGTNmzJjx2ZjJY8aMGTNmfDZm8pgxY8aMGZ+NmTxmzJgxY8ZnYyaPGTNmzJjx2ZjJY8aMGTNmfDZm8vgqMafmzJgx45+L+M++gBmfDwfwPYGIAMizo3086ASeO+zEwE8eOmPGjH95zOTxxeK0tB+IwN1xd0QEkEIg+1HuR58/8jUHtPAsQxyfYyaTGTP+yJjJ44uDT/59djc+soMzlfiemeWAPEQmov5Y4vvRWz8a8glkMtPIjBl/PMzk8QXCn7x5dsTJXe7HmsceMvn3uTNO38ueIT4C/6UBv3yKj1zPjBkzvjzM5PFF4VgNeGbU0bAnyoRPNZNhvCMyvJfy/zPayIEmU7Z8hB8GXeljGsjn6ibCTCAzZnzJmMnjC8NHndtHI33wV0wkuwiISDFfHR1xpNL4gcAfCOX4AvZbPkYg+/POJqwZM/4ImMnjK8WgTWQtY+owz2QiJ2jgKSsJLrO4nzFjxudjJo+vGgNBOOaW/R04ViKxxlEyeDqeMkWO8j00U8nh3uOvmzFjxoyZPL5I/JLBX0BUsmOcfdiuuWFWXoU8VBUR2b9GLUXGKCzhkBee814cEIsXznniUJ9NVzNm/BEwk8cXhI/xhT95l01O7o7hmBl9SvSpp+t7+vLSEIghEGMkhEDQQFBFVFAEFc1lBkbt5PBC9s5wGG1c/nTcCTfJjBkz/oUxk8eXCtnL472f28fsChdIGEmM3hMNLQ0tG9vx2G1Yb9a8v7sjxsByueJsueJ8dcbZYslCamqNVBKIEogElIAiCIpIdqUzMX8Jk3yRORRqxow/PGby+AJxSBrFKQ6jaSqlhKjQq7FNDe/W7/nrh7/x4/3PvN3dcZ+2tNbR9h0SlEojVag4iwsulytuV5fcnl1yfXbJ1eKCs7iipiZKTaU1gQAY7oabF+IQFD0wV8nIIhMzl1BIbu9fmRWRGTP+9TCTxxcKn7xsjKpyDHBVtt2OD7tH3m4+8OP6Z35c/8hPu3e87R+4kw2dJPQsgghioK4seuV8XXHVrrjenHEVV1xVF3x7/YaXZy+4WFwDOiEtAxnMW4yOeBVQUQZzlkwdH8XlITh4Nq3NmDHjXw8zeXwhmGobx8SRX2BAQklB+Omx43++/8BfPvzEz7u33PsjD7S8jx132tFKT6xTFuQG4k40YWHCqn9g1VesqLhgwffdHX+6/oZvLr/h5dktZ3pGIKAiKAGRAJK1Dk9Ocsc9jT4TGKK2Zmf5jBl/FMzk8QVhjJwi+zQyeQykkdf5LfDQtvznw5r/9/0H/uPDBz6kR9plx6Y27irjfexpaXF1RB0NEIBoQu1CbUKdlNqU8z5w92HNh+aeu+aBH66/4eX5S87DBQsW1FqjElBAREEdLJVorhLRhWQN54A7pkmHM2bM+FfDTB5fGLJIdswHAsmaByIYzi7Bf/x8x//zds1/3Hf8ZxvYxhUWIrsg3GvHvezY0WN0OJbNTOrEqFTkV+1O5c555zw2j7zfNvytuee/Ht/y59vv+eHmO24W15zLGUuMmoqKWCK1FJJjyTBLBFFUBf1IPsmMGTP+tTCTxxcEdx8jqqwk+yUAzZ4Fs573m5b//v/9zP94bPhrV/Fer+nqM0y3bJLzwbfcpUijgRQMEwdJpRSJFVOUEBGCKOdBuFlWXPfOXdfz7nHN35oP/HX9M//b7fd8c/ma2/qaM1mylAULaiIRDZrNWWYkcyw5qkLQcFQefsaMGf+KmMnjC8BxusQYWYWTzFCNCNCmjrcPj/zlbsNf24r34Yz7OmKxI0nFxjvWacuWLY0YrkofBFMhacomp4PWHc5KncfUcSc9NyKsk7JOHY/3Ox76R95tP/D9xRvenL3kqrrkXFYsZEFFXTQORTDwTHZYgmLm+iUW+VhqyBwJPGPGl42ZPL4QDBkcPkQ5lb4cZgklYBi7ZsfP7+94aJy112w0smWBe5cjm7wnSEflPe6KWYNaINEh0mPm2FgHMcdI7XBcoImwU+HR4D4lHnzLffuWnx8afu4e+b574Nuzl7xa3HAZL7iQFQupiRIJEpDhkod7mFbtHfG0Wu8QnvWULGb6mDHjS8ZMHv9kHIvI0Q1dHNJD6ZHkxnqz4af39+yo2MqKtUce+iWiHQsRQoCFOkkMRel9Q++KekS8o8cAMoGUbHFTZxucHc7GEh/cuXJn68Ym7XhIHXfrNW+bOz409/xw8YZvli9I8ZqLcM5CliwGLUR0TCbc381ADPuskFP3/ryO4pMfv2APm81lM2b8bpjJ4wvANDR32CLiBAQpOR4bU35uA/+5Ne7DkjsqPljgLimxq5EQWVVL6rCgt4o+RVwVN8PEgBYRQ2QwXWl+ieb0jCA0LjTW03U9SQxbLJDk0Lbsdu94bHZ82Dzw4eqBP12+4cXyhotwzpmsWEhFRUWNlv8kn39MJlSGd8aUC6aphh+ZoPHNRxiiBBl8DDO/zJjx22Amj98dx1WqDk05g/FKANWcsucIP64T//1dz//YBX5aLfgQFmy8otEFLkLrgrY9phVQEQQsGRoaYIdLh0mLa4m+8gq1CidgEjAUD0AUUgw0LjyKUPU5BDfhqHS43XF/t+V/Pf6V2+qS12cveLm64aq+4DyecS1LbvWMVYqZFhwggMTyU8YQZJfMXQonCGS6Zap9HPVSf+Is+Xha+5M6jjNmzPhVmMnjd4NP/n1ub4bgqHguCSKQEB4t8mNa8k7PuItLHqqKjde0skA80APJABaILwmhx3yL2QPCmqzNpPJyIkIUxUTpy5I9iUBQOoVdiciqHDRAcsdoaei5szXLTvipe8+7dMeb9IJXZ7e8WN5g4YozUapUIS6oC0pVmLDQRC6bhRV1y4WStX5Ct/CRMz4+cTJ8fEoPv1gheMaMGZ+NmTx+R/jxGzk0Vx2YroaS6pREQTP6ZCSXTBQIJoJrFsI9+SUiuCiwRPyKYK+oe0FESb7GwhbXFhfotMdIuASQgDi4QXAQD5gIDcpahaQ9vXW0GCuFxp02NXRNLsi4o2PrPSn2xIXScsZK6uwPAZC0z/8QzdHHOSZgr4mQCWTvMpHJ3HyuA31PDzNRzJjx22Mmj98FT2qc79/L0837/V6cz6XkujmGkMhagpWMEBOhR+kcFCPrLnUhD0MsUFkkyT1J7unkgYaGVptc+GRwqpuirgQPCDqSh6vShUQrPa23dJrDf82Mvk/0yWk2iXXXsos7mqrl+/olr+obbqXCFJInHCNapNKq9BnJxGeeS57kDHWZNK8apmEggWcm7xlmkEFtETmhj0zP8GuoZY4Gm/HHxkwevxM+anoZx/jRennflilZzvkwKeSBkIBecgfBJnumURzFEasJfkWQGnyJ2RmdvsOtzumCeo9Ly1D8xEiZQAjFVBQwPOeoCyR1kg7Z7g5K9pNEQdxI3ZbNY+K9r/lfvOf7qzX/dtXw/SpxWZ0RkhBNWXhkSaLWKpc9kRwUIMWO5SlrVUMTq0Gu22SOpjM2NLYacJIcfAgSeI4kPpcIZj1mxoyZPL4AnBJdA9mIZNvWsDp3EQyhF6HH6aVkkZNNWhEjuFB5TeU1i3SB6Rk957RW0QZoQyJFg9AVb3UHmnKXwRLhBZY1G8lZ7hYFVBENYIneE60LKUaSOV0yGun44I6HxH80Pf/3hw98u/sbP6xe8sPyBW/iZW5C5eBuY5a7EoiSG1Q52XTmZiSyN32o8+UjARzEpY2iXMYxE62FQ+1iNmHNmPHbYCaPLwonxJrkbPOUDDPHi5PbUEwowt1pkUwsThbKXqNWET2SZEVKS0ydPnT0dYeFDqRBguGaEOkRM8QtZ4xTtAwcNBMJQUji7KwnpJaVJfoY6AisQmAZA40699qw84az9o7b/i3/3rzn/zr7lmb5hjerS27CijOpckyZK3hA81UjEnKIse+d6gNxTAlEPkIDB5FbH9U4ZsyY8Wsxk8fvgI8ZRfzZMTIascyzySqZg2gWsug+L3vwm3jWFNxzImCS7EQ3izhLxM+zKUtbCB3J+qzdeALpMZGRrNwNpS/fkXB6eksYhiUDM1pPuBu9GG1wWpwmGD+mlo06C4f3NGy7lnbT8GiP/Jvd8KfFFa/iBVe65NxroEIwjIiU9BNHcB9oLGtch/MkT7SLk3TyC7G5syYyY8avw0wevxd+0ax+bI4pgUkiuDOSh5TkPhnisOTEKSRrIb1AC4gFnAXKBZV0mBmNdfSpA22BzRj5ZYCKk/UZQTHUBcfoLReGN1G8qnDPRRBNnM4TjQsbFX72ll2tLJbCI2D9FrPErlnz2L1nvblkXV3zfX2LxCuW8QxkkRMY3UGq7HuRMInE8oPbPDW90xmU47FlwEwUM2b8NpjJ44vEsKqe5ERYKTxYvBLZP6HZ0SyD4Mwi1sRJCp2TI7YAEUV0QaUXuCfoe4BsDos9XlkpnGj7+lfZdZ3JyActRwlVRKOgrnQJHh2avid6YpeMvgZqw1xwhD5C48aH1KBNx2b9gZ/sZ96uXvHD+WtenL/ganHFMpxlZz9eeqrHMVc9HMU1j45yOdTePkYOp3pVzWQyY8avw0we/3D4s1rHPm1w7+Wdun+lNFgSLdFHJbxVEdSklBoZcieyuanPhqUSUeX0DoGSdIiC10S7QFoI3ZIuRrqF0BPwsMNDA9pjpZRJLtSYr8WR7JNwSAl6t5zoBwQVNIJLQtSogQVK7dnBvk4d6pEkFV1dsU3w2P3Mj/dbXvePfHPxipdnL7gOlywp10wiej5HcM2EOfpAco6L7yfuozjWQA62zZgx47Mxk8c/Gx9ZLud8h5xpLjqUP/ciRLMGku1M5VQ++AcMl0whvTixBN4GBLWI+IroMZNIJWTKcax6xOUhO9K1w6XHJ4l6IrInN3P6EsrrYmOprOg917WwkkRtgcqcKEqvifvU09LxIJH3oeOd97yl4+e256eHhjftmm9XL3lZX3EelyyoWEnEzZGkhUByj/UkhdRUso9kks+xj646zdozacyY8fdjJo9/Cj7uxZWjPTJoITLd78XZvR+ZDT75s4lh0qOezVCh5H8ogngoRwSSn+P9DaI9KjWiFcgWdAOyI9daT6g7lQlBAJNi2sphvAkf7EgszXjtkcveyvXlEOPelRZnI4YFo3bjTJ0L4KXDqz7xszW8T1u+qa94ubripj7nRs7QsCRIgBQIKcfuCoKYHhDbsWPDy3uZcIjAL9u3ZsyY8YuYyeMLwn6t/JHQIB8owvejRgIpeyRLTKNDBFLxHITBVyIBPGsxZud4ukF7cK1Ba1wfcgitgNIikogGCxdqV1xygqJIDt1lLFklnJvyyuG2Mzp3Oje2EkgYLcpjVB41K0xRhDOBN8m5N2ftifVuy0P7wIfunjfLK7rFDXX9gkoXiDuacgdDIaDumBVnumipbZI1EmSSAVImVo7nciaQGTN+NWby+N3xidnMzzh2s4vDSwitA2E/ogj2vfvc8GLZEhQbnOyTc4qvCH6dI7JSBX2Na5VDgkUIYUNQZ0FigbJwGc1DFYqK0QokhRSg8shCI4vivk+eQ4eTQCvODmNbwogBdqXgikvCpKeXmsY73m/X/LR7z/vFPf1t4tvqhstwxjJUaHLEHCHsadQNsWzekyMNZJjyA774u4hjLk0yY8ZMHl8dfDQlZQloHBDI8BqT44pbXqAfI7Wyk0REqQSiBKLXeKowatwVcQgiVKLU6lTaU2NE91I4kXysK1ucRp2dgIvSWaRD6Mk5ID1GR/aR+CjubYyU2ip8cAdPtNKx9sglkQ+2437XcPfThj8tbvnm7AWv6xsuwhmLUBM9oq6IhXJnmklFis7hPtbJOgjlnUN2Z8z4uzGTx1cGHzIfJOsT+7Z9w8/iuWbYz2Sc4oRcdVcEXAgGMSyorMY84Kk4qHGiOktxFtpRaUugI3hPMPJL9lVwTZxWneTCYwehDyQJmTjUSGJjL5FKPJdfF0dI9MFZkxMTG+t5MOVclHMJvE8b3m0e+Lm559vmju+Wt3xz9pIX9TUXesZCaioguJbmizKZjcFeVQjk0Ir1yQTyMT1jJqEZf1TM5PG1wQdz1RBmNUl+GDWPUhBqdCJr9mFMuvkNTgAph4sHgtfACuwCpacSY4GzkJ4YNiXSq8eBXsCKEz86LFLOBfGk/GzCvQRcHVRxcUyMSoyAcWZeSjGmYr4S0J6GSBJlI8qdCJUKZyGwbI1b3/DGHvm2v+eH9MgPZy/5dvmC23DBla5YUBEtgHn28JQExuxcP6QK+QSJ/3HD1GFtrWPMhDLjj4CZPP7BOCWEnuaRPzfy9Bmzg7hkYz+BFGf39NxDrz4dDFfFoQwqgvee+3hQoQ6aehQjAhU9lTeEmEAbTHKVXRNwzR6UCCyToL2wRXmH0mpE1QgKC3GWYiwxznFqTxjQFk2jEacVoROj0UhSHft7VEkI1nHpLa+84a9py4/bDW/TI3fdmh+Wr/iuuuEqnHGmy3zHBjrx74hP7FTCyWTBwzIxfnLf0Sw/u/c46GEmkxn/ipjJ4yvCqGPIYL4a1IZxI3sTlUwUkkPiyGVABqe65+KDruA5o1vdCEnQruRUuJIs4JWRYkcvuemTxHwOc+iT0CclEWh6pxPLTmxyKXcXIwRloUp0AUJuONUrree76dFcj0ucXnpMEjsRqnPF3FFP4C1ua3a7hvvdA++Xdzycv+G7s1e8CNec65KFVlQeiR6IhOwXwVGf+IOcwxjeE3N9/K5M5pOtp8nh1BmmJrUZM75uzOTxD8VvH5WzLxMyCMLBVLVP4nP0UDj64biD5Acp+1QQYm7VIQGxiHeRple2TcRqI14bHS2NPNKwpe9aHCM3cKqRWAPKMlQsUJIkEh1GYofRW0vTGxs3guTijskrEkpyzWVVSCTpce1AdtkB7wvwQPA+u9sNkkbMnMZ63t/f8R/3/8mfr77j29VLbsIFF6xYyYIlCxZUubyJwdjbQ59/WlND4FOaeBpM/emaxlSvmYlkxteNmTy+KgwCn/3P0nlvb9nPzvIx9cOnB3CiWorkPh0HErMCC7hX9FLRyxmdGt51dPGBNna0YUsvMprQcgIi1C4sXAgmdOK0Qu47oomehKuRzKgQlIh7oKWiJ5K8z71DJGe356KNASfSYmzIZUnEgMqx5HTWs+k33HUbPnzY8OP6Ld8tX/Hd6hWvFjf5ltxLtnthjOIqGtviHhmhDk1Y05nyJ+/2Rz/1g3ycGAYikZlAZnyVmMnjn4GPJ5j/4qEuWnpe6F5zICsTMtEw/MClMog42ftKRAbr1Thk6NiXy384SYReAh1L+uacJDckAkgkhA3oDmjJhqieoCCkXI9LjOgJ9aFXSBaVRqCVgJL7sLfidJJIaphYuZwA1Ai5LEmFUwGxBAv0kthqzvSwGGjdWW8b1mnH2hvWbHnwDS/ra67lnLOwYKkVlQcCSigmLJlob1NCeN5XJezpYdh+TAA+nu+XH7HPBDLjq8RMHr8r/KRQ+ozDRwHmQ+OLEnY7Bi2RV+dOKRtyoHnsf+bNpU9G8b0P5DF0JjRxkmgmD1/SdZeYppxEGCpUFgiPoI+odKj0qCRE8wpfHYIbMTnBHHXoREiquAQgYKp0kn0kJiUEWSCTx4LowoLIgpwhH8vVd2JsNfcgaSSxc+VyFXHf0dtbHtaPvN2959vlS94sXvCiuuI6XHAuC5ZelVwXKc50LeJ7n35ZpnvEoW5y3BPdT2gbe83icPvpB/spBPI5BDOnMc74R2Mmjy8A/mlL1P34om0MpUiGRLjCA0UMZXHk04is8h0+DBbBJRdPFC2mJwEpWd+QyUWIqJ8RUoI24rLAWSK2QKoIUUDXuCRS6a6ezVk53kmUci2CEFBRTAJDz0KTYmaTlMkDMlV4pHa4QFl6jgwTh4CBOx0Jc6EBWg3oZUXf9Tw2HW/bDT+2j/zn9gPfLt/z/cVrvj1/xSu94lpWXPgCFUVdUXdEhj4p08k6HZJ7bL7am61OaRufSiJ/hzp6AodXP2PGb4+ZPL5GlGZPo8P8hB88r6qHFXExzwxBVhMkISf35ca2mUDcUPdcTNGV6ErQcyI1KV3QN2ckO8NSjS0UaqAykAalxywRxFDPXTlMAilm4aweCBZG81ouqmiIWCaP4YotogQqM65i4MxS8Udkc9qgIfVkbWknPbsuUZlSq7KoAxfRuAfu+Jn/enzkxfZH/rx4xf95+QPf6A1LauriuN/3EZnmwpzGMWEc7zm9Fvj4CuEfYbY6cHvNmPEbYyaPrww+EsYk7HT4MdEsJpTx/KLWPQtgcZJk0hASwZ1Qetlq8TmI1UQVUkqoLenSii4pZobRgzR4WGfzFR3mfS4fgmAKKQgmSpWUypUxUHgstVKIw3PlX/WAekWdes40cJmMRG6I1YrR4iSx7C8phRbfdVuiRpaxZiEVKzNWqeXMNlx5xbU/8LjdYWZs45YXiysuwxkVgUoqKo0EctDBMH/7aftU9fDj4375LJ+phs6Y8U/CTB5fLZ5GCk32jK6OaSrDwQrUJ/vLAVZW30NHwhy4paAx9/RzIboiskIM3FvMG5wOlw5iwrWm83tEdjihmJ8CWG5k1YvTh9xrJA3Nq9yLRjRoSIPwznkiKiAq5V7ytSVxOnEaMXbiGNnpHsRpBKIYlQhRhYUEzqTiXHseW6PfOo+y5mV/ze3iipvqgstwzjlLFtRUlPsd+xg+P8+f8bR+1b7fArMJa8Y/AjN5fI0YTFV7FSO/nUghgbHr3oF4OojAKqfywSCUTUGCY5IjoUCz4HdFEkQPqJ4RqHBPdNYCCQ8JFsCixlJfTFFhNF0NMbCd5lpXBuDGvtzKECFWvpNCHmLlvvZBtEYmoU5KQUa1rLeEQOfCjoR4QoIgQQmi1PRU0rJOLWJG22z4a/+e2+6K71aveFPf8jJmTeSMJRCpTiWDTOfTD+d8uMpnRnOsVfye+sVMIDN+a8zk8c/Er7RQyGijyiQyhNs+J7gOrFYySVWTPbnIyEJDpxDBUHrJEV1DIFSg5KpLRWSJ9itUL6A1tK1Y1Oc0fYeoEoojPl9cIntWDFPb378PF5GvIesq2Smu5SpMoBehB3p3OskVgjugJ3daTwKuknMAPWeTZy+L45Zo+o5dn/hro5wvhU56zmzHebfmx7Tm31dbtouWl4srbvQ8JxmyoMpGtGl+fiFb9iZBeUoI+33HT2Q/48/jH2O6mglkxm+JmTy+Uuzt8JPEQTkSOzL5MSWXcYCP4/OZhKG8u5Ojo5LnXJBhj3v2TiCOSGAVL1BxUhewuwW2cb65/TNBL+hjS6s7et/Rpx3uPeId6i1OAI9Q/CIiOhLHQBpayrZv2wZccs4JQoPQIiQ091AvZi8DRCG6UJEbV9WuVCrECDEIUsFf+nv+FtZcUnPpC95Zy3rTcd+u+aa94U19yU284EV1xUWhkIqImqBO1sIGv9OoAe79I+IT8uDUvE+3PkcS/5jsj5lAZvxWmMnja4Ocfn+Y4HZi5SpTwTEhHB9GD+aiIgSLBmIimOfS6yaFONwYqvoqNZWfE7oK68+JrRDkA4tVj6wabKm4QJIuhw1bh0qDUJXjBZVsWlKRHPXkjvjgSIfWcuvcXnM139wrRLFCOooTs6sECbD03LRqacIy5Yz3CqhceKyM//Id20q4Sj3Xnth1Rp8Sfd+x8S3r7p4XekGz2vKyuuIqXnLBGUvNZU6CZf+Qe+laqMN0TuyBo0bFGEJ9WmoPzqdTj3XWQGZ8uZjJ46uDF4vVEHd75DMY5ZAfCiSf7hsIxkdJ4hP714ERpkg9I/frwLMpamjmBIFAjbriHnGu+LBuqDwRtUG0QqMCHSa7LPRFiDgVRkUiqBAkm6wUiomrB29xD2wlsCvhyS45N2S4l8qzRhTMqCRnoS8QKhNqF2oj9143Jxg06jiJpMKjdJmAynz0KbFLDbtuzQMPbNKGh/qGF8sbXtTXXMk5KxbUmptPkUo/Ry+mvTJnKqClavG0x/yUBp4I7985yGpCczNm/CrM5PF74+/8a5WDl5OzxIe+3RRN4kQo1WjDmpDG5JL2YamnJFjO/s6O7pxMGGSfB6JUiEfEjU6M+2aLhMBZ2LJ0xZc9VBtcY84sDwEcKjeWkogSCCJZ8/Ch0m/CvaUlspOKXsdegUVbKT3Zy+eFJ85TYlnqZkVjfKk5ao4YPARHVCBCh3EnHUlyuZOu67G+xW3Hzja5l3r8wKvmlrvlLa+Wt9xWV1zIitpzqZOsnQ3zlItmjddIJpHgk1l91g/ye7rP95i1kBm/FjN5fKXY+zz22DvCfeARRtu5HIunCckcn9mnbzPZmOSe6IZl38cwxHNA6+CrcIeYWtJuQecBSY5Yj6xa6ronhEDyQOU9tQgLlKBKLIQgkJtHkXM6OpwOo8GKT0SpZBDMpWSJKEshv7z4TTyXQ8HJSYXFN2LuhBhy7RQH3Njh3Ikh0QnqEGGbjPDwwE/dAz+1D7za3fF6ecfr1YtcL6u+5DyuiFSZxMfkwlI7q0xgvh+eVH9/KrSPVMPfETOBzPg1mMnjK8RAHNkpO4TZDgb2kqshU81jIryeW/U+WyPFx6CoqZEsn1MmuRDZiVwTuAmBtl/TurDrHU2JhRtLFKmWeKgR37KMiUrSKGwHf0f+vtyOKhSHgonl75PSB11CdqpP/CQOJCcThXnuZ27lvWeTW2uGioJbqYbieHJ2OB+0w9TZ4FynnuWy5zol1m489h132y1v0yMvFze8sBteLG641kvOWBLI4cwqBpkKEXIQwBCddcq38Utu898LM4HM+FzM5PGVYk8gA3EMf/pFuE5NU6NU8PGYUU8ZPbmnxVeJoi0CfUjic5IP62zBPYzGmuCRpS5o024aJ3oAACAASURBVJK7Lju73bMxJxKIy+wDkRCJvkOlIbjk0ijFUZ6JQHGpqFSz8JXSN2RiWBN0jGwyoDPHLDuycw5JvsE8JmtkLRAJrAgEyduTOi3Goxg7Ot6TuES5WMBjSqxTYp067nzH23bDT/bAbbrnZXfPm8Utf1q84ZwFQSLBBp9UKAJ5H4Rwap4/lzSeE/DH5/GP7Jsx47fATB5fI+R4xTqQSH7/ZPiRNcQn74Y+IPtzcSRt8pfJWHlWR8LK8VAynl8kU0gQqDVyZmd4MnqHJIGGGveaahWIWoE/4i4YPS497imTiABUqNbUKqy6BpGUxfDoWFdchFSuv0N4FHD1Me8waxv5unLdqlzu/YKay06yLyIZGzHuNLHG6NxoSXRibCrhMTrvzTm3xGXqubCOK2+47rbc2gPfdg90mvgmXrNixZIFTo1TZf+Nh1LBV/fOqlMP9GABcDpQ92OawW+hNczax4zPwUweXxlGEVMqzE7DOqeucTkSA0du8/FkT9fCp/0ge4f6oOnkLPF+9Kfki4kOKQmVK+dyQfAFmxTZbSt2qcZcQIUQAh4B7zHZlsiqBCX+SaVGqanFWXlLtD5HW403mEOIrdxtp8oOoZMSNeb7hL5hPgTjPAnfs+SiF9SAPvE+JJoobGKfnd8CbYTW4d4TwYyFCxcpcp36/LKGa9vwsF3j1rGrX/KivuUmXOLhHClzsY9qFginmOMprfvpp/W7YCaQGZ+KmTy+QhhFwMjYFO+JuMkyUPbvT0qFp7Tx9HPRbbycoxiJ8jp+P8rFc+FChM6dZYyEEIgWkNawZDS7hElPqAL1okLNcGnAe5At7oao7etJSUDFcx4IUs5PcabnvJPBCNd7oCGQREfywJ2ixoxJ4AsTKo0se8E9dzUUd4JAVM3nVChdrcCN1BublEgYLoYHx0L2rySB9e4v/GX3gTfLF3x39prv4kte6xU3rEACwQNRKpAKl6yJZPNfuaihNe5J19OnkIg/fXjH2uNnYCaQGZ+CmTy+Mjhlxa2Ces6P8MExMUTsMHxm9BNMRkzGTB25JTLIhz1TE0oZ44fHS/GuZA0kr5d34qCWm0B1Med/aAW+ohJwUx7vA9tmy/ltRbWsqeqKWNXZ2ewNVmpT4YkkYJI1ilS+J5vBvJDocGmCSCBSQenNkaO2co+QXDLLsQQP6zXSDsmLThchIKxciaL0o1YD7rnMiqpTh/xljRn3qWFnLe98S9/3LKXm5eYdr/uf+PPmhv+9fsG/V7f8ubokhHPOwgWG4V4RvCJ4RAeCyzVVckSbFDPbaGvcLwueCvUTpHH40PbP8kQJlRkz/h7M5PFF4PPWeUbuJChTzaNIUX+y4pSp/NnHjZbxT3zqUoSNH61AD+RU0UZkspNyXvF9xrU5lUHwiOsSQTETzCp6GnS9I1GB1misCNrjtJgl3HqC93RA0mwe6z337+iAJLme1VCePpeOD6iVoGHP5JHnxMomwzU71js3eoGkQi85131hnsN/U2nDW0hJfchtyVpJVzSgVpy2cu61gdBx44mX2vNAmwtG9juUNRUXXMYti+qGKBdAyMyUcpAAbkfkIUODyPLaP4njZzLFp0RufSpxzNrHjF/CTB5fGfZu1SwGMnkci/XybsIMud3slBGEafzuXivZHz5tQjgp0TvdyIHR7IC5CsHgmKSsDDjkENYItqTZVCDnVCK5s2C1QIi4bRBXjESH0UmilUQyL2VBBCnVeofyh+pjpkm58Owcl+IYyleouGZ/xtZztXnTTE55LnNyoZA1ES/zI579S1pelH2pHOt1IKmwM+eBnp9tx7k9UjtY6tn5lmvdcrtKXNY9Z3JOHZfUEohJCVaKUboy1OkaVwSaTW/T3vSnBPv0WR3sGxTQvd1xxozfBDN5fI0oZTqEEoZaVqZ74f/UdFUk6d6oLl7qVx2fu/z0w/cHpz15wPTt/kAXw8vKOqOQB0v63QqVRKuRKBViFTr4KEi49LT0tJJfuWquQElLFI/kfiFD/dxiBRrUpkK1Q28/KaasNhTlaHA5lHa8Wg7TtN8+4qh0ixWtIEVBYoWr0PXC2ox3XUPdA9bT2I4HW3DjD7zud7xarLlZ3nJVXXERzllIRZUq1EueCMNNGC65na84iObaX0M15ZHLP2K5Gp/js8/u43iilc6YMcFMHl8bprzgklfWU5/HtJ0g+7dTxWNqvjo0iOQVqk1OBydcJB+9sDKwSDYvpU10jIsq+Q9+jtgt3i7p1mt2tsT7mmoRCDEgusF9jZnTi9HrQABSeo9HhDhJLwR3w4vGMVySyOTuyo0kETrdT5VM/3Uv2eHHmteEOibPoFaligEXKZpJzoh/R0PniXtv+JtVXNia6+2G17bme9/yvTW8WSRe6BXnGgg4oU+5cq/sEy/NrBBI0aBUDhQI/yTRXujTh570M2b8/ZjJ42vEkQyDgSAmTu1jB+moSUzNV3JwHievtnOZER9rNsmnkogff9gTR47PyuQxFF8PcYlbQ2ruadIj9EuUiigRFcWlwWkwcnXfbPIK40u9lFL0ff9DJ2Vz02iuKoTjUsxP2YZlJ9IupgRzvM9P8rJTJbiWFWpOn4y+7+nNuJeeh5j4yTvqqqW2htq2vJCG/6Nt+W99w5/6DW8W17yKF1yz4iLW1JbL1GOhZKznYjBulht1uWUToBxf4ceQTYp5vfD5BDL7P2acwkweXxB+8Q/0yELk4qP54sAidXTCqeViGHtgljr6CiuDsjD1gzDfA/PVcxcsw1o3m63MLTdlEimFFBVlRdCK1PX03Rmpf6TzmioEgjjQIvEeiDh9vldCLkvi8YA4MnnYqOVAwsVKrayhmVMoDaKyELUiSPVoksaqLpwglum0Sb7DOsFNClSdseudXQd3bqzVWMes5VhIqPeQlGsx7pvEZtvwrn3gu+Y931WXfFtd8U284CpcspAVFTXquYdI1jDLPbrhJYt9zx9y4iqPUXxSv1LtmAlkxjFm8vhScVK4D9Ji7zYfN/uEQIYTTBtJjH4P31u3juzh2ZxUenf4XkjKaO/i0MZ+rPpMrhAKuQ3+By+2+mJyqjywcMADra/oTbC2Z7dNdNITpUVDQ6cVzj3BW4YSjEougQ4UncbJWRh90Txy20MvWei5gZOgHop73fZ9Q8rFy/hur2FN5fJ0rb4/JpeEXyRn0Tuect6Ilo6JuVVukfKiYMKdGf/TE510vO83vO8feAz3rOsHdvUlL5c3XFVXnIdzamoqy+XuR80JzeVXjmZ7VCqPf2WOMJuvZvxWmMnja0CREQeC+TkxMTFHPfF6H4zZn/Pp8exLmgwO+VJ48FOWoAecMqzkBxOSZwKoXKl6qJJQ6xkNS7bJ2G07kneo7qgWHUEjeCL63t8hQ04KjrlhpPHlMpDHMEPZPiWuhTy8tLjd17wac/UmZqmRdye0Mc3oL1RINKiTsewzcfRmBM09Tyx4aTYCQy5Hmzr+hrOunG3b0XU7rN3Q9I/s2hX33R2vVi+5XdxwpRec6Rk1C6JVqOUi9DrEQo/PZ3hfFhUnWWF/c3+P+WqYnxkzZvL4IvGRP0+hrDx9QhLshT5TYjkl6fciYFizTm3506ZR4/vpT6aCdXL6sn+sc0UOPx0SGGVknrJudyd1PZUEoiouSpOWdE2NWQ3hHF8q54tzqgSaKkQTMjRTFyN5X4rEJxK5R/qUFceuGtNkPPfMJx+b4nFaT4vWyV2M5j0ZjtNchSQK1AhpSDocmdjpg9GQWKtwh/Nj6ui6DY9N4KfdHa/bB96cveDV8gUv6msuuWKlKyqtCR4INnQyKfNaNJGpPjol2Cf3MWyaNZAZfwdm8vgd8akrtkEIHNrcZSLVfGK6ODz5JLaIQ/3kaN34jL9jzDF4soNRUzmOQhpPO2gXBwSSHb7DZxzMcymTEKF3J5nTAUigri/pgpD6iu7ukfXmA69uv6euLhB2iO5waehsS+sd5kY7hANDFuYytKfNfhGxbOpJ1iPkyrs6VeM4uocjJe3UdA3Px3BaT6jk6+gLiywQzg36NpuvGslRWJn8E+JGT2QbIveLCB5Iydn4hsdkvF2vedHd8Xp5w8vFLbfxlksuOJMzlmFB9EgorW6zZdKZUsWQVX4QRDF5/u6HUVufg09QPmf8ATCTxxePUl5kEMjyVBDkYZMdRUU4IBI/JJKPyo0pWfgJQfERhSYvvofz60SwZb+DO5gbCUjqdD54K3JElcqC4OB9xGwFbUDijqoW4qIi1IoFCN7iDk2pN7XvkKil10fIlYBdy+077n1pYSv4AS1MZmrKrbL3hZyaL5cctbVNXb4WNboS/rxAURsqD8M2wGMQ2uAsklFZB2pso/FBjMaUR1XOUsuddFyw5X234a3d8bL9wJvFA6+rl7wIt9zIFSuWSBKiaTHnCar5p3uJzvKcsCKazX17D/tANPKr/R8zgcyYyeNrwugVPXKYHwjA48S/p2qCjOvTg80lwe7wqAPn+CmNowzai2OZrN6zj2Nf7iRft4nT43gYSn0IyaUYoASTCF6DgXHBwwaSXXBO5MwjoQqIlopaYiCpfK+AKHgkWCRI6ffhhtNj2gOCaiwEMzVBTW7Npz+fEsjeB5JLwt+7sZMsjh1yG9xRE8wT11miJdG7Iaa55Inlsiv3Ag+aNaUFzrkkLglcWctVv+V9v+Ou23Ffb3ioN2zrLdfxkoXULLSmIhKJBM+61hiB5rn4oyL4JK9lfJiz+WrG34GZPL4wDH6Hp3/JUzE3NHwath/blPYCfCr8n5DG5DuHn370eeSq6VedurQT6slUyI7dRoqG0Es251D6r2f/SHnvERDUIo6xbgwTIVpk1SuyBKl7JDSIJtBuPwfFQy1W5RU5BlYy3aXDUUyVVBLxcsSV7Anj+C5GAjkkjeFTS26VGxRqh5rs66iB6LJvBWUJ3EjW0XqgRdl5LpOyFacl0AYninHuzpUqNxK4cWWdOtZtw7rb8Ng+sl488Gbxktvqhku9YOnL3PvKAu5k0hQlaNYD9/4p59BW5Xvz1elfjRkznsVMHl8sDuOpjlfJU4I5EAcTm/3ooz4h8I88IAfEcfya7v8ogTy5zsMe3lO3rgmYZi0EsllJhtT2UqoDj4iVXIxdoO+EpsvRUqKJOiRWCEZi5y09DpoLVo2RUT65y3GijjU3PkqS48fhnDhjtjrQl+z5kokCorkhFhSXvaOSkyPNjW2O9aLBSRiNw5a8XTEaMRoXWgm0EugEOoXWnMe25X37yLvmgW+Xr3izeMlNdc1FPGdhFdrnMvgxKFECornlrg+NscZ5mJivSqWCUw2oZsx4DjN5fIUYfB8H22TQWmQUhNMV5SAY9z059nqL+SeQxuTzsw6A44scZKwfEmHOdnZ6kVz4b4gWkpLLIAIlCbAy4UIrQlvhApveqcRZRFiETE/BegRhHdJYnCQn1AFYzsoW8jknrWzHAsCTi5v2Yxzm+bDp1n68eHaYpzL3EeilvBACnvuR4CW7PWCecz9yRoqUUjB5lnWwummgRXj0Uu7eEq13bJOzlsTaOh7ahp827/l28Y7vzl7zZvmKm+qKVVxSpwon4GaoF91HhmLHU4rYs2T+3ZnNVzM+HTN5fNE4rTJk0T9VPSZW+clf/kAgh42cpsOk9Kzw0d/x9OVjpOtzVzWcWp6M2W/YR3FJOevU3Fa+TQYtRYGIeKCywAWKJmWH0TnQQNwKQZy66hBd02mikZY2DOG6pSYUOaw3R4HFnCToTDoMyuSaJ1d95BbQ/aB8zwPnldAy19wDpAOCe6kRlolDMXADA0dzKXfJpeBdQDWXirRSdqSuF4jn0vFrd1IymtSxJpd7vydwbztudUHbdWwetzw097xevOLV4iU34QpkiZhgnrUeQfL1ePGKyZRA9o/iU81Xp5TPGX8szOTxheGjf7fTnIKJ5jAcuc8wL1JgQhzT6KIh7HcwxQwkYWV/Fr2FOCYXNrUATTHKnfJ9T6w/E0E8imL3odsSI1UNtaemwyjO3lARbIFbh3cdzTbR0cNyhVWXWJUFvPgWkVSaQGVSzGVJImqlACGWTV/le7Iw9clcDAJ1P7s2am5DkUIvx+awXClCuQfWOJsJQTN4PlQYCqIMJVJchAqoSgRYcOHMBbEcUuzJcXN25jTuPCC8VeEq9jRVxbbdctd2vGvXvGvXPNiWb1dZCzkPK2qvqCQSPOYy84C5DA0Wn3mQnPxFPE0Y06c944+EmTy+ZEz/WkeNI5t1dLqxvM0/B/vVXtoPhopRJkyOGUS3TQT/INz2XQUnZqzh2OeWngNhse9LcUBAudsRghOS5AZI5FBbOT5P+b7eIWigkhXRoEnGbptI1iK2QFfneDTUWwLb7EnQFsdRE3L/kIDaMnc4lI4g3X4iCiHkjPXB7KflwnVy/3sNCXJ9qcpzWG40odXsQG/JGkgnJTS5PCeXLL4jOYmwAqI4VTlPVYho0ea+6R3QGWxxNmJs1ehL7/hLSfTVght6rl1Yt1u2/Y7tZse6f+TN4iUv61uu4yUrX7IU2JevH56RTH4h9g/700pg+dEnP3HMTCj/ypjJ40vFdBU4IMvd3O1umqswaBHl88FacJIkNj2dUxb/nolj7/cYxOS+K+GURKbX8uR6y9Euk5X6cMaimuwJpVDhmB1tTFlt+C7DaXsjiFDrEpFIm4y2aWm6DrFEHSriskJSi+oO1w7XxFBXy90Rr7MG4kKlgWogNzwXGywFHAcNLGsIcbyWfF/D7OReGyIGHohkf0aS3Ca3A7ZmtO5lHvbPCcnRWC5aSqUMufhCAKII0Zzg2QzWk1vSuii9Gzs3GjfavqPZbPkmntFXF4R6Caln07zl58cHbrbveL16yXfnb7ImIpcsqaiJxFIrK1BKvfhU4SjP4xOSCI/XD0/XE8eEMpPJvxJm8vgScUwaDMamnAQWNRA0d5048E8cHTMtLQKDZpGz04fe44P1yOCILPYmqwNf+DMah0/igg1GR/NxxnoWwnlF7oNyVMw6+2EyntMEeoPeBTdBqBC9ZrVcEPSajgea9QObvqO+vSLGBg2OhQ6zHM8kGBoSVYTzsCB0bamVle/csNziVnLvQpceo8oVsArRDXNk7MN+RTqSBEwgeo68SmXmqqBoub/BHDiYHNUddSsk6qQy38mcLvU0SQieuxSmIHTFNxI0UseACtQ1LHrFJPLgjlnDB1pqFRauLG3NavOOF9v/4r9d/5k/n73hTXXDLeesZEElgeCKWjaVjYmGkr9MSgj1obz3yb9PfgM4RQ7H+gkHo2Yy+Zoxk8cXjuPVviAEHTSPiQbxdPS45djSlO3evieN6eqa4YB9bsax9vP0q0Y149CxXkrGT21mQ70rH30uUq5Cjs8GRTswyUmEuZ84QCTIkkrOSL7E+zNMOtK2QcMDLrvcUEkUgqEKwQ3xHi+5F9G1BMwyRksZhkiPa4sZJBa5XzzZT5AQkpLLvksP0pCIJIkEwtgvJFsNnVA0lTCZs4kHJG9ySoJknv1ENnNFFxKOuefsewcRIUhupSvkedk5mPWszbM/Ry1nungOG77tP/C47XnX3/Nvi9f8UL/kZX3NOSuWVEQ0+0BcCZKrFYvmK5RBZT1+JtPfg4NfjePfv9PkMD3XHNv19WImjy8ex3YrxlWiD13/OKmsnJbzMJHwezPXAXkc4xNPnoXmaME68LMcmMukiKBx53TERJiUzTKelLHChkpOB4wEKo+IncH2EmeH9aBLIdYtoeoQ7REL9Kmj6TtCEfBeQqb26+GAU+OuJIkkhF4sJy5KzklJ4sXVHhAqUumkLlgmq8kdTFvFTl1Tg5looM29ES/3/+h1cKYXbcfLoqGoMeLkEi7u9J5wzz4WEUM0h/xqucKEUPsdu13LfbvmfX3Hd8sXvKlvuQ0XnOuSpdRUHjDPhjR1L3XBTsSiTZ/7kdx/+ityWhs5PGYmkK8VM3l8QTiW0QfZETJxmMPoKxgr3Q4C6kiYD+c9OP9EGJ8mjSdHnCaQ6QUcfefYN2T8zr0gfXLDI4FMbvTgfPJEZuVGTpSVc4R+hfkVlnq8EyQFxBtCaJG4w6Qn0dBZT1+0iGE2R1Pa2NK2whB6UXoxbMiAL5pQZrBYSDA32B1IQPd3AVA0pUNCmcKhdEksd1nCdbWYywZ/VjZ3yZOqx4msOUkECfksSgmqUEGT8o6Odtfx2K5517zlx/U1/7Z6ww+r17xa3PIiXiGagxGSgZkThFz+firahf3CY3hmH5H7g5FrJod/Tczk8TVBjsS674XINHNiMnzEoBWMJDOs6o/GPO21+ikE8nT7qcNh4uc4GPD8uV0gudOWxlKDd2RoPGsuiAWUFW5XSBI8BcwWJN+iskWXG5Js6CUh0pPciplocFcr0xDa4Wci+0F8eoHijD1CJiUgHcZotSHxcNAmDkqfHD+gPY+PlWVg6HQ4fMz/qh/P3aFGh0pxrmfiQJUuKI+WSAtoveex2fG+2fDT7p7/2rznz1ff8MPlt3wTX3KhSxaaq/XmfupKLOY/KQmchzzgh2T4jIf9l7WLX9ZQZnx5mMnjK4RMSk1MtYvjP0Gf7JjuH19CyU/IG45rYX0qUZzeLocMB08c+vsxz5/byOXM+1KfVqRkbe9ZEyeCr3LbVj/DWOH+SO/3JL9HeoUFeJ2d5qQWs568Kh40h/LTyeYpcukQHwljOrs5umqgjqlpZzodo3nKT4vGgSymcz6YIfXoYZ6qvZVNf9NcnDKfSi4qaTkyy1NP48I2CrXAY3Q+9Pf85C1/WT/wTf+Wf7v4hj+vXvOGGy5lyaqqiEmwpLmHiCiquZejTEjC5fCeZ/xxMJPHV4UTf55TEvFnRk+1jMmKVibC+8BydHTcE6n+MQKZXBNkc9AxOYzfdbD9WAPJxGBAJ0YvpdmTpOzvUCktZXN7WbGzrEeIY1xgtqbzBW2JQ1ZJaN1BBPNUyrPvzUPmmTyGllIJI4mTC24Ze51iaAn7/7P35t92I0ee3ycyAdzlbeTjThZZi6ql4/ax/dOc4///Fx97PGN3t6QeWT3Ti1rVKrGK5FvuBmRm+IdMAAlc3EeWRvY8jm5UPd57gURuAOIbEZkREcOnRCtTCkGS/tB+DSNf38jHO9AYRtPcrnXkGsxginNFsAX8Lo9Je2cFVPGq3LgGg1AYQ2kNZSlUKvwQGt66Lf/W3PD91RU/7K74av6El9UjnpoLlnZGiU2e8RrXXKQN9vjng4qIk0ft43OjI3jcQ5p+heSuk92pu17BJJBGXxGkN3vd1fJHgWK/QJaz6o6+SnbplAbS+j/kTDJqANFEFM8YNRRqsCoUGIqkPTgVqLe4sMHTgPGYSjGzElFPXPaOLD9qHXTahk/B4cGBhq5jtvWJCAk8tMSKYo3DSEw0JWNUaAHhI9PbgoJJ98Tk90aHjp6dJjeqqHUgBdAQ0oK6slVPMII1ijVKKYYKQxWUjTTcNI6r3Y73bsv3zTVvFte8XjzmmX3IA3vC0lbMKKhCoEQppNjTjO4myT4PXXjHw3Kke0lH8LivJPTsQnImv78hcnRZ93oOXtNM6m//jPTOfB/ry92u5WPO32s5MVfE9GWxTGJ2eacnRrO3FEMMuG6xFGopg1BiqNLCt6NAaXChjltry4BulSACsgVpaF3YIoBoSlLlcRLT2qI+ah6adnepTXGxBAkFojOMOAweY/raxtrCcGaml3tyDaUDjsFcZLnWs4pzU6QmVU2JIU2Cj+ludxacBbUKJkTvdlGqIMytUlm4lob3zY7v19d817znu+YdX58+56vyKU+54IIlxgiiHovl0PrGYZLR55E+dzqCx72kXB84/LJNLSGMrUvj8yY7P14DOVjvoO5DJqweNMaax4RusvfZRgDugSZe0ebipvXH7hhuNCGpWIKxcTtr6M1QlhmFLLF6inWOsAuwjuWlahlxMlCJx2lDIw1Oot7RecFo9PYu1FCKxHAnSkp76xE8hoDR6RHm9EmydWey6+dzrMzkjXQxzqTXOvK1q5gyi5jhUARJEoNxAeOj/0qDwZewNo53vuF7t+F3t9f8YfuB6+UH/sflC8ryEeecUskMS4OhSODbesvAcFm89WZpPzPkG0zOGFqP9LnQETzuOcnoxydYhCZfQyEtxkqScrvPPkTIsPQBVeGT1kCyXqZojZOXtupJ9nu8aB9t/5EJ5csnod13lfwiVGP2viJd7wXEVFTmDDXgncHfFGw2ntmFYiqwxQ7MFs+GRhw72dEQYo6RDqSEEsusM4/FXCFeGlzn0hf9ygfrAHo3O5y6f2lJYXDyo4CTAUhbuI1bZYyhMAZrAs4oBUKF4RzLRYCFi+HhG5SVVdYzobHCTbBciSLbG07WnrPba2xxRmFOOC/POFk8YF6dITIjhnAx9FEC2t4U8a+NpZV3efAjG/vHxnqke0VH8Lh3tP8KDQPY7dP4Xex4cX5N8osI0IXNMMmfYMi0x/bpie7dBSCZKaYFjr1NxNKNajhk7Rlom1mwtZhJK8W2GopKYtsx6i4KZYjgEUjxurAYZhSqiDOIr8BBYwtYBIrKYEpHUwi1CTSmiV7dqX8xGq+hVMMsFJTaZh+ExjhUXBqy6XetfSILTBa9VDzl0Ujjj4c/xk73W9Px/ZIWcOMerhLhhIJHUvJUhRNVblE+4LjB8d56dCbciAfjqGh40ey4rlfc1u/Z+BJrTwjbS5rFQ6rFOUV1hmWOpgyOQz22TUE8MZY07jyp2RFAPi86gsd9ozHP/hPeJhlxZckOGo1LxRYG0rFmNuzu2KF1jgO40oHC1GUdQOVMb5+hdEy1a6cNk9JymF6SzcPueVG2VmNODBNzeCBxO65Vg9EZVg2ow68DeMXPLTKDZgau9ATjgRqDS7nP03qKFpShoERirg5iMEUvvgOaYdCRjjfu3b4Wd3V0rAXJFkDbJFpjbSYH57Fw0JbJ56sL9KhQqXAmhgdYHhjDqcTw9OoC1+opWxLPtAAAIABJREFUzY7aRnMcNoZIKY3FWIM0EHaBRkuoT9HdOVo/QpaX2NkltjhHOEVZEJgTvfVNirjfQmJ+zxVJPjRy1zNxpHtLR/D4bKjlGocXzDsGxB2voGTOZkSrf3vd2HolE8f2G9PBoZYBxNMdWxysf4zbaClvK16VEGdw1VAmby9xJqCiNIS4LRcf83aoUgQDOoMwwwfF+UATU4pDULx4GlvjabBG4yJ4AFFDQUEZYlKqEkl5QNJ+LHFpxYPBlmSBgcd/3tduTtPBMBpHW02/gUCHzDU38SGZnSvlgE8F2vAvLViJEWYeTh2cAWceTnxsx3vhFFii1NIgNCyMsiyU+Qyq4Cl9g/EbtFGCm1G7JVo/xG8e4RYvmJ98QVE9A2tBlrQRifu+hC5Sb+xtiqo2eF6PwPE50RE87il1QmXOkNqTyRKQy3OD6+58FXuzVCcrd1xOhmsO/HQAya1e0mkNo8GMy06VGBXPJVQY15SWt1O+C4vH4jtTnWAxGv9EFR88TjUFHoyBDoMNYKGQgtKkZEliscFiU6Sn1jADbVytvp8hA4l8u+5PZYefarpp71t7p3U8WUkDEY35RioRZhLXbQJQS+TzXuOOtdOi4JGN5RaqnAXPGxqeieOh1JzKhqXcUtDEBSVf4ptzmvoBYfuOZv2B2eKa2clrirmAPUW1wmNjbLAE+jE5WX5zJX8Sj/QZ0RE8/rugMXfvWdDHAGQYCH0aQO6kKRPWIT4wchiUu8p+cgeSpC1t3KneSmKI4cbjtxJLgSZTjVNBnSFQ4I2gVjDWUjJjaUqsCTRuh5As+dL6nGgHSgUCGv3MfbJFtXL/pMFPOr6erW0MDTqHvNEPDX1vnSNV1NZVEc1PJhhKhBrlmoATpTLahcavrPBUDY8dPPTKpTa8aba8qtc83K04q9cswopSXIRqNQR/Bf4dob7G1Tewu8ZvPlDOP1Atn2NmjxB7hkgKuihpU7RATBMZIVlbc+cRQD4rOoLHZ0g6YD3TJKOzA2t8Zt/qQgPmyTdyJt9efJCZ6+Dbx17/T8tS9yntTvQiDbpdSLcad2UFtVi1MaSILLDGYKUkaIG6CrczYA1aFFhKKjGUpYvO5Thsss/HhjQ5Wcaw56T8F63035mcsjGM1zf6CRjclf5zD0D2Z7aLSjyess4uFO9jBVg1yXSnbEOgJnBNNF9WKDNjWIrySOGsgWdN4JlzPGs2PK2vuayvOHVr5mFFJY42P3zQGUFneLdG3Rpf36LbG3Rzjd9eYU/fYObPkHIBdpZ67dNtLdOcmaPJ6jOlI3h8drTHioApPqvd8dawHM0p+WJqOph2NbWVaLJFj5ngsIFprj6Wprvj2cGuzAhIhowVWgfDPbaie1+Sx3wKnJE8wIMqXoVGTMwfbgCjGDGUpLS0TkEdjQSMWCSUGK2wbCk0oBJzoqt4QmcGiznRC6JpLiJG6KLrtuPo8pR3Y85XL9K6UB7KJJmZuryQexPSUrw5bQ6QTmJvfWJEujBXVRBOfNQ6bkS5Vo/TkGQIZSawLAvmIjx0wsvG8KqxvKyFR7XyYOe4aBqWoWZGQykxvhiqqNaEEPAqOG3wfoW69zj3Pc79niL8nsK9pFg+xVSPwJ6gsiAwS+lw09/dN7kf88FzU2WO9P81HcHjs6F8haOVcXtWdLfUnxtG0m/pmVk07KQWhMNmq0MnBmiRxVCVST4ff8rosrZ8BzCfbLfqWLG0IcvVQog1uFYbMDFeVUyWpMlnY0bhTSorQIWEEtES0Vus3aG2iVn1xEXTWHKWMWJjjCtAQ8zOGMcr3fiUCB4+DdQM+tnm/mhBPnSW/04LadUQzcA+m1RN9rkI9u2cmxhRN4FD5eE8GCovbApla2GNdsm45hb8PPbpQS283sKbWnm9VR7WgZPas2gcRhoKU2ONT+tBgAbQBqXBscFxTRN+xDff4cPvacK/4puXOPeGYvkVxeIl2Kcgc8CgatMuv/0nd/zE5qbAvMRQfJqu49No+AYdYejjdASPe0E5+79D4hKl/49pk8joqiFzbpn/EERSComeKeXWKx3VMmlKyk1Xkgw4sn9W9q8aajwjGr/BOUfR4eHW4TFa4NrF2bRNVTT5t8Q9QDZ6bwAFSBmTKzmBXUnAspMSrIF5Q5AGIyvE1Bj1qImhP4waBJNAULs2XIrIG0TwKZNgkFbPSHnD05+qxhhU6T4ESa512npMxAnwIjRET/E2p0huHhNiZkmLUEqM8WVTqtsCC7bEG4srGpxR0EBhFKuOB+J5jOe1wsvtNS9XK541Gx7XK87cDfNmRek3eNmi1HgN0IZ8b/UpUUrxGHaYBCJ1uMbtfqTx39PUP1Ds3lE1H6iWG4rqBcacoDIHnWFkGe/F4IYHOkGkA8v2/vea8n66qhxofxp8DJ/jdmaPdIiO4HFv6C4Df3su+i/E4BkZJ514wnvmMqozoURkasn1TuJOojZrXV7HpLbRdfWA6Spx86kQ70OJMoHMnlbS27c6JqH7dfSd7OPeDiejk+GRlP+v0RRWvKs7XmXVIL7ENZYbLNdhSyULCrtgVjlmxTb6ePgGwYNGDQU1UbtQqCXmHWkEvITo5Z4cMW2CjOgpbxE10VckxFSzwYIWsESogrDw6V5p1BTWRlmbmD64Tc0bVAlBMT5QqLA0lpkYZmKYq1CGgAuGH0JgHQIf/I516ZkXgcsSHheGV97xsrnhm/WarzfXfFGveOjWLNyKMqywcoPYFSINIe5fJiSdtdtmLUpMlitYcQgGIzWOFU6vCc0Kvf3AbvcDbvU9xeI15eIxdnaJsY/w9SVwBqagtbfFumNLqiaZyVqnQk3+osNnvxVb/nykRxC5g47gcW+p5ZatPRvahUpFkzRLjx0TUvq0j19UKTojmJDMKMn23mobB7GsE3cnuHi8uPUI39OKcu0m9aN73ae0iikc2BtPZtDLuib0449tt+qUGV5vhDIsmAVL4UtqU7CTAi87dnVDVa2RYkMpxBSveAwNMZl5gRIjXDUSwWNnlMZEc1m7BlEkU1WfkdAk8AANKX6vgNoILpXCEiAIIUTnR0cEj97+FfONExTvNW2HjXpNGYTKw6xRbkS4wvC+EBqxUMBJoTyynlfUfNvc8vXqA69XN3yxueX57pZF2LD0a0o2WNkgskNMbLcNPB9SuJhW86DNiiLR/GYFCgNB3hN0jffXOH9FaD5Qb3/AbZ9iFk8pZl9SlhYxS2gDLgpIyrmrKRxMlHaSbiE6kZiKTjXRDFQO6fFTj9j0wXjimA9xn47gcS8psx/FtyUek2xJNmeU491RpMc9cezBzpy2KrIQ7W0dqVzPv5PcJa19/SP93TMbDNvsvk9cuXe0u0YGJrXxlYd6lXtr913LkbE/rviUQ8OgwYKrgCVuvUPEJZ8Q0HKNYY2RTVwzkEBDYCeBnUCD4tPuq5hPwyQTWfs7wr8kvTGknCGxa5E5WYTKWCqJgOFE8Ro1jniz4qBKCcykSPGqlFmASmGGQvCsgCsbWItjLSDG8ADlDHjhlS9czSu/5lV9y5PtLRfulgW3WHOL0S2YLegO1EUtMuXxgBLRGTFulab+eBAH4tOmvdA9X1YCgR2WFSa8p2kMzu1wzY/I9nt0/p7i9BY7f4eRC9SeglRx3YqCNgBmskfSR89KLYwfAO3naCry71Tx8c4QOfCsHmlIR/C499TJ0UAfIryPpXSAOn4+IaZnBh4xuQTXajk62Ll7kEXLRP2DhjKufwcA7J3vzen9l/H1Mm46t31P1Jmdl7R2lGKQpFAjccAhFBAq0BPYeBxCo0oD+FBCkeJFiUONw4tnR8NWaOPrAkU0g2F78FBQDQTimoGk3VIqxLhWyVRjg1CKwWqgUcUFxUuIYVegS4S1BB7agmUCjggaiguBbQhcG+XaKDsESqEqDI/V8hLhdVPzxXbH880Nj/01j90ND/wNi3BDISuM1IjUJDhMt0ERMaiWoHGtQvGIJOBoZz75ckA3vRg2IIbCWIqguLClaT7g3Vtc/Y46XBHc95SLF5jZU2hhzpwSwSq+A0KgTwMsg3s6DIEy9cBNqOEHNOujlvFpdASP+0Y6einyh17iaodPdvUuBPf4HUqSe7cD6A4G75PNvo1tJVla01aH0P7HhKlqv85+HKPzB01hE3SHtjJUKX5CPdn1koddlyxMiJq022oRzW9SEFRpgrBrCsxcCAVgd1BsUAO7ZkstSpTGswyHmOibrgLqCQk8ohdKjAisyQQlEhfTjTF4B40qO1W2EqiTYa4Sw0yEOcKpCo81fs6ASgM7hdvg2XjPFuU6ucOfi+eJtbwB3rjAF67m2XrFs80tD8KKB7riNKyZhzWFrrE4RBr2mK8aRC2EErRKoCGJoXerZv29b+dePbDFYCkFCusp2eFY0/gNzc0H6t3vKbbPKU++YLZ8RVG9QPUhqmfEgCqGNjlY25eUa7G9cel+9sLGUMn8GGgMn4+owEyYxo7U0RE8/pvTlHQ0dTwaOrxRaitsC5m+RuOj3y5aDz4HzbbyVSAmUR01NaIOOwbNSWYiGJWcBJs7jndtj8xKH6O7jNiT4NNKqMkEmILzhdb0FyxWDVZPED/D1AtMMHhXsKktvoFyAcV8hSk8vhQaF3dWGe0jFcf0uK25SlKLMRJvq2bEWE8xR4mVuA7iVdjGuI1poTzm4jBWWBrhTOHMC+cqnHvHaYgL7IULrIKyDclHxwqhtCyC46kEvvQ1XwbP63rH890NT5tbHjcrTv2K87BhwYaKLaXusPicLadpTMChbZAW05mUtGXkYiLAiAF8fBY7xTMANSImro2YhoKaQrasm7e48Huc+xe0+Ue0fkO1/Ipi9hpjnxN4jOoMkbg7LlZoR/c1Gv36nPPjh+BIf246gsd9oL3gf4OT2feYa6IxsLX7iweafbZavGYAQjouqdpoNZYukHbb3mDPSoYPeW86bWTKMSRXhQ5pG4c0mdwUdiBbXWfVyk1XozlsuzasP6W27S5KEWSNoBKjwFpi/CejM2wQjDpCKNBmRt0YGq8UKKX1FNUGZwLOGDCKhrgwHsOi0C30dnqOeII0nakKMW2KK8AgQfBB2ITATpWNiX4ZagylFeZGuHDw0MOZV87UswhQqCAumrkKFLECxkBpmTeeZxJ4XW955WpebTc83V7zeHfLw/qWE7/iJGwozRYjO0T8MAUuPXjQgodGoEMyR7/O2a9NDmVITjGpngCtNiMOqBG2lBqYyxaH4n2M1uvC92jzA27xDlvdYMoGYx+gYU70ESEBidlT0kVkoH3f+QB9hI4GrLvpCB73jA4/rP3LEN+NYTlNEnv7Gbc20n3vz/UgE6vRjv+POtLz8rH2nlsA8gKTL+R4PHeZskbmjuxwiw1DrNlXLfKYu4cAhLRVV1tTiAA2agkx2pKhDDH/hdECFxY4DdTscOKorVIUgbL0qN0QF5brFEAxrXIIoIEgIaWMamIARpP2y7WmHrUJLyPTq1VpxIONWQ4NUAFzhEUwLJUUdgW2JAdEIFhYK2wRjAhnajCN4UXj+UYcX+9ueF5veLJbcZl8OE50xUJ3zEMTtyEnZjw2nNIZjIQYs6VJJj0P3V8775LGFbUryZm4JLBunwONSbSsOEQUIytUa1wdvdVD8w6d/Ug5/xEzf4naSwIXxBjAZ8SVn3nURkSTM+cE8uVm3fwxGDxDw/G2AtZP1IP/ougIHveUBgy7ZfT9l7H9aPg7SbytEN9/9juvevYqe5e3JWNVE3A2evE6Bn2o4L66sl9s760e/exwpXUFa3cp5XWPLs/ArzvfrSkl3w8JsY60BmuIgQQLhSqADQZrFggFTVCcA7czmNJjyxojipoFotFx0CbNQ4CYET3EAO7iUeMTWIfIcFsTI1FIDyp4CTRGUROYq7JEWIrhVA0LhTII4pXaK3WIu498uzPLgBODNZaHtuSSki91wzduy1ebKy53t1zubjhvVpz6DcsQgWMWHIJP01J0YNAa+Hov8DiqqEG0OVM0gUJIc286tVBU4hbfduUcJbo6pvzwWEApTGT6pXGorHC6xvkP+PAW736E5i34byhOv0bNM+BBrEdSv5nRxWMhv7/9Kkn+iAyev1wgyXDuuNzxcTqCxz2gTqqeWmROpKPP4fcJMWtgUpK0w4jBImAfO2nqBcuqOdRKt0VYJ9fH9wfalvkYgAx/H3yJuzJKntdifH5k2chYS7LbS/s7rVG00rxGfwUjlkIshZxiQoM2Hr/dEYzDBks5N4gtKfAUadE4+pkn6JBoshpuRUhpWokaR4zDFYGmkWieXAAzMZyI4QRh5uO23RqoNbCutziJCbBCITFToC05KwourHBmhK+t8PVux8vdLcvtB07ra+ZuzYwdJY6iTaMbEnj0sUfSIxR/x9umtOAhuC5Kbnd8T11sV05acFGGu6LSRnFpHQ5jTvhCAkYcXh3eK+w2NHpDuXQU5gbkEcglyEMwD4gL6iVRV4wxBNAiaT7JnyZpmLkT4XhrCJ2S3sZJyDXZoxFrTEfwuC/UMrmMYQq0wVHjg51+dLkR9ipJ8ngCjlwj6ExVrRrSNjJRz5QVaaxEdAU70T71Tz/yet0FIOOimTA5Bq70jh/Y1DVtbJCszjiV0dsbUswqgRAUH5Jns6Q5TMK0NQUzWYA63NbhG8GvLYuHc2aLJVXZUNgax5ZNWBFCQ/AREDDpT0AoQQuE6GmOtp4fMclU0CiZFxgWIiwwzBVMUFbece0cW1F2c4OzgjdKEOXMe84MnGvgWVPz1MMX2w88Wb3ncnPDzN9S6Q2VbLC0W3FNUhRy/yHJJl06RTc+W74DDJEIkJLbPLsF9RFk73msxuz0kVJUL4350HsMqzG8R3WDq6+5/eNbGh5SVM+ZLb+gmH+BKVO8LM4gnKKa1kVE4tZiEjBJm9Y4CTqHQESGUDGEwyOA5HQEj3tCezzwgLF1ENsoL9t99DXlPHqYR3zY2iEWnoNGe2T4U4fcfMDlh50ftHEIQD5Be2lf7MHvxAz2XutMIUnwFk1KHRCmREStNBxAQ0wQ5VCCMQTpNxSIGiwVhV+CM8ASqSvKakWpFeV8Q1GtkUJppMaYHcn7MJO4Y24Ro7MkFfe5BDVlQyTENIeWuA13JjE/O15pVFkZZVUI28JQlyatpQTK2jFDeehrnjeOL7YNr9YfeLq54nJ7g5VbDCsK2VBQx23ZIgSxcdF+SiKRHjiCpND0nanKDYGjm/c+xKN2u/raG5Hf5EyyUQFJKbYkIOqx0gA7kA8Y3lPXf8DoCd4/Yxv+jcK9pVrcYMoNYp6mnCsCUqIaUCNxAb1VgroHWrMe5C9a+97ICECmNJEjHcHjHlAuScO+9SZ/tAchN9IXzY8MPqaNXNO6hgwr3etjr3q0glsn1XULKyOtJatqLHf+SQAi42KagCF/mfuXe5iwTrv5zbWZ1vM7/sX4SZ42mGHAd+HNY0gYh8VrlZwBS0QDbldEA1goMc5iZpZZ0bKZDVs2ONVOKjeUMWAhcQ5VI2gEk7Q37zGqIAYvGhP3QZcBcGeFxkp0HJSAsQFTeE6940lwvGhqnu92PN9seLy74qK+YenWiNkhpkHEE9dKQE1Mw1uENmkUdIG/BIK0sbRC9/yZznyVhfLvqHUYTFpFlzZZQKPPS5sMqvMeVzO6WX5PvRTxlLLDiMT1kI3Q7JSwcxSzW4r5jxSzH8E+Ax4jXERnT6kQY/pnLW0njgdCeuwzQNDh85EP7wgZQzqCxz2h7sHU8YH+WJQAp4K/jYFjz44zsvcwYNCtSevQy9FloRhZIiAJ1GnPbBbhZFSuB6bxNuCPAojs96uXChOYTvqGTICI9Mcl/4n067mtlA0dE21NgdF/xhCiWx7RgGhwdTQ/GW8xTiiCUM4VKXycGuNirnApQIqUCyTu9Ir7jwINHo8mIA4xHpaA16htFAF8UOq0fbex4NNitClivvbzKvB40/CiXvF8u+L5ul0gv+HEr1HdojQE4yIgmD52bQiK+DZ4Y5wMlUxxEiWksCOaJmsfONrfyXkw38aLgMaNyZF5x63RSAsiQrc20mkpmp6rGFPMmkBplBAqGifsmsBus8bNP1CdvkV5SlndgKnTGBbAEg0pGL4YkIoYQ4u4nqO6NwRIsbPaZyATT44A0tMRPP4bU263nxK69zSPrES3vgHdQl9/VU7KIMPc5LrEUIHv25cJKSzraQYAnXA3BpDRJZ9CMvFjr94BKDD4EYEhmUmmJrUtPjrRhUenDbOeJO8OdKKUHPNyxNzmZTAUtaBecS5AiDuIChNYWMGYgAk1G2LOcEke5dHfJKDqCepo/SLmGJZimSFIgIZAEKGWwFoCjhhuvXKe0nkW6jmdKV+5mhe7FU93N1zubriobzhxq+Q5vkF1R9AGCRE4OqBP8xEX9uPEtKy8n6ghk52Y8tFJhZRHPlJ0LCSFb2m3KYMkJp5fn4NOnCNpkUwNBpiJIrLD8AG327H2b5HdGYuT95TlirLaQhkX00XK1F4JLIhbfG0X2y22mWnf7fOWhiFTD+ORjuBxH6gzV00ByPjlbN8haWFEh2WyJz3/NtAuWik7b5shc5b9SrpwKH1H2ivpQCMemeIo9AJlPsZDoDICwkkp9w4wahWiweaAcf8OgEhrnomOffEvHjVo62mdNuTaMOO0LLFeaHwguBgsMdgIIGUlVIVSFDV1vU65PgKNRj+OEFxcII/u6cxVeGAqTtVSeii8UktgZ4VVEVgTwAhnxvBELI+N8kB3XKw3vFrf8mZ9zePtNRfNLctwy4w1VnaI2YE4TJK0TSDtQopTEZWYtLW11bLS/BiIuUc0mfBUUiDHLoUY/Vbd8X1MmkRnKkqTS/7Xfk3aRqcCCohJQRJjyHzCHHQBOqcSg7E1Trfs/DvcVtg01+hijc6vsdUl2Auwp9jyFIpT4BzwiMyBEoPNHuMMQFqBKx0+4K/6F01H8LhXlGkVe9I+Kftb72Q24SNHu82wrYPhqf6g0Hta5wCSzo2tXJNYIG1HIxfqd3dlkUnHI8sApDv+CVrJwdNjAOjQcShFdv3rDu1t1OxMYP0cR2m8WwNI86edGQZECxZAEc7ZBEftAy6BBzZQ4plpA5WlCDWNuOT50aDqUfWIUayxmMJyooYLSs59XEx3zrG2ylUpXKV1m7IwXIjwUuGNDzyvHU82Gx6tb6P3eHPFhVux1BUVW6zUgBuY6vaCSibuGLpCvTQg2s9ZC5oxDEn7pLXOf62vyPjmtdt4D91Fzf5CdrytzIBWETTiBuakRTQUssHIGqGmoca5FX7rUH+F1JdQXiLFQ4rwmEIfYYqmH1fympdBT5KGmT+TexrukeAIHvePVKcf0m4v/ORFbaHsJT+wpbDjHiNw6dSeoWEqB5NcWM+ameAJY3ORDnq2b/UaqyP7e2CGL3i8UjtVadyxVK7HtaFm1ILI6Heck2FFgqEPad+2kwKrG0GDR7WInuBaIGGGYY7fNATxNCEgC48TKCgopMaLx3e+FYoaS2EqZjLnFOFc4Qzl1igbAzcSWGOoCZwAF2J4jvDaO75KC+PP1msebtY83K144NbM2TBjS4nDEjCZVtnftgSCbUgPaVm4dhpD51veaaoCEn1UJHmRo8npkSb9MXE/UhwxdWkaPV14kQ6gc2fDHGwkHa/pfOvFEgErtmlTSHgjK9R/h+oG787R+gIpHoN7Du4FZdUghcRkI1IhWuU3+0g/gY7gcQ8oZ9STslmHJ5KLgewvnWsy80v3faqugaox7ke2JtI7VU0DkcrQ9LE3iBEgtIfaa3MAmejOcFyjHrRhUQ4F781bbc1XmpBwcMnE9W1PJSutg7OR6ce4vAHnAjPvKbWg1CU779juAl6VOjhcqAm6o5yXqBV2BoJNGfICREZcYX1F6QMnopwEz63CygRuJbBJfL5S4YExvFDhVe14vdrycr3ixeqWi+2Ks3rFSYgJrKTYIfiM8ZPkhrRwnRwkNZ3szKESQTTGAWvl//a7EP0xKsCgYmKYkrRIHoHHjTRPTcDhu05EzVpae1nfue4GdntrUz8VpQZ2dBpKp0FocuZUStmg4lG5oQlLXLMguMc4fwNuC41SVBZTlTA73bvxnbA0kljyjbpHinQEj8+I9qwBE8wZ+hhWE+J6+p6pHeMXBpI3+lADGZiDhr0YVa8Zu800gikGLwzCxU8lnRqCV9vWiKGPuqTtGCEFytNM8+gdvXrNZVhHzMqXOYQlFUbHc0jcLbV2HqvCCRULFcrgwMfQ6I3GZFKIp6jiQu+SGhO2BHU06vAh4IPD4Vg7ZTebURUFa625oWGjjpAY9JnC86C8VuHV9pZXq2uebm643K44a7YsfI3VpvMVGc5/ZgZK5qcxj+/v8/B4CyBx9tN+NGmP5UmA5YCJJ2kWCt3idCsEpTaHZtbWibAfgBLNfHRhZeLaS7fbD0B3IA1ITVF6PI7GF3g/w28soXGE5pbC31LMNWozYUE0iaVMhmltZ/BoHLWSPTqCxz2g3JyQ/3XMVehelD1ePOTu0xXnP7o3IgHI3rsu4ysyDSf/1oPNwa3BeY0D5pydk/z3CDiUzvY8ZvTTqXJl+FVbE0w/3EE7g7loDyWgoN9k0PkadDdKo2c44FE+NB5syRnwQC3BWiq1fKDgxldsmyV+V1KvLOdFxZvK8VzWBF1x3Vxx5Tf8YIR3heWmsPw+KKbxvBPPtTVQGIx1XBTwyjW8cRuerTa8ur3lxeqW02bD3K8xWqe4WUJIC81t7vZ2faoLcDia6w6ctQUIBn99OQ+yQ2hDy7daQYp11a5ZjACkFzH6kCTx2qyVLnBnq4kEZAAgLdCkPPDtvWvRrXW4VIUgqG4RCRTMkXCL1xIN1zj/T9T1P3I++xEW3wJfgH8BsiSGem83UWuXLO2ocezTETzuGSWlPv0asnQZZ09jr9iwoqkfOdhkSNQ5/JEJh6OrNdsTP8Xv8ybvEtS6drT/vW9iy6HpMHbkAAAgAElEQVRrSolKA2lf7Km3W/pxTEWOz6shG3s3Su0v7lhcmrt267OK4IuSnTHQwHwHwQQ2MqOUgFDg7SmuKQkbQasN57sVb3yNEeE6BH7A0cws7wrPOhTsvOC0IBgfQzYVnkUVeILnVah5vbvi5e0NL1drnq9XFKGh0AZLTTABB2lzhcVomz62HWSmbXTrGq0XdT96HYy3n6oYDDEFR+xivewb90ZXdXdOO78Jk9qMPh8dfCnEoJEtGGX3sqsvJRIQpVuo1/7mqipiXCqtWN0gusYEg9oVQW9p/CW71S0zcxsVHH8BZgamDfUeYvji4zarg3QEj3tEmdy1J+2kkH39q5gkyYMy0R2n9nwf9t6PXPvIOW4Ga1NcOG+zU00Ov3x7xbvPvvJ4TFPQyOHFg2P76BK/9hjTR46fbrSb817jkO7a9s9IBiQCpYc5cOJBxfO29OzEcy3KrVhqKSlDgXGnbELNylT8fiaEwjE3HoqGnQhiDMsGNNTUwSf5fQcSuNSar53jG93y8/U1X64/8GR7y7KpMbrD4DA4hDY6bq9ZqfRx0PJc993UZesGJABpY0BlvuHZvZi6i+231kQokxdM7g6colx66RC/lzQG4U4mLlXa7b0lQpm0SYeYDSobRDbANZvV7xBzRlU9A3lBNFudAFXWx0/t9F8eHcHjnlAHGCOLSv7+7S1bdwCyV1N2vv3yEcpsS93XjuuQrUWMxffhDq/9/o2ayHs50AYOGwamNY/9+vcayt77Q6YymVRHMtDpPtsYvCnWlcTgfWeqPPCwCJ6d8bwtAytRViLUtqSiYIYS1LLeOFah5F+848fFjnNTc140lCnPxaKpqb2nNibmFylq5mXgCxp+4Xb8fH3Nm/V7Xt/+yJPdjqVvs6b7DjiEkGJWtRPRhgPR3gy4N+As1GY25qnH5k5xYO+h7Z+M6d0bH6HBSv9HC6cNHIJSEKPrlqhWCXBSFGDZoGwwQOMM2/UJJrymqL6iDagY9xG0mREhC4x1pIyO4HFfSHrN+xA/nDRa7THQCY79MQbbRwrsTyidiWHvxc+ZL/lOqInghDJ699umWp7dAshYC8j7eGAIe+OYOjeua9zuqJ6B5tGeStKuSUESTQIOK1AZYSkwV2Ft4LqAWxFqU4IVlgFOg+AJrNWzcRW3O8+qCOxKg5eSZVFRywZ1t8AGYz2UgUfG81QCv3A1f3V7w89uPvB8854Xmw+cNQ0Ln/pDwBKDCSKBfND5+KLW1Yf9a1EiD244iNecaWM/ncZP6vBB3Aeh8YP6E1vt3p/I9DWBh6RdYTGM/I6YLmsXvdSLGbvdH9mGf+VUvoNqmZq1xDAmJjpHpvqP8DGkI3jcNxLyjVDjU58maU+dv+vciDplRQ8fG5oydO/Ix9rYY9706W/7VKJ30WjQd4FkPo6RGWsPsPaaiDek3azQmfmz1r1CEwIblFsDG2NQI5TGMAvC0gtOoOKEbbBo49GN5VZmIDNuKfDWUpuGnamhcpxXnq+859ttzc/XN3x79YGvbt9zWX/gsr5iFjwFKd86mjzHlRRYhX5rw3AieuBIR9sxik7epnymD1J2y/upvFNH2W9g9Kz9VEbdLrLH57TdTVaglKmuuANL2KaNBUJZeFyzxjXf07h/ppSzpHnMwVigIqRNXwfXG/+C6Qge94zu4pk58zpYYIrzHzg0Pj8Eggl704gJT1oT7jBVTZWNUVa13/ylvTLU28hleNEhTesQiI7HPqibXginPd57GO/NecbZVMEHaJxHvWcdAuvugujHYbxQ1QJBmMmSgoImGGgWuO2MD9iYdWrWwGyNFFuWi4aHNHzpa/56teLbq2u+uv7AF6sPnPgrTv1NzGBoC1RsF5827+Lh2Z9+CD6JLd5V6NCzNUKCPwUYPpXaRz9u/rDRfKUlMetgg7BB2SI4jAqFNJR2R+1/jODhH8LsJCaYknlSQzNp7kgDOoLHfaBD0v9EkY+movmvARAyANm7tHUAawP6HajvEzSGeNmIm4sOgYReKt5jhnsgMYFYnwAge5oVXaMdl4sBEEfjS0CnwAbFFdFh7cbSR9dQxUlgJcK7EkqUcwmceKhDRe0MG+dZbxvCvIGTBmvgcSE8d44vzS0/X2/56vaWF+sbLutblm5FmbafRuG6AXzv6d1ta22Xu6Om0c742EzUCgqTOTnyef6sSGPgLny6qRFWBY9Kg2iIaz8K+EBpBM8ap3+gaX5PuXgGxWNgSdzxVXRmyyMN6Qge94B09Dl1LpJkwQnvQIKPAcjwy56hP2czA5m/M/PkovtQmsy/D/WFadZFBhadLSlJ+mNfx73RDob3CQByiA6ATefw1pLSr0ul4xuj3MwEj8G1ExkSdxJlbRSthAfB8xThzFuczNh5w491yfcq3HhLUVpOzAlfFJav3Ad+ttvwzfUNb26ueba+4eHulqVfY80OY+lcJJSQgVva9irt5tx+1o1mhqypG3Rglqcw9z5Sr3UoiEfFIyGG0AdSDhOHapwvDeBrhy2UsthRm7ds63+l1C+JO6/OYlmR6OtxpD06gsc9obFwO0X7LD1/qA9pGT+Fi47rGpmE8r2u7TbWMc/eY+iTA4g/NQFVq3VA9G5vm2x59yje1vQ4D5Y4UDYb50fMeQLRtSEhx+BeiYCJYdaNBoJmOb0lJhzcWUFrOEF4hNCYGRuFbTjBug2GmofrGV+slf/JLPjqFr5Z13yx2vJsteZBvWHRbKm0QSQMs7wOkLvNRNLOl3Tz3P7WkZaRr3l8dC4+C0pzr55WRYyzELWRdnedoHi3oyx22KLACOyadzS7D5TlBrTGB48t5E96g/4S6AgenxkZYw5If3eZqf5U+XH/lYm8JmkenSbCkIHvKQEy3WTHs3JzlQy30sJeHKxPBpCDb/2+WW5wLjePjezdQsarBSqFpTU4B7ea1jxM1rgxmKJgaUsujYE/vOfWB7bFCa6yOCzni1N+oRu+/t0fefz21/wv5yu+RTkLnkWzo/IbKhtiQD+bp64dDSMtGI8z403N/R1wPE2T2sr9oV5TVTR4EA9Bu0gokO0qExATkLAFVrjGs2OHlA1lJSAB9Q4ffMrwfqQpOoLHPaY9S0obWTfnYIOCHwOQ/7oOTGsVmp2TYdn29F1NpzqF/fWOPQCZ6NO4nr2+HdI2PpnSugAM/lolrFThLIBvoBFYF4mxp4iC8Z4ZJCir9zdc7BxiK3YBGhXOzh+yXGx59off8eK3/8jlf/k1r58rPzu9Zv6whqUSjGCS5BxT1u73sB2ntsap1tGv1SwOUr/mMS0qHN6FdS+pBRAComEI/pmwIwSMCYjdEte1JHqlmzayb6wjaMCmlMFHGtIRPD5TGmDHx0w3HxMwD52/67pWaxhHkNNcqmWPb40ZUY5rbX5rUWVQtQ7Z2LBbd61zTA3gjvk5wGg70Gi367YxmESxHmZewEUfj1QgOoIA8yCc7KDx8A+3Wy4Xc5pyzgo4UccvsDz4wxXP//5fePKrf+DJ27fM3tXIgx3y9QxeXWJPFjj3PR4w0mBo8L7BmLEMMZYq2r7H1Y8/WYb+TNAjT7si+eJU95DlGnCbFXJBIWcUekLQEwgzoIxmSKMpEGN7Y4+U0xE87jFNsr6J/eYtz2sZ7UEGyf7hn96DYXXtj9b8NGmyGl+TC4O5qT3VoymZ1J5FLOtSf3yvwf0LxtFz833G+fHBqBJQZWs7Jn3mawdWlcoJhYdZIRgrMcWrEUoMi8ZyWkff76tqwdWsQqxgLLxylp/frLn8+3/i7O/+M1/8y1u+Ecvl9RX88YZGHlKePoWTJV437NQzw4FuqeuGWWWSpCwMgx7KYG47QBspYvt3ZrQeMp6Sz4Qy61QGmfkvRTGIqUDmGDnBcA5yRgw2U4Gx0dWDGMWXwWboI8ERPD47GqaCnSrAYQC54/A0lx5Snqeq1QyAtFU0P0GmgUy0M/F7uOOKg/XlZQ5C2ydpWhOa0YFrUsQKhJ6FdIzVCDsfT1hjWGLxKKUaKgzLIBRe45bexYKNeB7R8NQUfLm94eLXv+bR3/7fPP237/iFU76cLTGbgmJr2PzLmp19x4k7Y/b8MVJUeP+epqmBeTRQqR8NbGpA40nui+49Tp8hWBymAOLipxpUC1JyYRAbAyGGilqXBHmELZ+APARifCsjspcc7Eg9HcHjs6SPqA8fA5DJC9jjO4PXphPUxyFIJP3fH2vjYOUY8FEpdiwSa8/jB+FL8s6NwOxgfXnb+2J3X8+YUbQSrPTAYbJTCmwl8MEIJRBUOWsEizBDKBRCCHj11ARqHzg/nfNtU/Pm3Vue/fY/8eBXf8ObP/4zz+sbHjVbwvoG60qK+SXm3Zr15kd2tyse/a9vqJ5csvENTtcslxWwAW0mBvIxusN0d9ca1f9PfLRr5mPrZaNrhjKHEJ0Dd8QshzGVreKAhoBBpKJpCrbhlFA8pyregH0OXIDOonYi+R0f9O4vno7g8d8r3QUgueQ9cdnw+vYjGYk02vp7FzMGeUbaon+SfX0CQPaLTCSBOqiFTLzwE1auSX6QcSJpzVaZtUuS38ROlNp6rIGFh6UTFkGYBTAhsLaBlVW0gNOTBY9O4MXvb3jx27/n0d/+B776wz/z7fUPXDQrznY3FOopzAnUnnLbcHKzY03N9YMrjD+hfHBKtdjh/AprqszBL3H+lI9jYLs5SJ8iXHyqADJ13ace/TO2m575aN11xJS1Cfq1Ii6EOwIWDZY6VDh9iDWvscUb4CmEixTTKg/6+ROQ7C+EjuDx2dH07peD5hs4CBRTRQer1O2lWeVxMbIHkGRuH/ZpIkHHXplDfT5wfmBpGi1XMHk8R5TRi9/1RdnvhfRMQ1tw7A1CPV5pYjCKBgUNbERoSmGDofABCYHagisNl3j+yigv/viB57/9FQ9++X9y+c+/4UXYcu5X2GaF04bZYolKxc1qBTKnqgrK7ZarX37HeX3B6S/O4NlD1r7GLBVsa5NXSImfuqyH3SD6MWo2zsGcaHasvcmDCfuTxIGPUH7DRojemdS0/xvtCpOsYJf9UVrzqkbwkB1QglqUNlRJLFsHhzeCLc4oF8+w1RPQU9A5QT1qkpNh0kiP0DGkI3h8tvQxo/7o5z6PnDgmh89BBwg6ymjYSu+Dy3LGLT2rvotyRWlv/UMzreMuEMnLjcay9/J32er6wn0iqMTDkkNklveIzM0CTAzBh8bc5OsCrCgSAoQAhaWYVzyut/z17Qee/upvOPub/4Nn//lXvFxf8YUNnNY3eG2wJVBVOOZsTaAylqICG264/f0PBN/QFEphTjGLeTTZmzrNb8oYSMiQOtdKxvPRZkqUzFo3ApTBtX+qBnLosuzGZvSxVrreJKElAoHJLm5Nd2m9o4sMXYIWIA2kjc87X1MsS2bLR1SLl5jyESEsCToH4wAXgwUwfMaPFOkIHp8p3f2STajYBwBkKFAOr9NR2b1WpGXUWRTcBBhDc1Aetv3jNGl+kv6jKyODU3vlcgBp43W1x4zEnVJFCBjVFL4DGivUxqCEbkxW45pGKXHHVdC47NoYKLywwGBUuDVKXSjOgnrF+MADCTxR+LZecfI3/5Hl//6/8eT7f+QXzTUvFkq4+pFClJPlKRqEt28/UC0fcHHxEPEb6u0VGjwvT16w+vADb//2LfOt5/LfvYL6A0iRmKRDqEHqyCCN4k1Kpdrmo1ALauhNXHSKRvw9Bo/seciTPH1UcPkpIJNCqmjmS6FET/pO64jfu5TCkrdg0rMV3flUo4NgfDZDJowUBOaoGgJzaipWruC0eEV58hq7eA56hq/LNOoiRTtI2RYPOuf+5dIRPD4jCiGw2zZomedsgGmRaMAZJqlj8CPGPyiQC4ijTHS9chEIvRGh747mteWmlK71PVYVr9mXRgdfdHgst7KMQWW6IsUYwzkFF0XBAigDOAdvJf6paLdYX6qyUGFuYmZSF2LYETVQeeGZsSzU8gcDW7bUPppGLs4W/Hy74cX3/8rFr3/F49/+P3x79T1P/C2X4QbbNJjSoWIIjWKaOedFEU0w2xugiTK1meGDoeAhy01D+C9wVb/l4t+9xJwuwW6RqoFig4b3qHUEUXzhCEERKbAtcGhFZMaOLs3rIE6ZpH97DWw4kR8Hhp/kU9L2SavsMRNQ32sQScqRVtOQBCUKIbRrEyVGSmzh2e2usYVijMWk6Lpxd9oZW2fYNIbaXvDi6/8Zs3xNYf4KOEc1pqEViLHDiPnMjViGuvaR4AgenxWpKj70WzN7C0RuWhhRDg4CeZyorOZDLU7X153NnM8yBmSQDmdEO5mxM5MMTSofaVEY5E6P4JSZwVotY8KPYbL2hHDWwCLAgwBnGiOiNw7WJfxgejuXaIyIu1BhqVAo1AHWJrZZqHDu4JHCrYOgNRjP4sEDToxw+W9v+eIffs2b3/6ab777V769/oEzf8WZvwIc3oKnJOwMpl4wl0AIG5yLKWhjno2S4A2WkpNdgF3guqm5PXWUXz9g9gBgA/4dYjdIWeOtozEJCsSnAIE2MmrxKAEhZHO196BkNzsTRP7s4nfqky6ytgKw6/ojrfefiT0OrZe9WMQUgEV9ifMF4mtsMQc2hBC36CI2RjHeGRoeYeavOL/8hur0r2l4guMhcAZS9eABICY9y0edY4qO4PFZUsuKp+zTdwHIFHDs1zBJ+Qs0iqjLgAX1jGeYI6O/It/sO9XeUKca26rycwkLVfdBY+9Aa/JQsAZJ/nXGRTPULsBWoWkvE435v0XwIZmqTP/pJf7VRrkpiFt18ZzUnhPj+Xldc/bj9zz/9a959Jvf8PL9Oy63G+a+wQZQrRBs9PFTg6KEogYUb/oxD8OttwMWzFZ49/ff8dg8Az2DBzMoF7C4iEP1MV+FEIjZPhTEJ7NWux7gu3kZTnB/V4dPTDahPxlIDt3pFD4dl4BSUWm1ohRkUojmOUpEi7jTrV3IbtffjEfxqNZYK6jO8H5BHRY04Zxtc4Y3j6lOvuL88ufMHn0NPACWQPQqh+hVTmehC/t+MEfq6AgenzWN7DfdsZxry/D8pGh+h7x+gAn3x8bXady625mRer9nzZhUbmrKu95pKKMuAFlsrZyt6V5GQOlayAaQMuWpAVOkzIBN5KEuxGyAG1Xq1mxmoqTtUbwIDUpDXNtxqngNeJStIebxcBDU82y24GtxfPPjW6pf/ZKzX/4dL3/3O96I53K3ZuYbCgWlRDSCh6gBUZytE3AlO3trQmrXIsR0Ay2bAvODY/2bd1jnmX19Bk8vQAy+aVCtKc0cTJMAWGMnDfSLybmD4dSNH92cPSPjAc76U0FFcjNaQMQBnsGCnEJMKzvHiEGD4H2D1wZMwBZCNTMYW7BdrSiKOZgHbHdnXG9mUD3l8sn/wMWjv4bFl6ALAkuiR/kMEii1z0oXGbkb0Hg+jnQEj8+WMpBof+eLDe33sSXiz0VjYTSrP5mmO0YepBcgc8zp2I/2VY1xatBW+t4arSZSqw81oaSV9OZ7xQY4EaFMQu0mGdUaYGeUWqLZzSeQCglQ1mpQDEWAJni24vEBapSrELfrPp9ZXlQlbz5cYf/9v+fiN7/i1Q8/8LO65nK34jRsqUKTulMgGvsjKngD3rh+/lqTTTd4S74roVDlcvaQt9/9kZW/5XH5jJPzJ0CFVKcIDjEBUzaoadIIlciUI5PujYmatdRB/f7EM5zPT6GPPnISQJvUbOqLKFCk5Y6Q2qxAi25mNCiqMWOgGIM1BjEWpESKOdcr2NRLKF7w8NnXnD/5GWbxAuwT0AcgS+LW3RJ0RlywT2BNpvVMzcGRgCN4fIYUX7B96ZqJh52Mo+6fG1izdHRssuBEifHP1EQblVyJmQdz2S3v8t7QRj9ytnbosj3QYDS2rM6Zh4c1zBzUCu8LaDT6HXuBYIQ5ceOrU8UHZRe0s8JbQCWwSzUGA2vneLic8UodX779Iyd/939R/sf/wDfv3vKlwEv12O2KhXEU6lOnLBJImgd4UYJN221Ve6Fbu9kcjFhDYLfdcjI7pa63XP3T9zT+lgc/e4R5dI6xFm0KQrhFqm2Kr5JClRMSgORwPUb3MdMcSwnySaarwzJLe9SnjIiZlK8COqcHMkn9V7w2+LTmUZQFRbkAMTSNsrpx7GqDFI9xXDA7+4LF+becPPwals+IsauWqC5R5qiWQAVa0idJ0Ym5Gc/HkeAIHveadO8BhiEr7Uvux0Aff2bnpsAit3pNtHqn5jJqxmRmKxmVyV0kflIbg6vGM/ApKlUsUzk497Co4Y8VfKhgI0nINYZlWhhHYOOUHeBEaICtQCEg1uCtYqxQWKGcC2VpWHz3B87/0y9jyJEf/shf3V5zocqZ+ug5HhqMeoIUBGwMAx7avnmCxEXsbslD+7Sygz8V0IAGS1XMEd+w+fGW980aypJzc4l5eIZUNm5askK/vtH0En4+7913BZXhLCtkNkP2AksOCrbnP+GWQAK0tpK0hY0ZhHnUCFJQGNUa7AZjGsSEuEFCDM57vBdcY3F1ifcPKGdfc3rxDbOzr7Anb6B8BOGUICdgbNzdForYjlZdG/0YAwOT2RE4JukIHveYcvY/0DE6FT9CiQ5KT1AbHEpI4cTHGsh+yI8uy9+klrHP5fP+Rbk6UiC+k12IjxGAjMea13WYJkpPAk9eLn7WhfDewrWFK6OsTQqUh1CKchHgiROMgZsGVgGuRVnZuCDuTQSQhRHmFi5xPAueZ28/8OQ3v+bsl7/k6fdv+cpaHgqYzQ2EmuXpnKYJhGSnMxqSjT2SUSh9nCwz4O05aPRgYrAsqjlNsyEEi9g5rBqu/+kKqwVn9Sk8PKVYeKjA2yTdS0P0cmwd6wK912Pf1kQGE8bPzfBufeyu5Teo3TIxfsI1gZyNn6lfnWFRGkwZEFsQEOq6Yrud4ZtTjDykKh4zO31JefoVxcVXsHgK9gGE2f/L3nt1W25ceZ6/HRHAMdeb9I6ZySSTTpRImVJ1dXVX1eo1s9Y89LzM27zOlxyzeqq6SlLRiKRIURLladPntccAEbHnIQAcnHPPvZlJSprM1tlcyXsABICIALD/sT0+ZkTpIJrK9KoaBEeT8lKm35PkpVVvG+aP/a+bFuDxlNKU1HHiImiO1CGtj7KdPVYn58yWjz1CUgPI0f1HRJVqs25rFOwMqDVhgq1Fa2sE83HpCb7X4+Gs3UgonOG+BXUwqgr+1AFwGcl195xXnBH21LKroCYyskmthYA1wooR1p3hcllwbucuy7/+FRs//4jzf/yUG9FzVgOdcgzlkK4UoAaRkGpyaJIuTCtHr1HFRWayuLYYWhPAlxiZwdLJlxgeHOCNkC+v0nWwd3eXnfF94hjWntuCM2sQPMQh2JKJCqzlvTX3nsxgdPu9OmGO55177HOplz71O1T9rrLfThmtJYD1qCkTcETDqLQU5QpWztPrXaO7cgNWn4OlCyCrEDNUu4jrYm2GLwPBR4yxZC6vosfbUlIbQKQ1N8ITvYx/JbQAj6eY2vENJ6qM2uqoWXXVVEpaaXY15560cBda587un7NR/WxLGLXUYVpqKyMcMXYfGXt7eEf2zv6e7Zs2P6daK3iTXGEjmla2USEqHQM9EXoIPYFcwAqIWPYtWKdEE7Gi9IxwJsDlMnJtcEj5wbus/PpjLt7d4XosWT88YLxznx6e1V4XjKUY7BM6Od4KNiqWdG8nplEV1lHuE2w+jqkLMcLh3oDl3jo95xmVI4rxkL5bIuyUHHKIhA6rrg/5EtYOUVWiq9OUt9QzjQRUM8tWEGqbgUbTYuhtu0l7lmdW8K1jIpPgQa0qHU4XZK+uJyWYcVPHSSUBuMt7DAo4GAhjn2HtKVbWbrKychN6V8FdBLsJRR9vVxCXg8mJalAVjOtgbAq29aEelkz3dgosZgHkcdSjfz20AI+nmNqpzWuuLC0pIwXi1S//SSlAptb2zKv+dxylHIePApCjh+o1sjbbaZV5ZJE37xozoNWOVz5eOVeVU9XU6Vo7J0gzj5B4n0TFoXQw9MThBExQ8qj4MvLAK30cHQu28BinySmnHFKMDlldX+emWq5+cR/74dss/+EXnL33JRcOR6yMS/p+TMcZemrREBFVossoLJROMTFgFbJg0KBkMaXYkJaUONEuyqTjNQKiGAyZdDEeJFp6WDIyCB6vJWFP8b8f8HC4y0ZnC2If6RmszcGOKcs9kIC1BjGSkjtWzFIam0gtCVBJA3kCXFMCnrb31/zEiTIpnUwlTWsl7ZFODz4gYjGmjttQIiVR9lEzSPYaYwh0uX1nAGYd17nA8vIlOr3n6C9fh+xCAg3ZALOMdz1K00v2jUpSq9/B9GIaNCYwm8rnNv2jRQvQmEcL8HhKqc7amja0xYSh8XutWgJM9FBz/rYkggkDan0k9XHmfyZp/zEA0r4ANUhM96L515Z6Zq8x9/uc36NjhbAKXGNTvzvVD48xNnMpJPCwKCtYNkhR4zEIeCWWkb0IAQ+lwWlEo08pR0zB6kaXjSyy/sVdtt7/hOyD97k8/JLzg7usjiOrhdILkZ4omYJGJWAImaOwgbGNWANGtanZbjQBh9HWzE0ByESykzrluhoceZUkVsnIiZIRoycaj3pPHAYOw4DBLx/Su5Ehp1Yh66K6h7OeqIEYPaIRax0aZySA9myrA+0mqUVrqSVO+tvq62RBI6Q8H3WbmGqwA8YIxghIcq/VEPChTJdxYPLkilZEGBYwGo8w+Xnyzg26SzfpLt3Edi+DOw2yCaYH0iOYDoXtULZYW72QkUpNJbVoPKWympWapLXdfuuOW6D99dECPJ5W0uP56awQPZ0oro0SLQ40pZ6Y7KK+zuwCd/aeegyAzGnb1mLNfmptUJnaNwMis1ndH/nJCs1KUmKdR0smcXWaJLUOhtxHeiqsGOgJ2AgxgA/JHXcoyqGJPMgDONg1IwgjzlnhjazP6a/usvbBx9gPfsnpu2XsMhMAACAASURBVPc5rwNOjwvyAHlMa90oEERIUeSG3INKxLVW6yamAEdvEi/TtvqoPRlTvxWkyiTWmjRtuSGk52owKHZkuPfL25zJt+nYdcAhHaDXIaU9GYAZg3WkqoQTpirNfSvJQuPk+Nyn2+59a1VfS9AqiDgEwYipgMWSPJ0iGIgURBViafAYCi+MSvDxNOfP/5C8ewPTuQqd58BtE32PKMtgMjAZQTKUdhLDiXdiu8epBk07C9fs3C/oUbQAj6eZ2mqrNh9prUYnemSdfKzMtG3O1UlN7rr9rMTRqHpmbloLMPNUWMf1vdEITFb9x6udJiBS67qPxao5+5JkU+XUquo1pAtVcpOk1W7PGFbVsBqTd5MLiWea6qZDEQ6NMjAeu5IzljE+Fixnygs24+buPr0PfkHv/Q859eltXs5hezhmvShQSclARIUoQjCCiwaJQoZi8YSoKSBQkjQZUdQkAEuqK5r070cHm4AjeV1NJlKZfU9q+c/gSoveDRz8ahchI5cN2OoAB5AJzuZgDom+rCSFMLnwlARb2TnazHbew6z3GWlWACEkfyljHMZlYFIAoPqID5GogbzbIev1yMSzPyh4sDuiCJa8d4rVtQusrL2MW/0W2OfAngM5A9qjNA5PRkqYmKScOkX7bNjj5H1sCxzTA5jeWkgbJ9ECPJ5i0oaLThhIvV6aZhyTj2TCRmTO3+Yi09/FEWZ8Eos/gYRpW2saxKwCpJEqpleH0+7CCagqIGiLICfgVgIIiBVDUK0KNlX3stbQF9i2sKbJDXe/8ASNWGuxmcU5QxcYqecgDPFZwcVexqVOhxfu72F+9FN6b33IhVsPuengihOysqTnPcEYSpOYl4qpJI9aXWIwwWDUYowiVgliCGJSJY4K+CfhgEcH2syXxLSKb8uglZ2i2adp9Z3HDpvZFrtf3Gek99gwGX27Bb0+9C3Sy0AM0e8jpo4FmaRGmfp3JHiuJVm03iOlqmdSRYoaU6dNtxBMZXh3iFiyzBAxFF4Z7XnGQSjiMrZzns3ls6ysXSFfuwy9axDOQTwLcYOga3hySoQopnl76hlpO9dOJIxW5ueZeV3Aw5PTAjyeNZLpl70xQZ/09k/hSBsY0u/56rFj9GaPIXg07OUYFZi21SJNd9pSUKvo0xQQnTC+9uZk0TuxdYjBiKGjsBph1cOuwl0bKASyDLoZrAhsRcij4YuDPU5t93gNw6U7O6y+9yHdf3+XK7fvc1WF06KE3Yd04oi6GJNRIVQapQioFbwRXFSyaCEk/6KIEm1ic1qlGY+Tp1kVoZo3vIkacrJQqJl7fa4hLe0NBoczXfqyzuDBiJ1f3CUWkeXntzGmk67QKbA5EAfNedMeRrXUEY6+Z3Olj6RGC2XAZTniMkQseKFIycPInEO6y5AvMd4bclBExlGIrkNn6TRrm1fprl2GzjkwW+DXQbZA1lH6KB0Qm7z4BNRM1Hlp10TumP7b+n70aNfnvlALmksL8HiaqdEZz3LHaR7+GEqkI9QOEp4FhLYEcOz+Y258XF/0yLHJSrC5rDweSMzLaVVrUerriDGkbLspp2ztpWYD9AtYGkNwkZ2OZZylCe1KpBMMpzx0jECvw3pmOXP7Hhs//xXLb73Pc7fu8OpwxIZGlooxbnyAlTq9hiK1vl2S3cNXYNkJJPCISbYw9XhtlfuLBOORyv4h81nYREU5UVdRndswyUrSAZCYEUOknzsoLKNbA3b8DrglOnGZbLMHrkyd0BIoQMxMByoAqet/PNYbl9rEGDCEdE0czjo0ZmjMkZEQxsrBMEezVforW3RWtukuXcD2LkJ2BjgFcRN0CTQlMlRxqGQgmvJ3VVHq7SScswAy+X81XzqZt8kcTrdaQMjJtACPp5imVkrV/9ofx/zWs7+naSqzRFsSOYYxH92vR47NvU9tbuCI8qN1jXrpN1GSzLlLGrdOM8v2eJp45UrSEaFKy506kNxQ0/F9gS8z2AEOqtgOI4ZhDIw0sKPQyxynRXjTLLH+5QNWPvwtnZ/+nNU/3uKqzdgyY8xgjzjeo5NnSIgoSf3UsHCNyWBdTZzVSm0jk8hlo4oLqaJhqmY4AYGp1fKcedY5v0Bbjnj1nFgk5hgPXQsahb0H+9z75DM2dJNV00PyDmgBmU2FTlo90GqJnioxtryrmmczr3/pfUoxFQHvC0TA2RzjeqAdtBRGg8hhqdjeBbprz9HfvAzrFyDfhrAEvo/6PmKXwC1BtM38GlFEFENdyVIqgGoB59RMzvSwGca8dD/HQcgCTtq0AI+nlYTGuF3vmF5VpX21CqjdanYt1fx8hBqqURUx3Xay/xhV1gy1cUZbKhaV6WPzunmiymu2c9Vme+WOJg8r08olGIMhRCVGZY9UajaXxHT6KlgRxirEGNkXpdsxXPLw3N6Ypfd/i/z0F2z87guuR+VS39IfD/GjPTIOyPNVwkiJ2DS+htmC1ZggRRWjKaeSmGRMV0yKN6myxiZXUp3M85TH3Ow8taBD0rh1akom5xgcjoxiWOK6PVa7OarK3c+/wsgAk22zlK9i1mzyuLKmUVulUdQpQlLerakkjcfwUmks/toIzzEqAXAigEOwGBHybIuVi2/A0nXon0vShqyC7ZKCayxR3CStSAOooXp1a5f2llWjUbkd08V6eo8hOXZjQW1agMdTSukDmWH+1b9Z6aNlJmViNmyfOmPXmAUS0Zab6KTNbBGnuefOkEpV2qdipKpKlIkdva36UmopSFtjoQEadPKX6lrt4SkkRlwzqKphDuRKkyMq1eqAYQwMYiRYh1WlI4auTXmsxETQQB/PlkYujgvk7bfI//09tu/e4wUMlzod4t0vieUeK7mlY3IGu7tk2TKIq/pesTCtK2tPPLkmACoNA0ulI6oAynqM9dzPMq45++ra7LMCwARnDFpCx/aJWhCKMb28z3Zvi5179/j8489YD6c49/o58AomVNnflZRw3iNNPEf9J41M6/rjCBAmb1nlqBAA18mxdgVCh8Gh4d49jwisrG7TP3+FfOslyK+CqwP91kG7oBkqFq0DY9vPv+nNpGhu8/JJ628zC0ff7cdaBS0qQZ1IC/B4akkwdeqExic9/WdkImrrkRd8Fjjm7W3tqFf4s9tT++YZGSbt2xQESkkFlJomOvP3yLWOWkPSsUmkuKrWWokpiayOq1OdJFzsBdhQ6AhIhLGHe6IMJUKMdKyh50BtApWBL1EZs7FseGEUuHznDsu/+DWnfvlzru58xXYx5GwR6IyTTcC6qpOlJTNdJCUbqcY3geraXVbbWVu1cgeYGre2zFotoNcaGFveaJVeTnRSBOsoi2tnxa2ivLWSKNRCzLC2R9esMRwX7H66z7gcc/G1c7gzZ0D3GA3vUMaC5eUe4jS51fqAGLDdHoSA90rQpD6qnRSsAWMVcRZnDDEKg2HJqLSonKJ/+gpLq9ewKxehewbcWeicB9kEuiBdEluySPPA6+c+eTnnyxWP2p45tsCGb0QL8Hia6YjkIU0MgNQrrOZg6+dR7jx1bL4UUrGbeZJFWyw40kemLhoFyjZjVKoo6urSze4JFzgaU1KvJKtSsNVuY1IKdKlAJYRKtKiW8Fox5k4prJXQ11QvYxRg0AXbMQiGvoG+wB5woOAtLC/lbLmSM/fuceaTX7D5sw+49uVXvLS3w3IRWCkCIiXeeNTEqg5thhMImIlmqWHu9bTVqpZqHFPp0CtZpZGk5ujfq1X0VIBm/ai0nqtpVK6Bo5bsDBbUJNWPOogZEjrkZpnoR4x2x+yFEbeXBpzKtsnX17HGpwqLIWBsTNKHFHgfoPAJECXHmByRkhCHaChBK5WhAV+UDL2h0CVMb5ve6k16669B/3nIzoI5heoaYrZQlua8V1MTwYTh62S7ntL6pJbEPP0qn7DieSxaIM0sLcDjKabWYpQpF8QaQKZbzZ41X+sxSTQ0fUqb/0x9dTrdjkcco/VZ6/Q+oLEJ6Oz+oz2dXKSSNJYUNrzgDBQRBiUMrDJy0jDRQpV9A5lNWXJRiA6ChTUEdRZ1sB/h0EcinksObkbL1ue32f7Zb9n+4BPOfHaPrWFBJ6RaHCpJLWNQJCbm5VuJadsaJZkS5WbmJCnbZiZTp9s1oDAzOVNAUaGH1hJOewYr1Vm9aQBN5WxNtNiQkZGKLSk21QU/HHHwm4d0Vdh6bpn81CZ5lqHlfaIMIVNiJ1IWBT6WGLFYYzEu5aWS0MF7i4+ghSX6ZQ6LHHUbdFaeY3njeWT9OvQuAVvAMrACtl9JZs0gmU+TMU473bZPqbfn6fzmX+vxaAEc82gBHk8pNcGAkx1TP+dBxFSgXeuoTv43c2CyOeV51daFPIa0cYR0mplOAUfrtCn12JFrtQDEpJOXvXA2Qg4MPOwUSnRKYZVoTcpNJbBvIFitMrKkqPq+wDoG72AnwE5RomFIb8nyfLfPt3YPyN/7hPzfP+TC7z/lRaNsFyXdELAaUEl1P6zGprs1eCDaAEbzdy6/mWXwzPClCbwwj/9pDf4zAFKd2zq7NeH1vgQeNrrmmGgCDhMdNhjGxQH397/EHG6w8dp5uHgaKceUxYBgSrQXMA5MjMTSU4QkUeZ5D5cvY5xjPIKDgTIsV+itPs/q1ktkWy/AynOptkbog10GyQnkqGbVgigiU6k051E9whlwnJ27ObP99WgBGifRAjyeaqpljVpVdZKrLk3bKRWHcGzrI2qstl5pps00zdULHKGaCc5bFx/ty5yLVXU2MKniXiZCh2QM1wjjCP2Y7LyFKkV19cJArIy2UZTMGHpR6EehAA4Gu6iJnOnnPNfvcvXeQ9yP3mP97Q848+U9XiyFM8bTLUuy4DFVjINorFxqk9QRKq/bqTyVHJW66h06j8FPGjwW1VNyZDKPvUQt6ZAAg0r6AGp7jKjFRaEbhd39IbvxPl0x9PLzsLKENX3K4AmUuMzgx568IziXAUJRWPb2SnyZYcwGnf4plvrP0dl+DVaeh6yK1ZA+2C4RR4ike5uWbeNE4Dg6X8e/eo9/jQV9fVqAx1NMx/Hm+anedD5QTH2Pcz6Y2ZvMu+lJIPEYGoApKeTE9rPSURqfVSGrvHd2DXSqJpkxrBghV2EQlAOBsUnAEsx0WhOrkEWIGhEZsryc84ooL9y5x/rbH9H5l3/nyp1dnjPKRSfIwT4dGeN0UrY1lYhN4IFULsJa+RvpI/j3EQBpHzuGaR7HS49t3k7KX6vDqmhzlORxIJUNyqLRYCWJdjYqUkR62WlGwwMOfv2QcnzA6rdPYc9t0beO/fiA4MdYa0GgVMEHGJYZRVzHdc7TX75Kf/UGrF6D7DzYUyCrIMuAI0ZDrB0+hCRtVHMw1+azoKeWFuDxjNLRz+wYFJjRn8zynaM2jmNvWJ0wp+Fx5x9Ri81e67gbtZg+kMfE+EtSSpFOgK5CJrBq0sUOSMF++yZJIKVQcfe038UEOkpkbdXRXVK2P7/FqQ9+x/pbH3Lx07u8NoxsdgL9eEgoDsmdR8SjaBVLohPwqC5vkBR8PTPs45ngnKONiHYMgLTn7LjrVzunjykpkaK0rm2SmiiaypuvkjwQXAQ0IwuBg9GI3WIH7VvWetvI0jod5xmU9wGPj5EiBiIZYldZ2bzB0srLmP6LkF9LXlSyAbIGmhOlk6TB2qVXEhhPcnHxGLaKBT1NtACPZ5AaPnBEV/I1rsUsD6+W08dKGjIfQGY7MdtEZ9vN0WfNuY5ToRNT9ltvIjsWnChdLD2FTYF1YClCTw17QXkoykMBVaWrKV9VXwRnYTMWbEigd/cB2x99Qvb2x6x+fovLHWE1FOh4l8Lvk7uIiqdOyTGJAE9ko+BCW7E4Pdj5EsaRn0fn6JHPUSd/poqjzJlwUaYzUJrWv8qqpoJRi5CBMfjRHt7mZJ013Nhy95MdTL/DSr5O5/Qp/DBjFAJBHJotY/vr9JavsLTxYqWiOgdhE3wPTA5VhuNAmeZEqjomjZR8JPftgp4RWoDHs0Yn2TDmN048usWvT2rb/H4kgMDUsvhR0suR448CkNTGRMg9OK8cdGCQpVX0AOgHWPewWhluV4B+FLxR9pwiQVlCWLPCkhVyC5u+ZHXvAfZ3P2f9vY85/ZvPuF7CpbxLN+7jyx1ERuR5jo8eJVYMts2r07aL6fc8oao2605By0nqq+kGR2nm0MnSR13ite503bvKy0sdNYiIVvo3HNiM0egQdR163SWyfJWDB3/giw9uc8p7tm6uk/fOMyiF7sZ5lrcvYbYuQP9sCvAzGxBWgRVwOWiWEkASqngcqTyPq543keAL0HgWaQEeCzqGHoEGDSIdc8pj2U4eBSCaVB1iU1iFgZAJ2FS8CY2MxBAEOhYIyYU3IyIxIhrIxNAD1lU4FZVzB4cU7/+M/icfcfXOHq+6jFPlmHj3S2wsWeo5MtelDGOQSAQs2hibU3cTeNg4iW4/YstpIYaeACBHh6wTd+o5x6YApNF0tfWDNFqgZkcDIIlRa53EsYqCJ6a4mYP9Q5bXtiHzFOGQwV5gffUKf7z3GZ/+2+es3j7kW//5nzh19WXYOA9r27C0CW4ZpAd0QXM05oQoVbbg9K82CtVQq9IGz/ny24KeblqAx4IQ5BGG7GNPfPJzjrvIMWDjDRwaxRilNICPaJnKyoYI+yhfiWUVyA0cFiN8rmRZhgbP4eEO51ZWOIfj3P2HuA/fZ/tXv+Pc7Qdc2CvYHHpWRgUdVfqqGB9RDWndbgQVTfVBpFUmVuvY8UnalcT4jjLxeuM4AJm36tYjLlVwNHG+Hr1NvUdrXK+SLDpH9AVl8CiCNQajEQ0lEgWLAWvoZTmx9ClM3PYZ+cgfP7vDQ7tE98pznLvyGv2r/wRnr0B/HfJOpZpyIJaISSV3LURTg0Y7N8JkihqZuB7ncTq+BT21tACPBR1PJ9o3Hud85kgn89RhMzq1FnMNBgaEJkRdAhCTHSICexqBksNgWPFC0FCpSiDLYaO/wpIRup/fIfv4E/o//ZAb929zbfeA1XFgrfD0vKcbI0YjhEDQiNjEriNUEe11QSNpxtQoXKro9iPuxt8AQGZ9chuB7ojHwyRCfRZEFFBR8EVKK2ItSWCLaAg4k1xtCUAZsC4DKwzHJbt+xK4Yljee58L15zj92it0XrkJG9eht0Xs9FOkPYpqIEogiCdIJBDr6iYIQlVotkqpmAYw1VdZQMWzSAvwWNA3o3nqGm1vTP863rurtXOGOdb788pjymDSSlwVYmRflWH0PDSCXYE9KfE64rzJeHNpjc3Pb7Hys1+QvfUh25/d4lwYszUM5DFgNBIlUtqIaxizTLQ9IgQRgkmVAYOkLLxCbQPROcbrdv85GUBgDiK0xj6zO91qZv+UraPel1RFEoUYSQGCxmKr3CFaqa/ECBiDGuEgFgxRHkpguJyRnz/Lte+9Sf9br8KVy7C+mkrIOkuUWKmiWnm5NFVPMY16qooroWUUrxYUTRr91pNfAMizRQvwWNCfiSp2MQMUTYq/YwGE1oHJkjpD6CssY8iNwQAhRg5N4FADeybiehYvJdEXZC5y1lku7jyk8+HHuHfe59Qnn3NT4Py4ZKNIKUdUIlGU0ioexWmKCWkkDIUohmASI/QiWCNkEVyoVUcV2z6u+t8MgMxHhGOm8Qm5aru5qGAwmLyDPzykLAucy8n6S4jAYDQgaqS/1Mesr/LFl5/x+eCA3qXzXP/h9zj7n/4eXroJ/T4YUGuh00vOto0dZfKsmhQ6tX1oKqi1NYjaTnSiA8eCnnZagMeCTqavpbp6FEs4zs5x9D5C8mrKVLEqGIGMlKJEMQSUAmWEMqIA4znVc5yxcO7eQ4bvfkz37Q85+8UdXomRa9awVBZ0vcfbJHGoxKYEbKrkV6VIpypCJSn1O0jS5WvSotlj1S1fw1V3jp1j3rm1OkpmpZ15nFiFGJXB7g69To9efwkQxmOP5Bnd7U2GoeCz3Qd89utPsWdO8Z3/+X9h64d/Ay/cgLXVlOUwd9DrUhhLURY4I6lOiaGVKy0pqEQVUxdjMqYBkPppNqo+OHk+FvTU0wI8FvTN6RjVlRxz/Ihmq1b/zCEXU1BgHkGtMqiKdDgV8koScSi5GHZHB2xs9HhJ4fT9+6y8/3O677zHxa/u8XwIXFSP3dvHiifaEq0r0WmVfgRtTDJaAUflxEXyEEp9ikwM0tPeTO2V+Bym+EgAmbdz/rFHN01OEEYMy8vrVYaSLBmCusK98SEPHtyjzKFzZoNL33+NK3/7wwQaZ8/A2hp0uyBCoeBLjzrIc0uMY1QCSGXNEFtl7LWphK5CUxGxNhPNvCBJOzhrpVmAyLNEC/B4iklbzEhnjjzuFdJn/A1proppXpvH//RbFSpaK+hZY7rgVOgFyIMyFDh0qfJeLxj6UciMsCyO5SyykvdZ7zhOf3Gb9Q9+Qe/t97n65S1eOhhxYejZPBxiihG2IwRTu6uS6lGoNhJWPQyjk791b6PMPo8nnN0ZAIE2w3wy9vkocEoXN+A6oBbFcFgE7vkR9+KIuLbM5rULXHj5Or1XXoJXXkmg4TIKawnWIa7KQxWTh5sPJdgxYkoMGZClWiGYlJ03SrNwSAWuYmUXiY268hu/jwt6KmgBHk8xtY2Jj934pONf++SZw8dda1bimHPs6AV0+m+9oq/UMsHCGPBWGZuUcl0V1BjGzrJsLUsGzuI44xz9L+/R++lvcD/+kPXffc4NZzlXRrrDPbQ4oNvNG2+sOpW6VkZfrcDEMD0Oo4qLk1mSxi5S9bkqiJR+H9XtP4qm1uRPIH20Euoe2yaIYgl4UfZiZIfATldwZy9y5tUXOfetl+DFq0na6HbBZdQlaEMIWDFkWSoH672n8IFMsiR1iAVsZRJX6jwtUnXEtDulScXVJKOfSZOwkDqePVqAx1NKbaljRhvyF+9JohmudaQ/LQN5fDx7+ET2mAGQ+h6kwMCRSTU0Sk1Bg0GVkY0MMsAIfWPYLpQbD0aY934DP/mY9V98weVR4HoX1g4PkeE+uRmSdSxFEag9jqKkAOtoaCp018Wr6nQkokoWUv+E6WP1OGruN9eEc8QWMWdf+5Tq+JMx0/aMT3oRJDKKBbf3dtkVoXfhPC99/036f/sDuHYFNlegmzyo0Co+w7gUC0LKPqUhPVBjhDzvkqLuq3tW+bHSz0qaa1RWEwtH3bt6S+dOzIKeJVqAx1NMf1lvFGWSduRrUi15VIyvVvtITCt6WwWNJSxUkstmXS0wGZlT1ltp4gIyoCMGMTAWGKoSCGCVmCldAlsauTA4JP74HfrvfMC5Ww+4mfU5ax3+zmfkDFld6mFEOdi5T9ZbBsmodFaNBJJmYbISrpV+dcbcGkhq6eO4KZy3PwHL4zxNbZ670jJIN9ggTS+bBO9aSVF11cUKEBU41MjPP/09q5cucuHb3+LMm9+BV16CC+dguZeM4ZnBG5NiM2ySJABiTFXhvU9Bk2IMxhqMcdUzlsauUav/avCYeidaZvIJiLRL5S7oWaQFeDzFpNokx2AuVz/x63t8FHi0/n4iVaSV8Ry5omYmAkYm3kgZkBshC2BCMj77inFoFeAWJXkxRYFgDIqSxUimsBKFU9bBKHI/V3Y6wjBGCj9io9Pjkh9z5s5d/LsfsvrRJ1y99RWnD0ZsjQN5LHApARU+RPIoZK4HddGhahym8uJKUzDxk2okCibHtDXeIzyytdXY02sbxONi80QTlkDUGIwxhBAofYmqYq0hcw4NitTzBmAtagwjX3IwHjP0JcN+l1f+1//K5ksvYF94Hi5fTPEa3Q5kDmyae0Sw1qJimtEbAzEqJreVZDEB/zYUNkV2ZQIRDVQ0EyOTzfa+6dZzZ3NBTyctwOMpJUUn9ShUnwAKjlyopU75Bmu9+QvgY9sYSe60XUm1xHsh1RMvFAogqCYjrEBwEMTgDXhJhZxyhV6EjRJOD2AFg7WwX45x4jm9tc4mnt7vP0U++oiVX37Mlc9v89KDPVYKX9Uc93jjwSghRGKwONPBQ+MtldxxU5W9iTRRzVZrPC3N1DSAcHQVXV+nAZBqYwpAjnsUkoAs2e+VsvRpZS+Cc5PPNUZwxuJDJBggzyDL2Dk4YHc4gH6X9ecucvmVm3S/9wZcuwxnT8HaCqE2rLTBQAQxZqpLgoCtwXRypIlrYRoHUvCiYYpk+qe2RLPjoGNBzwYtwONppVmzwuOgx2Nhw9cDkOkP/KjU0f5dl4/oaKo73iFtBwOFwJCI10iMITFFMWQKWRQCiq/GPnLwUMBLyWY3Y0DEhZJLRnkjF/LPdrDvfszqez/j8s4B24Mx3eBxGkip1CNWFWIC39KkDkZpZbzV9t+ZYR0x7cgUgDS4IJP29cq6fb22FPIoAKnVQaltciMOIeKcI8syBEMInugjdHIIBUWIlEVgFJWHIsSzp1l/4Spnv/c6vPEdWOrD6ios9VI0ucYGO9oSRd3bdpdMCzh0qkV7qwVGrcXKjIBxxAS0KP70bNMCPJ5mql1Hv9lFOAksnujaE4X1UfxoayhMFVsWoJcW/viYvKaGEji0EU9EY8SosKRCpkIGRBWKKAwMDIwyNJE9B1/6A7oGtlb6vN4xXPnqAP/v75O9+zEXf/cV1xBOjYqq5nhEJTRlY+t+1TXH69WvtHJUnTTkY+eszRRrtR0096xBY1pVc7JRXaNWK3uwxpDnGSJCUZSMRmMMqbiVYCGCc13GgwNuPdhh1wnPff8NLv6X/wRvvgoXt5Ih3OUprUiV6DGVfa2NU61/j2Dls6q5yS+Z22j6FZmFjoWs8azTAjyeYlLV1hL1UWz+SYDmCaWPtspK5q3IJ+2EFFjnSKorFQia1FHeJNdbdQLG4kOyN0RNMckdA06h9IbSCPumpCQykADFIdc7S7zYN1zb9Rz+X/9M/533uX7vIa9qzsr+HmtakgePUOVdIiU7NLGqOS4k9YxORp8Y/OPORVsfVW/JzMVqwTfd/gAAIABJREFUk3EyfLfbHvcUm0fc2hN8oAhJMss7HYwxlD4QBPJulyzv8umnX/Bw/xC21jn3xrd57W+/D9/7DpzZgLWMkVNCLjgB9R5iqjtunSHE5DT7hFVFGvq6suuf6moL+v+fFuDxrNE3E0O+wU2PW4NP77eaijdlpLKxe9X+WGVbDUQISoyKVjaOkSrOpLKyHZ8M61a1Uj15sIGzpzd4sRTO/uEWxTsfsfT2hzx/a4frpefc2JOVJR0pceqBFJTWLhsr1KVkq3/1PD5BYOPjMDmtLhkrAJk9Y/Z2Rx+n4n0gzzI6nQ5lWXJ4OKDT7dJfWWVo4MvDA+7euoWK48r33+D0d19HXr8JVy7C2gr0cuhZht1kAAdD5lKqEK1iOGo1lcqjRrVg7AuaTwvweGboMT/iY5e283b+KRjD9HWsQuaTBFEYpbARMZrScktSFbmYkhCmQnzKACWKkKtlyUNWgss0ZWO1Qm+px8ZyzsrvbpG9+x72v7/LjS92eH0Q2CqGrA/3cRSI9agpU9wGKWp8uua4VIAy38bxpFTnvZqdiZTGnSYp5JPNcqq3EWJEFZzNWFrKKEPgwd4+DyWylxm6Vy5y/cWX6b/+Orz+Alw5Dd0cXxQUmWHUcQyzDIchx2DixIE2PsFi4M9DC0D6H4EW4PEM0jfhe39u9hAECpu8qUoCQQMWyKyjK4ZOEFyIDAnsx8CgSkrojecQsGJxmVJkQp5lbBG5FCPbf/iMlbc/ov/We5z59AuuxZxTvsSMDxiVB3RzMCZW0kqqN26YRG1MlY2dNVo8EWljLgCmi/TVLSqDcRRpotfrwELzGA8vZZqPeCtIZiid4+7ggIeUhI01Nl68zo3vfAf72uuwvQ0rHehaVASfO9RaDJZOTO7SrvKAmrK9TA197s4FLehEWoDHs0KN7nzWDjILB48PD/onlT4SRSMUJnnpBISoyYBsjdC3wjqwXBoGGB5Ew47xDIiMUYYSCQ6cE0xu6HfgYtnh4t0vkLd+QucnH3H5t7d5VQ3PFWOW9vfwOsC4SDCxMgaHqt64TpXvNipNipFEX3fcEyNGUoHpZApkIonUket1+VyrpFiXR4CHqnJwcMj65ib0etwfHPDJ7S8ZLHW48t3vcOM//hD33W+neA1nkxt38AwlIi4jX+qTGYuNgaLwxFBiui4VtKot+LPjmTMVaTgLMFnQ8bQAj2eNZr/9Gkj+VN/5nOscy0SmVDaVwV7qEqSgEWJQfAgEPJCTKfSBTEHE4qLwwAZKqwRRCgkYsWwJnI1wY+jZ/+cfc/qXP+fG3Ye8WATOjsb0RwU9CkIuBGdS9brKPRfq3FNVNzXFctiYAuomgW7HDPhYmsf5J7OjJNBqm1PqeOtIiqSPtZm9TlWuLec1ATWW1TOnuXuwz62Hdym6Hc7/4A2e/8e/h5dfgPNnYG0ZcsOwGFLmGSbLEDGIsfgqhb41lqXctYao1X0mYDGdR2t2HhYR4As6mRbg8YxQrXL4BuGCc6759XxmFKrSrNAwVE0OpjGChpgizQ04Z+lah4uptsQ4CCOBroGLHXA7wqCj2CVDGUpGe3uc39jiTeDiZ2P0x/+dix/9jsu3H3B+f8R2WdIJJUiBtz6VP6Uu6pSkDyJNoF3dY9E61G0S4/Hkw5/vmdT+1Q6eM1UWQKnyh3it7DyAxGTTMQqZc4hNmQQOQ8mvP/sD2fYm62+8yumXb7L86k24cQ22N1KsRp6BMRhryYyt4jRMk0uqGWlTS6OOwzhGW3VkZJOtBYAs6DhagMczQxVTeFzsqNUozcb8RvPyLT3KeTMBh1bMqGLHdTCeAWJIVzaWzGV0jeAKiEVgHGCEpaeQH8DZKDzE8HkoCFqwtb3K6cxx6jcPOfvjX5H/5GdcvXeHywd79Hyg5wN5LBE83pRVIacEHKHywTWSmLQlIYg0xZ0mgJkyk9Tc9Ouxx+m5nbacC1WSRZKqKgJqDL6aJyOpLGxmHBKV4ahgOB6znwubN66zfvM62996GXnlBbh8AZb70M0I1lG6LIEFgpm5b/WAmr7VQH9SYv7jgKN92QWALGiWFuDxrNATfb0Ttiazu6Xdov1rAkxTbEam/kx2t6KJG/9UUkqRpSjkUSlE8Dbt9yR86aoiRAbWcD8G7LplYBQtB5wS5W9X1tn89B7Z2z8l/PgjTt+7y/ZwzEoRcTH9m2Q/T3BgYjI2iJmAQhDQOlOu1tA7WYcfGeATUmNOkaMTVAPGxL4hyXhOSjkYraQcVEY4EDgsSoY2YraWWbpynmv/+Pdw+Tyc3oKtdVhdAWMoxRCwKS5GTOum83SZs/16FEQsaEFPRgvweMboJLXVkwglR0845uwTAgFEUiLEqImRG2NZRThvMpaCcicqt4fJiwpVOgirRnDAOIP7ueEBJQVD1pYyXnI5528/QN56h/ydn3Lq919wxVi2x2OWyhQ5kaQdbewJqU53WoM30dmieEl8PUhyzXUKtvK2mvqXluaPOXPTs6Uy8axqz5HVZE+wsa7pnRIXDosC2+viOl0KKzwYDfh87wGjTLj4wvO8/Pf/Af7zf4BTG5AZUvBLhhpLIQk80mjrnMN1TxqryWPR1wGOhfSxoFlagMczQs2H+6czeRxP7XtU4eRaqaiaktWAxglLETFYJywBWwHWgjBEuK8pp1Sskx5GJfrAMAT2ssiOjjnXsVxZ7vH8/R2K/+efWf7Je1z88gEvW+VcKMl9SRaTG+5EXZb6Y1RSzWxN1gQVwZsEILW3k0l+s00KlZrhT6wT32yqtPZkahm/G3VgI9gZ8t4SPrPcHQy5dbjHnTBm5eoFfvAPf8fGt1+Di+dgbalyzTKoc4ydI4ghYlBJEoek4uHV9Y9XSbYlk0UeqQX9qWkBHs8kfQMEafOU4xasx3KZyckaq6y4JnHi2nvICXQ1ZdLNBNQIwSbgEAPqU1EhS6A42OXiuS1eFmH7i7t03nqP9fc+5vpX97k8GrHlPXmIGPFEE1PQHxGJVMbmWutfO5ZWRntS+dNKm0WsAKROFT+RPL7mdLZUQUn6qry4NGVCjrWNw1qk+oc17I/HfPXwPg8JdM6f5s3vfZtz3/8OXLsAm+spMtwZyBw+cwTjCOJSmvQKOEx1P0kP4bEf3TcFjgXwLGiWFuDxF6TH5dVHPGKmcoP/GTr1mPrwaXVXvb5u1eZQQSLYAlwBkkF0SglEIiOEEkCEjrNsuC5bXcvmF/fovfshvX99m1e+uMfreyOWRgP6o0OcGKJYgjG4qJio2FgFAdbpeyuH2JQSXAkm4quaHakokhKMVO677QTjbRT9mqQphXxEK0ksSWFYm9LMC/gYGISSL/d2MBurPHfjGue//SrZG6/CjcuwlIMTojOUpi7MZEAsYlwlbcg888oUSesFm050Pu8N+/OquRb0Pz4twOMvTbPfrcz9We2QVghHZfD9Bt5B091o37jNYuZot2vVFQkkpD7FGqwxaaUdAzEq+0b4zMHDqBwILEVwqoxiQIkU1nKvm7Hl4HW7RP+Pt1l552f0fvxTTv/2cy6pZTNE8GNiGCI2x6mCWqCqkGcmWWulApG2+VhUsCF12NT2mKOL9MbgLc3GE85hmpCqD5XHGYIYxVceYCOUEYE9KxSXtrj+g++y/cMfwIs3YLmbRDXnwBmiM1UxplqisVhjpzMWN0+o1pEJU8+s1XYeND7pm/P47RcQ89dGC/D4s9IxK7y535kc27x9ztfRXM/znkq/a3tFCzxmwGkSFzG5kBiqCneJ74UAZZlW+gdG+IPx5DbQw7FhLdbCqDAM/JjCKfc6wpZGLh4MKf71bbIfvcuF333JKxHOFiOyw31URxgXES1xMXlUeZOitaOZ9MrFlEdLdeIam/JnVZ5NSoo8r4zjWo+0NeY5zrZT20ceSQvQjQiuqsInQPCBYVlw6IeUFkK/g6z0WTq/zbf+t/8KL16FtTXoVJX8VImZIxpLAEIEsQbnsmk33LmPUJgk2NKjIPEX4+cL4PhrpAV4/JlpGg9kmhnPbU2jkq+Nwu3VZEPf0HA+yzClWsYLilUli9Wq3aTVfkkyPispxXcu0JFUKTAAB5LqdXgLpRq8TYkODVVVwUywWQ49wfXhwt6Yw//2/7L5k3c5//ltXhlHnjOG7mCA8SU2MykuYliQWUcTuSCT+txIsi3EllRRjycZyWml5UgHlVQMSozBiqARNIRkP2nZE5oqjtW5U9lwtXb/TWaH0ns0T6qqkQYeFCW7oaC/tc2l115i6bvfhtdvwqkVWO1DloHLwFiitURMlUzRkJtJRq4nY8mTN629CPjzSR0LwPhrpwV4/MVpOmCr9bk3xxsVVbUplW5fZvUXj0EnY4xWlovEroyAdYZVhXUPXa8MIhxo5BAY2rTqz4G16t/yGGIBtyRwxyph7Fm2OU4jYwJ3TbrmKA5YyS1XLazfvo/90Tucef8jXvjqLqeHY86WnlwjEChdFRMRLcYKQYQgsZI4SHmrIMV2VNJErN14Gw1OPVcpSLDW7kSTvL8kEzI1qXCUAjHirMNgiCFQeo/YZGtQI8kArpEYIgYhM47MZNDp0M0y7h8e8tXDXR6WBWZzjatv/g3nv/NqkjTObMFyBzZWoJuiw1VMilMR07gb1wWZjMx/bhN4mNF7yvRS4DgJ6lG0UFEt6EloAR5/CTqijprz8VVtpkIOZMJFJovnr7t+PAZGKtQQA8aCdbDkYTsElsclDzEoUFhh5DKw0ImwEmHLw2YBFGNGOdw3SW3TlZyuGPZt5J6MKWPB6vYyNjO4P/yW7vs/5ewHP+elP97itXsHLBeR5SK54pY2UFggCHl0SFXESaWusDeJnZDaYF+BRMoG0uiUplhpzV+jpKy/0QJRERGsVDaToAihMsonUI2iRBWCSdKIMQYnFhcNlEr0Y+6Od7lTFhSrK2xfvszp126y9d1vwfVLsLkMXUuZCbLcp7SGOtq9Tg2fpJ0pZdSxT/nowqM+4+jzlRO2Zhcxj08L4FhQogV4/NnpJEPG45g56hW0zCDLY9y2oXl3qGwGCF0ROkA3QNen2uMDDAfOshdhH6VEWZKkrumT/h4oeKeosZQmsIKnFIgSKJwlGEGDsj4s+MGa5fTtHcxbP6f74/e4ujvi9GFBzwcybVf+S15TKlCaqv4GE4liwvBmQbGNsu02OmVPthF6QQghVjYSg8kcUQKD0iMKzhicy4khYKOiQZGgqBGkkxGzjL0QGBwOuDMacl+VzvlzXH7j21z6m7+BV27CWj9VxLKKdwa71MMb0+rXrNd0a2vGZ2Ey0unnOB8cHu3PJ8fsn9AjDG8LWhAL8Hg6SI7flJZW4k9rBE0XzRRWLSwprHhYLmBo4L4ID61lKIECIRdlPYMeYH2SMO6XY0onRAMdiawZiHnGblmwVwilBDpLXb6z0ufGrR3sv/wbnbd/xsXf3+PyqOTUqEw1x6NWRu2IVU3ZeA0UVSpzp1WW3AZAplfg06PS+bhZneuikKvB+1Q0itwgmSMIDH2BxkjX5nS6HWzhMV6xIVD6wDgqZQ6ByK4W3AoH3JGS1//LP3H9H/4BXnge1tdTdLgo9DLoptiNw7Ikcx3mMfkpAKmBQ1sPfqbdyU/1aKsnf2XmLWkWwLGgaVqAx1+Aal5wkubosS7yuG0f3Zvqt+IQVgRWIyxH6HkYGxhY2KlyMGFSUaElC32fapIXMTCMgb2olBY2UXoKqoaxLxhHZavT4VLH8vIAwv/5L3T+27/y/P6Q18sO7sEu60bJYyobm1T3VQ0OUtxEMKQMuZrqok8JFXMmc46T8dR4RQUL2BAxPhn3NSohBjxKsEm680YoiIhGQlEi1pIvLUPH8Ju7t/j97l3yM5u88B+/x9/90z/AxUtw7iwsL6caG6LEPCNmSfryKJK5Sq3W7tfRcUyOf738yX86Fr8AiwWdTAvweCZpPltp2GSjtZmsaY+msUieVU5TMsO+TynEC2Cs4DWdb4zF2SRxmADik23AIBgD4gS1SqHKgUZ8OUaNYavX51tquPTpA9yPf0rnX37Ky7cHXC09Z0tPVzIIQ4yWVSR40vqbuv/VIlzlBNR94llLUg2xqq5noFSlLEu8KMYmj6koMPAlRsAtdSmicme0z529IcPlnGtv/h2Xvvst1t58Fa5dhU63Wh141Fi00yE4wzgGyjKgBlzmMMdImHrM7wUt6GmmBXg8o9SOqH70enb26ESMcVHJC+iMwUdSynQLsfImzQ1kFjoeKEHHPq2JY1WzIzNInmI9Rj4QVen0+6xZx9Znt9l652fk//e/ceN3d/h+IWwUnrXRId0uDLSkND55U5FMuCnliDTm3NobbVYd1Wh3eEJmq1WixMrbyWsk+EAwCs4iYggaKUNJN+8xKD0H3lPmjqVLV7j27coYfvMqnFlPkkbeIUYosXhjiaL44Amk4BMxQlDFfg13hwUt6GmlBXg8k1SxVJn4zMgMbEyt1+ugiCnOlTYKa3ggMHBQBiglubL2SGqsFZJUIh5CEfE+UlhlbFI6klW1LJdKhpKJo6/KZlmwfPsu3XfeJ/zbu2x+cYurYlkLJVkcE6VgGALBelQSbCTPozosTjCqOJUmnqIexsTUfJSOMmadOqikdOilSe63oTrBxJQBFw8p+WKkVGUYxhwYhdOrbD9/jYvf/w688Sqc2ahqhnsGMeBEMf0uiCN6Zew9URWbWZxz6d4hTBnFTzJaL6SPBT0LtACPp4AmK+wnOIFJig6YdfSsdfxaqX3mUVrdF9ZwR0leQQIRYUlh08CWJlfctRJKhbvjyI5GSlGGTiAKyz55atnMkXU6nPElq3fuED/4EPOjd9j41ae8nq9wWSJ2fxeTRUxPOBweYh2oxNQTrcdgJtJBqIzjrcl5FGNt2wxmp6wukYsx+KigydW34zJCiBTjEq+pDGHMDb+9e4tLb77Oy//49/DD78OV8ymkPRaMTcB3O5hul8PCE4JHRDE2I8u7uDrYsPrPGNMA3xR8zGrlFqixoGeEFuDxF6ApO8Sf7opA2wPraKmjOibiyK1bHj2FwhhN9b+NgBEyTTEfuUI/wkZIxuUDrxyikBuK3GBDqoi3hLBmLBtiuDAccP8n79D92c+59mCPV7IuG3v72GHBcm4IpmQcC/KVDkUcESVi1KQguTgBirqY0ix4HPGymtmU1v4JuCqqE5nMZRmjYkwMEecysrxD6UsOijHD4JEsJzt7iv/p//jf4fkrcOEMbK8n4LDKuNclWIMXwZeeKIYoKVVJSveuBK3VipXSTdrlqOaQHLV9LGhBTzMtwOPPTiezgQZYnkxxTx3/kKKRZQIgSju2cNpOPvW7YsNBK7+exlxNAdz3aVcusOxS/r7NpYzD/ZIHEvHdDkGFW7t7LC+vcNEYtj+/g//RT7j4wS8598Vdzh0UnBp4+mWB0RIvgSieKJESTcF6RnBBEl+ukM5Uppwpl+XZ2IdZDFElhoAYizUm5dStYjmsMaiC954iFJgIzlpinlPEyK29He4ODuhsb7J9/UXOvfQCnVdehJefh/Wl5G6buyQUGamkiJTA0Na+CJLsJSJmAthV+dd27jBhzqNu7aj8FBa0oKeeFuDxl6A/tdTRivtoSx5pZ0txUyPH3IJBk3YGkwCnKuPqgV0CUYR+NCyVqT6H+siatdyysBdLMJHt0+tYazC/u0X21vss/fg9nv/yLtd3Duj7QD8E8uhxeHwFHGoiJZGxhVClO2kqAmr9b8686WzPp10AFFKNkZjmyERNQYcoVlI6ktx2iEEoVTkYDdgrSw67jtX/j703/ZKjOtN9f3vvGHKseVSVZjQgYQwYPLTtbt9evdx39bl91vljz6c+97bbxoCBBmODAElIQlNJNVdl5RTD3vt+2BGRWYOkEiAoiXi0SlWVGZkZFcP77Hd63vNnWHjtFSZevQznzsD8FIzXMaEid2My4ffin7SuydLxWibLWFSJ7SaQ4dDi3u8HnOHHPl+ixFFASR7PJWwRvtlXgZQl0U2xct+vijt4kUBZQSBcMzTWqdAm1rimOWtYNikJEApBYvtUxur0VQz9FpNC8uuxcSbu7lD94BPk2x8wt7TObCemGbvOcWUs+dhYnX+wydRotcxIwiWxDRItXPI8N7duANRuz2N3GCv/LlDSw2iNNjrzymQ2a92ilMT3A2QQ0O512U4iNkyKGaszdfk8p3/7C3jlAsxPQy0Aq8GTxZz0/Z+Yf6qrphoc3oGCb85oezNS+96GweZPeqxEiaOCkjx+EOxdUn8zEyFcigKTr22H3kYK94C1zngau9viCuEk1QMLdeGqqyxOErwvoIulp1MSLDtKEvgS1ayiiYhtxGjV45JXYWGpg3zvY6p/+YT5r+5yVgumo4R6YhHCfYFTv0UMynGVcSEyaUELRx5p9l1aF8byTKb/lCeZ94ay9hxKKSXGGLS1pNYiPYkfBMhMKiWx0E8j7m1u0BMw/ZOLXPjn38Kvfw6L02B6tG2PyGhqIyP4ntyXpchDUHaItgb7Y3f1pQwkVfae38ec75ItSjwnKMnjeYOlCEO5NbEoola2eMz9J8l61zIdc1OU+LoGPykzrSfpwlIIJwuirEQb4ybheYIdKRHK4gVgk4RjYcCJeshLqy26/+fPNN/7Owt3V3jFKma1wU8Nvs3rjOzQuG03b1wAwrhucmHAeMIRoGO8QbLcZkOWhooBdk3IGwpjaWtpddp4QYAKK6AkWglEJUQEHju9Hstra6zsbHP+tZ/ys7fegtcuw6lFGKuBSrFjTZSvMGi2kojxIMC3u2qjdtdKif3LABjeX3Z5e2LvZk9AySMljjJK8nhOIWy+qn+EFbKDb8OVRsPPFz2G2iWrrXTb+RpGtKCKoq0EHSkwNiVpdzkxOcpPjGXm9kMqH3xC7cO/c+LeA07u9Bnvp/jGIERK6uki3yAtg3wGWX4gIzcp3IAnIUU2p2MQAnIEMuR5kOUP7F7D6mTMK7UGiYDY9xCVgMRXPOh32NjpQOgzcv4El8+c4vQv34Szp2BqAhpVlxD3BcJXeEpQFR7WC5BSDiUv8k/afSwHv1MQxKAAYc/5EPt/2bVVyRYlniOU5PGcYe/qNYtO7cmJO/Nl8uRtsUTOovLWzacQBozGDUQSbqhSKkCmKU0tsBaMlPQVeNIn8OtMV2Dy9hbNDz4l+NMHXFha42Kry0gnotmN8X1J4llSZfG062CXdmjmOG6HZV5dJSAxoshjWJGFuMg9j4GZFXaP5zF0HIwUWCVQoU/iS3ZMymprh20SKvNTLJ4/y6nLF6m9/BKcOgYjVfA8rOchfB+yLncLeNmkxJwYBl7OHsLI3I9dBEJBcbvP2QEssfehMsdR4nlCSR4/IOyun76N2dhdn2utk/MwNh/2RFb1k6+LjdvGQmIFHeGIxmiLwTW7Kc9tq4Rh2igmLZwJPcZv7TDywd+pvPMJEzeXOIli1oCnEzzbwxchwgpS45bhOpvH4SqobFZVZV2uZmhyX2CczlZ+JHyd/2X5Ot8W0/zyAVDkR004ryWxhsQatpOU9TRiSxpGz5zi5X94i7nXX3UhqkboVG8VGE9iMiHDwpvI9jUPkYmhx4c+8QDCGM6D7M6E7D21jzrTJXGUeJ5Qksf3jseHmQ6PA0zNcFTKCmw2F0OIbNiTdBsZm41fNc6494BIazAaKSxWQipSpIQJIZiWgvNacHEzov2nDxHvfMixm3c5rxXzSUyt08G3MWEIQqUoPKQVJMKSSudJOMdHII0dzBeXrupKWEcWTq/L/RnFmNe9WXGbuyL5FMEszCUlXsXn+v27PEz7jJ0+yW//7V+Y/Jd/hIVp17DidEjAV2jfx0rpOs5zTyFLbuf7MNzUl1PGPo+C3XmQXadxT8PGAf5G8cRTpNRLlDgSKMnjB8BT88QQTLZiN8qt5D2rMVgsilw9qQhhCYGSopg3nnEHGoiF+8JksSujsUqQKEEqNInQVDwYtZLTaC50Ivr/8Uea//0Z0/eWOdfXHLOGoNVC6YhKReB7gjhKXBkuAqNcGCwPRdnMO8oKrbKxugJlXYhLWPJuCZdq35WisQWZ5IXKJsuTGCHYQfPZza+Zu3Se3//yLcbe+CmcPQHjNafuWPUgVGhPurGyQmRjYHPyGGRVsmjakLMx7Ec8fv7eQb7H4zY+aKuSOEo8DyjJ4xnjmxDFQa/J4+ZGCiIFkQd1BFXjto6sJTYQI0hwxtoIF78fAyYBX7hZHP0UtoBtAYE1zIU+9BK2laJT8Zy0RpwyGVQ5mWqmlh/Q+eBvjP/9U04uPWS602c2SqlajRAG7Qlig2tN1xIFSDJJEOVKcHVGIrIwzraoppLWIo0dMuHDGWqLUoooijDWEvgBfq1CV6esd3bYjPuYSkDt1HF+/b/+hZGzp/FPLcL8DIzU3BXuAb5EewqrnAuWexb7i6ZF0SszXM11EC3sbpvZt+cHvDMlM5R4YVCSxzPFt/ExhlAkZp0R7klD5MGItYwIi0DS09AFjLUkZHO9hZPPaKQwo533kVroZFpVXQ+q1jChUxq+4rYnWLcJqYmZHmsyJQXBgyXSTz5BfvQxJ++ucHnDzRxvxgaLIVUGLSHVILXM5J+cWc4T9VLiwldDMh2u8c+6xpKhLnBjNcY4nS3P9/D8AGMNfpbURkha/R7LnRZtaZGz40ydO83cW68z8ptfweQYVHwIfQgUSNDSojPiRcisXHg41LQ7EZ8TSxGHOiDZPXjt7tN8UKDqgCcefZpLlHhOUJLHD4HdS9bDISMDCQht8YwlBGpWoJB4OGMcAz3hvA6UQEvoKFgTUM2ql7SFEBgzoJB0tMGrhUgbU+13GDWGN8ea1O4tI/7yCeL9j5ha3mSik1BNDZ7J9LDEID9hBMSZ3EhqB4+RPe+Zwe/DdlkLi7Eu8GZEJlEiXSJdZQn1xBioBEQCtvs9HnZ3aAcwcfYkp996jZm33oBLF1zJbei7Mi6Vxek8mYW0NetFAAAgAElEQVSdhmqXi3DR/v/3sYXY98PB5+bxDxz+pSVKPCcoyeOIwR5QeDWcvJUIPAu+gdBCxQh84WZ8WyxdAVJloRflDHYLN6ejbp1KbmhdZ/m4hlR4xMpyu91ByoSTIzVerVRYfLhF6+0PMe/8ldkb9zmuBROxJkjdZ2XFVEVy2QjnzQjrnldFk58r0ZW26FUsus0RgCcx2hIbN7+8HobUghCjNd2dNpsbG6hGlSgR3N/ZZjXuEi7M8Oa//Qtzv/0lvHQaRurug+o1EBJrjWuIlAIhnVihxDjdq7zpRQz3fcv86FOEl4oj//hauEd6GiVKvOAoyeN7xZ651AdapeHuvd0rYCEEHjAiPbRxlUuxNtlAJUlgBQ0p0Qi6AvpAggtnRRKSrJ9DSAiM++oLaKUx21GXc40qP6lXuLCjWfmPPxL8+UOOLW9yQYdMdLqMGEdawK6yWXBJ8ERmRGJdHt4zQ0nwrGZYZIyTWk2KC08pJZG+wlpDR6f0eylKCLxqSK0estTe4vb6OpXFWd78h3/m5O9+DS+dgLEG1HwnzBW6ElwtBMZksixSoITMjuqu7HtRWbUbjzb+B1VZHeZ1JUq8qCjJ44hifyLXoWJgRnioFGJrWUHgWUsVS4hkXAvGE9j24KFn2fIsGoG2ApWFq/wskuN6LQxR1OPY1CiXrOLkjTX0B59Q+dPHHLu3zolUcDKVBImkarUTLRQDEhxes+uh6iGReRkyixiJoe2tBSUkQikSYYitQWuNEBCEPlIpkjim3WmxFvfwZif4yT//nMXXX8G/eNYlwxtVJ5PuSRJPITwPbXEeR16aLGTWcGhd2XJWjyseUeX0tOempIwSP2aU5HEEsTcJW5TpCAiNZdIISAz3hWTVF3jGMo4lsDCmYSyGtQp0pKUlXWkuxpXmRriWBw9XwSo9QaNSYWo0YOLmOpV3Psb857u8dOsBF/qWKSsYTTRqyOPQ0iWfRa6xlYek8hLcLL+xR9mj8FIUjlWE59GLeyQYZMVVUbXjPuvb6ySpptqoMXnxJAtv/oTJt16FM8dhvAG+h1GKJPAxUpEKkeVNMql06fIl7qhlLk+hB/bYkUxPfZ7KqeQlfqwoyeNI4fHVWa4CSIJQGBSpsEQYYiyeAF9ZGgIwTil3TgtUZGkJ2M5kmvoSVCaEWLUwg2HU86ndXaHywd/Q7/43I7fucTJ1neMqjUnSBJGFlWwWf8p1q8j6MQQWabIc9VDIykmx2zzN4EytBWEFKjWoFKynUMpHK8VaHPEgjajPTHDyjdc4+7tfwyvnoR6Cr8D3IAzA81DKQ0iB1YY0iZHSKQUrBFJlSXnrqrmcQyKy3pJnfBpLlPgRoCSPowzLvhCLRRClhlgJtAKrIFWCthB4AkaxJAqqCBaMYCQWLPmuVLYjLJEE6bsu6rqFxcQwv7nDxh/fxbz9MZNfLfOyqrCYGGq9DolN0J4hwiDloBdD2l27OZQot/gZeVgGSfK8MTxPnktjiaM+EyMjdNDcXVnl2vpDgoVp3vx//pWz/9dv4NI5aFQAnQkYhiAliTak1mJTkykEC+phNRPpypMwWYbJDskU5uRRskeJEt8aJXkcQYhd33cXkqZAW2s6nkUriadENv1P0hWCHQtbvmAMaFqoauha2AQiNJGwWKGoG5jVghM7XTb+4/9j5O9XOPZwg7ORZjrW1CNDzVp6StCXoNEYa1HSdYTnQ5ocLJhBYtyzrirMdX8Puijy2iWRdXeHjTq3lx+wEnXwJsf4h//5b5z53a/g8lmYnXA6VIEHfuBmfSQJWjmPI2+lt1gwFmsNKivxtXmOY6BYNfA6hjo6HldFVaJEicejJI+jhEc1mw11OicStpVh03e6UVUknpDEFnoGlrF0pWAmhdMB2F6KlIJaoOjphH53h8npKc4hOX5/g+jd9xn/5BoL99eZbcdMJYZqYpBGYzG4+X75Ct4gUKis9FUkKcoaAildJzmGxGiscr8jZGbIDYHno6TCaE2vH7Md9Xiws0VzYY7zP3mTxddeQVw6Cy9leY1A4VrVJXjKVU4hijnheSZeZAmiPC1USJoMV3dBMcQpf+oRXR0lSpQ4JEryOIoYsmhi6AvryKPlw6bvOsarSAKp0Aa61rIhBBse9BNNvQvT1qAMyCjGt33mRutMB5LqrXXsf3+GevevnHm4wtnNvHPcEmqNZ0zWeW2RuASGsbgRr8ZpDPoIQqsIUrDaaVfFyiORkkhCat1UP5lpSKVa0+316PR6dHzBzOVznHzzNUZ/+boLUU2NQDN0Oiq4sbVGCIRUIOVA98oyCD9l+ZYs++JyMvnckOEI1R6RwpJASpT4dijJ46hhD3EM5z0EWUIai2cMnpT4QlITrmejl1o6QFcIWmiupxG9kTotmbARd2hieWNsnPr9bbx3PyL6w0fM3Fthph8zGhkCbREY1/AnXV7DAp5xmQ4rLDp18iFaCKxUGCVItNPNlQiUUlghSHQ2KEQIEinZift0kphIWLzZESZeOsW5//l/w9njMDUGzZqTFZEyj4JljXxOSsQON/YNDzEfOnDDj9rcFRn6VqJEie8OJXl839hr9w5Qw8j66AZhl/xnwBOChu9TUxJlQBlLVQvGhRvctAosW+hJy85Mkyu6R2r6BKMex/0qs8tt7Dsf4b/7MTPX73JGw0ycZlpVbuWupcXgyEMZRx6ACxkpDyMNqUnpJQmpp6iGAcpCEsd0dzqkWGQY4FUChJK0dcTNtWV6vuDkq5f4+b/+M/z+dzDZzKTSrZMRUa4BxWaxJ5mn54eT81lznx06mMXTRUmz3dWpPzi8B7NIyS0lSjw9SvI4whhOnOep3gDBaBDSlh69VNNNIiSKET+gKl1lU2JgQ0jSALpRSjPwWGhWmF3rsPV//szI239l4e4GP8VjQWsaSUqgDamEVLjS27xoSeGm/kkLRmuElKhQoSoBRlp6cZ+dXhvPQi0IqU1OEMUxsdZsdDpsxD06oeDEL9/gwq/fInz1ZTgxD6MBeCkoQeopEl8hECjjchtAxhQHV0eJYU/jIOs/rGf1yCP7bVHSTokfL0ryOEIQB/ws9qygAyRjwqMnPB4KyyYaow2jXkBDwARQ0VC3krWtDiNjVU5Zw+jdNdR/X6Hx359x6t4ap3ciZnuaapoiTEKizC7JEadJJbOhTK4hUFrwpUciBH2t6SYxibKI0RpCSHa0YSvukMQJrU6XeKTC6IVzXHzjMlM/f9UlwyeaUPFAgvUEqeeBVEiTNe/lISuG0xTFNI/sKAyqqPY1VGZPFDVqdpA1/65NfUkdJX7MKMnjCGLYTOa/5+WmgQURpdQ9hUIQeQqsoW8NRksaBiZiqHmKUPmEgcf0/VXkx58j/vghp2+v8upOxGy7z2Q7IlCQKEMqs/5sK5A28wCscEY9681QUuFLnxRDrBN20pjUU/jVCpG1dHa6tFrbNKp1Js+eYPzSS8y8fglevwAnp2EkxPqCnoLUOil5Jbzsc+RA+FY4g2+L+J3Ym+/ed6x2/5z9ZPOf9xv6b2/4S+oo8eNGSR5HBruTH0VnhChSHq5UV0lWdcyq56OFoGGcYe1Yy7JwOoEVz3WY/ywMULc3ke9/hnn3Yyau3uOs9piPBbVEo0yMH/iYbBYhuP4LN2VPoq1TNtcWPCmQ0iexkBoDUuJXKkQypd3tkFhDLDR6doTZ8+e48JtfwWuXYWEWqgrXSm6xwsNXzqOx2XzagdDt3jGvliE3ovhxl6NRPDb4v3i1sAeQxm5BkaengGfjxZQo8byhJI8jgoG3kYdohohDDLaKpeBBErPihfgomkaSCsWONbSsoKoktQpciCyn2ym9P32M/uOHzHx1n5dSxfFU02j3CU1KJVD4viBNNNZajJBuxC0SKwzg5D6kxan4ClxC3IPKRIPGZJNbmw+5c/8Wol7lwuuv8ua//jPiH34G06OuVwMDJoUghMBHYtGRKZr2LIMZHoMj4WDFwR5H0dOx9zH2PjbsizzK3D8dDZSkUaKEQ0keRwwD/aVcStz5BBKNbxM8jFu1W4GSkkD5GCno64RUaCrC0JAes/0+a//7P5l+7+/M3lnjfE+wIBV+t4efJihpSEno97pIzwlBGeEED10eQZKXvxrc0KZIaCoTI+ykPW6tLHH7qzXMaJXzv3yTS798k+arl+HkHExUIdCgLNaTCFUBAzpJMda6ng3pGv5s0a8xWNHbon8DV5474FKKjdhtyC37Hzvokd1ex6OfK1GixONRkscRQtHPIVxHhxWgrcUIQ82HmZpkIRJ0raRqAjatZYOESEDqw3gt4JUUFu5tUH/3I9R/vcexpU0WI8u0tqioizU9CAzWs8TW0I8TpLSk1mCRSBkQKoVMwcYaYUAJhfQk+LDc2WC536JXEcxfuMyxn77MqTd/ijp/xkmK1AMIFXiiGMaU925IKTMikAVZ5CG57Agw/KMoSETsOkZ7aq2GXjnktRz8rtnvT6KYEiVKPAkleRwhuEZs1xiXazOlWAyGqjJMBoYFBTpWhH1BL4B2IIhEyvh4hbkqzF3fZvq9vxL+1wfMfXWfSz3NlBcwakCbPomI0MqQCENiE2Kl8QMPhJd1kKfYSFMziqrwkFJiE81O3GWHlF4ItZNTLJw7zcmfv05w+TwszsJoDSoK6wnwPEcYRczJCTEK6Ypwbf64dfIieXc4OK9D7PIshr2QoWN1QKBqf8hqz/F91HE//CkqUaJEhpI8jgiG292c9yEBJ+9hrEEJqEmJH/rsWMuKSDBKMK4UFW25ZGH2oaH6wafEf/qAmaVVFr2AuooRVpNiwZdYFJFN0TrBYJDKRxpBJQjczI84JupF9JUPoSKVlh0bs9LvkDRC5i6f58xbrzPy2itw+jg0q24wiLIYLMaKQjBx2BsoimyHkxi7Zm4Mh61y72svHvWYfeSzj0NJGiVKfHOU5HEEMCAO4TyOTIbDCoGxGoNwneWej6oqri2vcntEENiA2aDOpbDK/IMuW//vn9Dvfszc3VVe9qssNHz83jrtdotOmuBVFKqiXB5CBASeJECytbxKQpdmtcFktYGtKTY7bZZ2NllNI3qhonJ8jt/8r//B2E8uwslFmBxzoSkFZJImWgyM/rCO7nDyfx/EYOtdDw29rtBzP/C45a94VEPgAR9XokSJb42SPH5o5BEc3OCiQW2QM6iumtXiC0HdC2jWBNVmFeXDhNUsRAkvtQXRf71P5Q/vM/dgnZcSqLW2kEoipCWohUgC/MCVTiVpnzRKiHWCRjAzNoVNUrCCfpwSGc3d9jZrOqJ68hiv/PJnXPzdb5ynMd5wczVCMCqXXc+ERIbKoKzNhNgf1aBxKOSluge/x+HS3YcjlRIlSjwdSvL4gWH3/GytzRLnIst/OLPoC0nd85gRHhdHRghSnxORYW55m/CzrzB/+JAz97aY7SWMxTEqiYgCCZ7A9wOkNdgkwfYifK2pIPGpIJUkkAFp4LEV9VnvbLJuE8Ljc7z8s1dZfP0njLx8Fo7NuGl+nkArQaosSOP2NXMMBl+DbopvZbrF8Dt8UxI66HXfdK8Oqu8qUeLHiZI8jhhcWa4zwFKIQs5cCYGUigk8ztUbBDspUw9XqH16g/idTzh+7R4vxYKmtlTjGOFDIjTa91xvRZxCFBFEKU3pUVEePoI41bS22rRsQjuQ2JlxZk8e48Sv3mT+Z6/CqQUYq5N6EClLKqwrlpKgsCgLImv2E1YMTT4cDlt9A+x76QEaJN8a3+Y9DuosKVHix4OSPL5vDIfnH9UAl/0vkajMUksUUgpGLbwUenjbXbZvXOfeO+9R+eI2Z0WdaaEIlSUIJTKQxNKQGotNE0ycII3BDwI8LyARgp04ZiPpsxJ3iBshI2cXOfXz11j87a/g0ksQSrAJPRtjlY+WuCFP0jGEsU6IygpbaHAJsjRILgP8tAb6e0lKfJcfcvh8S4kSLxJK8vhe4cTErRh+JK8uciv3XGLDdXpQjFZ1/yQjwOWqJLAxn68+ZOP+PcaTiJlqk2q/T+gbfB+6/Q5e4IM1WGNRnk8lqBJaRRzFrHXbrHbarNkIf2Gat/7H71n83a/h4lloViDpYkQCtYCg4hPZFCHylg2LyUqJ8zJbJTP5dCEwuAoqYcXAAXmSfX2iPS9X+iVKHCUIY015Nz4z2ANUX/e2t+X6fYPZ20KIbJYFaGtASAQSg6WXaiIL3VaX6t0tun+7wfX//Z88+OMHTHcTRhshI40AqZw2VWI0Wlu0NegkpdvukhpDMD3BxJmTTF9+iZP/+Es4vQATI1ALwQPtWSeS5Qm0cLPIddZzYqwryxUu7eFEE3FS6hLp9j9nmqdKmD+vtVDlLVTix4fS83imEAf2Qg9GGe3pbdjTJy3AGeEMElBKII0mrHk0FiYYCwIa1ZDT585i7i6zs/SAtQdLbG9tEekU4Xv4YUil1qDabDI+Nsro7BSjpxaYPHuc4MxxOD6bJcOl+xBpEUqAyjsw3JTAfC+EyL0j6/ghH/uauxmZ7MhhOrsfh9IklyhxdFF6Ht8DbCEPftBz7Fpw22z+xP4gjXskxtJHk1hDJYZKDOFOCstt9J0V2jfu0r11j831dRIsqhIQ1GpUGg2qk2M0Zqeozk3C3BhMNVxnuAKryKps7aAnI/8di5W4JkByva2MKoYqrWReZyUGNDhMh9/Urzj6F+jR38MSJb5rlOTxPeCpyIP9Rna4fzoFElwIqYIktALRB3ZiaCfQ1xAZSDV4yn352fdAuW5wD/AseBarsn4NOVwplUEMgmxWZDRyQLNfUaJbVFuJfbTxXQSkju6FenT3rESJZ4UybPU9wHWLc6CNEXuM8ZOMbJaWLiRAEECAG+ta8yDBtXoPKw5Km8W8LFoaYmnRGKx0+RVPKlTOHI+yg1YgMiGqvZsNQlYlSpT4saAkjx8SYvDtcWtX9/xwAMsJpadGg7FIg+u3kGA9sNJN/1MVv3hFZDWR0MTSYpTAExIlJR57iOZx+2Bz0cJypV2ixI8dJXl8n/gOWgKK1jtrMcaQaou01hl2O1RGayxB4oYuJdI195nMbSjS2zYPMcmDP+ggHBBXE3u+lyhR4sVHSR4/FA4wwE/ileHeQjejT2QzmzJKka5pD2Gw1hKLBCElRrnthBQo6QQXlQWZlduKLP1d7NIBfSjFz1njn3jk3pYUUqLEjwEleXwvGCrZfYxt3U0gB2/oymZxvR/Kbe2qazPPwxqEksisX0RIN5fcikGyuxCptXmFVPYLezPmQ/shBmn7gwTQ82Zyse+ZEiVKvIgoyeN7w+FiVo8SFNxXulu4A+4ZbbPEhc26R6TIGg9xbGEyL8O6bQzOSUEIhFJufojY8zlDORmGOlb2Jcz3uSzfrjS3RIkSRx8leRwZHLCSz7BXCitv0LPWfWlrSZMUqzXWuoY+KSVKKoQc6sfIOsEFAiMExrkw2cz03R9+ENUNtzzubxx/tvVWZYq+RImjhbLP4wfAtznguZbULm0pm72jMUUpbSERIobIY/jDxfBUP7EnYrW/RdEekhkObgosmwRLlHjRUJLHD4xvcvBzAhl+/XDCe78syOAxY22x/fDGh9uP/bpcw59xEP0c/Ozh8XxcnM/HXpYo8V2iJI8jgm96Ep7UYLiXUPZu/7jPffw+PfqTH/fbi4nyFirx40OZ8zgiOMi4P2qbHAdJmRy03aPe90km7/H79KhqsBIlSvwYUJLHEcPTGN/vy1AfRFpP2qZEiRIvNkryKPHUKImiRIkSB+hSlCjxXaGkmRIlXlSU5FGiRIkSJZ4aJXmUeEYovY4SJV5klORRokSJEiWeGiV5lChRokSJp0ZJHiVKlChR4qlRkkeJEiVKlHhqlORRokSJEiWeGiV5lChRokSJp0ZJHiVKlChR4qlRkkeJEiVKlHhqlORR4hmhlCkvUeJFRkkeJZ4hSgIpUeJFRUkeJZ4xSgIpUeJFREkeJUp8a5Q6XiV+fCjneZQo8Z3guyKQ0lMr8XygJI8S3wO+C4NYru5LlDhKKMNWJUqUKFHiqVGSR4kSJUqUeGqU5FGiRIkSJZ4aJXmUKFGiRImnRpkwL1Hie0NZSVXixUHpeZQoUeIFQUnO3ydKz+N7gLXuohaiLDd9/mGx1mJxxcODc/q4c1satcfBWnvIe8MOjuSjDqmwiLKs+3tBSR4HIL9ED7oIrbUYa7DGYG1mPMRgW3cPiOK7tXYXeQgpyov7uYXNzr8Fa7FCIHHn3lhdnGcpJWmaYozF8xRKqacwkD8sLBbs/gWPMeapF0FaazzPQ0qJtZY0TRFCoJRCCIExhjiJ8T2/2MYYgzEGIQSe5xWf5T7bYh/HwwKEFVhscf+VeHYoyeMg2Pzb4IK11oDIDL+zHW4bm91sGHLSECIzKcIW72O0AQHSSqSUSFFGDJ8v5NeBza4PtwSwuGtDa4O1BiEkAovWOts+P8/PhyETOOObG3LPcybCGIPWepfxfxyGieCgx3PyIF+A5fda9tlCgDGaYiEmxB5vYz+R5PsuBFibL+BKPCv8qMjDGFOs/C0Wm13YQso9jwmEEMWFnqYpcRyhtdveWmcctNYURgW3svSUwvcDfN/H8z2UdDdaTiDGGJRSIDNPpLzCnyPknkV+fTgD54yYRUrpjGJGIs7rkEOvfX7OdX6N56t/4SwyQkp3/R7i9b7vF/ePUgrf94v3tdYdr0qlkm3v7jslFb7nAYI0TQrCyknsgE/KIgAUkYDn60g/v/jRkIe1lk6nQ7VaxfM8dKrpdrsA1Gq1wWO9Lr7nE4YhUkqMMfT7fVZXV4uvtbU1NjY2aLfbKKXwPA/f9wjDCs2RJpMTk0xPTzM1NcX4+Dijo6N4ykOjSdKENBncTEqpXWGvEkcfg1COJooiqtUqQjiDqrUmjmMAPE8hhMQYTZqm+H7wXKyG84VTHMdIKQvDLbNr9jCQQkAWihomi5wIhsO5LqSlM6IApRRSui8h5L7Q70HICaTE9wdhrPnRZPO01pkb7dYmUrpV4d7HrDVsbG7yYOkBd+7c4fbt26yurtLv9zHWoKRCSkmcxEghd3kp1lr8wKdWrVGv12k2G8zOznHu3DkWFhaoN+pYY9FGY40tyKfMhTwJP/SxsYWHIYQgSRJarR1WV1e5f/8eQohisZEkCVNTU5w6dYrR0bHscY2nvB/+z3gCjDFsbW2xtLTE/fv3izCV87IhDMPi58fBWku322ViYoKZmRnGx8epVqvF9Z6HvnJiyA1/mjrydQQiabVaLC0tsbR0H98P0FqTJAm+7zM3N8u5c+fxfX8o1zjIQZZe/bPFj8bzAIoLNjfceQhJKZfgjKKITqfDrVs3uXv3HktLS6ytrdHpdrDGrZyklBiyOG4RrmLIeGiSOKGVbNNu77C25vHg4UPW1tY4ceIEx48fZ25ujlqthvCzFaw1SCtLD+SoIw/NZ+hHfb7++mvef/99wBZhGWstFy5cYHJykkajiZTZQuU5OLVJkrCxscFXX33FZ599RpqmBSkCVKtVkiQpPIHHwVpLrVaj2WwyOjrKxMQEx44d49ixY4yMjOAp5cJaSYIfBNn9ZZEyz6tAq9Xi6tWrfPzxxzQaDZSS9Ho9wrDCq6++ypkzZzNvaHBwhbuRSjxj/IjIw5IkaVH9oq0e5B8QtNsd7t27x61bN7l27TobG+t0Ol2MMYRhQFirFjdRnu8Y5CxERh6iiAfnN5cxhp3WDl+2v+Tu3bssLCzwyiuvcPLUSUZHRwl8H2NdPsT3/fKifySexkF+1EG0T3j+SbswKNGVUmKNYXt7i+XlhwD4foAxGq0N8/PzWWI4K0V9jk5skiRsb2+zvPyQJEkJgqBIctdqNfr9/qHIQynF2toa1lqCIGB0dJSFhQVOnzrFwuIi09PTNJtNd/1nXrsxBikVvu9hjCVJEjY3N1laWmJ0dJQwDOl0OlQqFfr9PjAIZQ17Gs/P0X5+8aMhD2shjiOM8QuXWEqBtYbt7W2++uoGn/ztEz6/8jlpmuL5HtVqlSAIEEKQpin9qE+apMUqrFKpgMjLGA3GDEo1PW/gnlsL29vbrK2usvRgie3tbdbX1zlz5jRz8/PU63V0qg8dTy7xw8Eag5USISQyC8HUanWkFPi+TxzH9Hr9Im+mpMoq7YQrzDjiVi0IAsIwLK5dpTwajTq5Oa5UKoWH9TjkuY4kSYrva2trrKys8NVXX3Hq1CkuX77MxYsXaTabAENFKIPFl5SSIAio1WpUKpUibJb//MgcCCWBPGv8aMhDCEG93mBjY4M0TalWK9TrDTY3N/nzn//MX//6MQ8fLqOUxPf94uKUQjqD0O+RxEmR+BvcXBKEwGarpCiKSJKYOHZVKZ7v4SmPZrOJ53n0ej1u3brFjZs3OH/uPL/73e947bXXEEF5qR9tuPOTJEmxoBBZH0+aJkNVSTIr6x70ACFAKfncGLPc2EdRXISE8lxOTgqPQ+6R+75fLIjy/GK322VnZ4erV6+yurrKzZs3+fd//3dXVOJ5RWWjS6CnpGkCsOt+U0oWIeSB17FnJ0r2eOZ4wcljcAVZa2i1dgjDgGq1Sr/f54svPuezz67w5Zdfsrm5Ra1WpdlskqaaKOrT3mmjjSYMQiYmJpidnWVqaoqRkZEiliulsw7GGOI4Ynt7m5WVVZZXllldXaW13XIJPekMycjICNValfv37rO0tMTdu3c5deokY+PjQJnz+G7wpJDKN7Usg94FF54c6mWwA6M5KJ7I+oHsUEjloF07Qqd8b3+G53muEjGrIkuShDRND+V55CVQLukuXTjK8/CbTay1bG9vc/XqVebm5rh48SIzMzP4vj9UleXjeX6RfM+JKIpihJAkSbwr2X7AXnCkDu4LhheUPAaVMXkSOq+C8j1Xe766usq7777H0tIS3W43u2BdWWC70yZNEsKwwtTUVJHonpmZYWRkxIUjPEUYhLt6NbRO6ff7bG25sNTGxgYbG+t8/nHwS30AACAASURBVPkXdLtdtE4x2sWOp6amOHv2LMePHyfIXHElFVY8OZb8vBFM3iq5P+Xw5L/jaf9Sd9r3do+JA95reBtxwOP7P1kIgef7BUHkHyWExDIIXwox6O0QAmzeJf2ov+e7SOd8xxjkH2S2MIoRQjA7O8v8/Pxj+i525/tarVZ2H2zQ6/UYHx8vyCfvxH/77bcxxhAEAdPT01mJ7qNKcgcHK031UCf5/oPozs3ex5+ve+co44Ukj6ITmPyych3AYeB6N+7fv88XX3zBjRs3XBgidHHeOIlptXbQqWZ8fIITJ05w7txLnD5zhqnJKarVLGluDdbYovO1KAsUIbVanebICDMzM/T7fdrtNmFY4c6dOywvL9PtdhECzp8/zxtvvM6pU6ephBWSJEGGEmEfcXEPPWz3GLijejvYoZ+G7fngfn6E1dz1tx7+b8yJY9eqWAjEE5sADtqPg02973lFbiuH8z4t1ri/Uw6VXbvFxcCQPX1d/O59EI/ivGeA3MAPl8dOTU3xi1/8gjAMn/j6nDwePnzIrVu3uHnzJsYYOp0OUkqq1SoA9+/f59atWxw7doyxsTHnYWTFCXn12nBXex6ycuf5oIMwHHHY85SwQ684qnfO84EXkjyGkV98xrjqqF6vy5dXv+STTz4pwg8CgVQSmUq6/S6Lxxe5dOkSL198mePHj9NoNHAhikHDU15llZfr5o8JIfA9H1VThGFIo9Hg97//PVc+v8Jnn37G6toqU5NTvPrTVzlx4iS1WtX1n1jzeC/7wAVxvqY/yrdD7nEMPA8rnuA77fpbnyL0YAeihUXIJP8+/NZ2twV++iS2xdqDY+2FPI3Y/di3CZXt/0089aH5rqCUYnZ2hlqt/sRtrTUsLi7y0ksvcfLkScIw5Nq1a/T7fXzfJwgCrLWMjY2xvr7O0tISCwsLTE5OkiTJrsrFJ52j4fXBY9cKww6wKMNa3wYvJHkMNwo5gTrnEoPg008/4/PPP6fVagEUyfF2u02SxJw+fZqf/exnvHzpZaanpjOJBY0xNpNQoIjj5rHZvNLKWhcmk0Jmyb2BjMOlS5eYnppmZ2eHWq3G3NwcQrgSYeUpmo3mocofDzYYA2v7LYtRnw0ECOSADA67/B76Y57678oIY58EzB7PJPcKDiaRo2pcLPYHJBCZNckeYkuSxBUTLCws8Itf/IJKpcK1a9fodrtFkYHv+6ytrXH79m3Onj3L5OTkUF6Jx3gYu8tznxaDsNZRPMdHHy8kecAgL5B7HtZa1jfW+eijj3j44CHVapVWq4XyVNEIdezYMf7xH/+Rc+fO0Ww2sVj6Ub/Qp8pDVPuuNSGQcpAcNdbs+lwhBLVqjYWFBZI0QQqn6ZPHkrXR9Ps9guDRpYe78MTg+Q+v72OH/i88jz3PH3r/hpaSjwtUDG9vix/tLgKx5GSRv1PumdhHiOn90EfyUdhDIPC97eZwSe3joJSi0+kghCAMQ44fP15Ik3zxxRdsbW0RhiFBEBBFEaurq6ysrHD27NkiLJV3uD89DnfedudFjuJ5Prp4oaVdc08AnK7VXz/+Kysry/SjPlqnrl7dWHq9HtPTU7z++htcuHCB8fFxfN8ryjHB2a5ciiRPwOc3kTVZ81hRUGPJFXnzR4QA3/eoVCpZ9YojrDAM8T2fOM67dg/6eo4xxB/uKz823/wvPMwR2psCHyZzu4fcB2RzkOR3aVC+KVyDbUgYBHieRxiGTE9PMzc3V3Sq59pxSil6vR4rKyv0er2hnAbfiDwO48SX+HZ4gcnDzd1woSvN8soKH374oRN7E5IoigkCp5UTBAGnT5/hJz/5CaOjozhlVIsUAs9TRSVWHg7LcxzOCGVzDrLQR/6/QBQKpFIqtHahrdxziSJX9iikIAgClKe+0wayo2bydmdlxCOe+2bvO3hH52GILJy49+vgZoD9P5b49rDWEkWRazrMlHPjOCYMQyYnJxkZGSl0rvr9PkEQkKZpITiaV7Tl4WF4Qs1Die8dL2zYyhhX/QLQ7/e5/fVtbty4UdSS93o9hHAu+IkTJzh/4TwzMzMFKTgIdsfMh1arUOQ+BtsMx9JF0QOSvRIBKOUhlSSOoqL8MQgCatVasSb/9vfI01b1PNuEe+Fn7Kt8+XZFxwdEDykClgdZGjvk8TypAKvEI+FyfOYJ2zjyyEt6kyQhSRLq9XqhNB1kelZa66JrvdvtOgHSofcfEMiTTtg3u3sGXsrBd83gOikvmGG8kORhsVlpoSur3N7e5saNGwRBQL/fp1arUq1W6fX61Ot1Lr9ymYVjC7v0qvISS9g9RQ2yJKzMywYH+lYuAuIUel0idvAeuQdkjOs3aTSbhThjmiZZiad8pIDeMB081uTawbZFbN8OGfDhd8iKCorRnQK+CxUmW5St7pm8Zwf0KIVAKoXcm9B+AnZT9BP2Y6jcM//8QeFDXvSQvW9xvh6V+/hx4DDnQkp1qFBSM2sGzO+rXFU379Dv9XpEUUStVisUr40xGK13JcyHf/522B2WHL6n9xarDHeuu+vBXXmDvpISLyB52GxE7GACYKfT4eHDh4yNjdHpdNDaUKmEpGnK+fPnOTZ/jEajjlLekFdB0S+Sr4KGiSUf12mMzUJa7rPzF7sCEWdEu92uSwyGAUZrov5gRZa/t+ue3W3iB7/sMZePu3YzQjDasLGxgbEWJSVSSTzloTyvEIfclcM5xFvnKdrHjemFwTHTWqONLoZgGTPINQgpnabRN7DSj0yYD/cGZCRRGKShz0YIpHDHxFqZLQBkVvSQEcgTSfQZxbkspDrNZDpikjgh1SlCSILApxJWCMLgYGNqKf6+oorM2mKhc1jsJZBd+aGh3w/TyJc3GubXexRFGONEQMMwJEkSarUa6+vrg9J5KYtS3cHkwaf6Ex71lxXvo7VmefkhZmgsgpvL4yRVhmXjv4uKhIPnkez2lAbbfLvP+r7wwpGHLQy6i5m2WjusrKzQarWoVJ1elatyci706TOnaTQa+0s6Gazgcy9kQBKAzcd1ui337AVkSXVsLgWfxeaFk53OUeRRihvugPDOrr/PJfjzoVa55wLCzZZYus/mxiZaa9bW10hidxOGYeg645VibGyMubk5ZmZnaDac5laSxIN9lcJ1vGc9MLoYZuTvIg+ZTWCEzDvL9v3Bwwesr62zsblBq9Ui6kdOIC+baRFWKtRqVcIgZHZ2lpnZGUZHRgtV4UEOCbcvqX7s6NN8Wp2UCqlcGKTTbrO5ucX29hYbm5tsb23R7Xax1lKtVgnDkFqtVkiFT05OUa/XSJKEra0t1tfXs05nF6sPwpDji4vUarWidDTXsjpcVY9TdfZ9rygfr1QqbgFiDb1uj82tTdbW1lhfX2dnZ4dut0uSJMWxrlQqTE5OMj8/z+zsXKaXpgYTKj2FMU5rKzeIxhoU32zVvndlnldNDWtKwcAg7jWQg6FZpriepJRsbW3RbrcLA93v9wsJFCklIyMjhUxJ3qN1qCr2oXvRhbksWrtro9Pp8ODBAx4+fEir1SJNU1ZXVwEKwgjDkGazweTkFLOzs4Xqby6MCplGWaZEcefOnV0l//nf0mw2mJ6eoV53vTDutTa79/emmQeEnH+P45itrS1WV1czLw20NkVH/vHjxxkZGQGcqoXn/TCCqi8cecDA6OeDbZaXXYVVXhbohNdSJicnmZmeKZqVXIjF7DKKu8NPYri688DPdCjKrgDwA7/wUmB39Uhxg+VNgsMvzN+nCC8NVn1FpUrUZ21tjYcPHnDnzl2WlpbY3NokiRPiJCaO4qKWXimFNpqJCdc9f3zxOBMTE4yMjjA+Pk7gB2iji+ORJmlRPGC0waiBXMVeN7+902Zzc5Ot7S2uXb3G+vo6W9tb7OzsFOThDJxHtVKhWqshpWB+bp4TJ06wuLjIzMwMo6OjbsUJzpPIQt+p1igpEZkUus2OnR2eky2gvbNTNJzdvXuXlZUVtrbcfvR6PbTW1Go1pJTUajUmJyeZm5vj5MmTnD59GmMtX331FR988AGNRgMpJf1+xNjYKL7nc/z44lCPj8ymBR7+yozjuAjjaK3pdDp02s6w3b5zmwcPHrC8vEyn0ymECD3lIaXED3zGxsYKiZBjx44xOztLo95wpBnrTCreoq3ed60dBgctotypcOfbz+RZBkZwsHoeXjHn12jey5H/zcYYlpeXWVlZIYoi6vV6USrveU7Jul6v79qHvR39h4G1boG4vb3FgwcPuXPnDvfu3WNtbY12u02appnib4q1bupjELgF1tjYGMeOHePUqVMsLi46Pbp8Aqk2gEEAt2/f5vr1a/R6LhQuhKTb7TI9Pc3ly5e4ePFl8j6w3OsZNDzu9jhyD81pfm3x6aefcuXKlUzhWBUeUq4uXKmESKmyhYL3VKHf7wovHHnkq18EaKNpt9tsbW2RxElhZKwF5Unq9Tr1et1JOw/N6pB+Npgpy2XsOy8ij9yL4U99pMfwuOE0RXmuHRDD8OfkxcJWgMhir41Gg06nw9bWFiurK3z5xZe8/8H7tHfaVKtVKhUnd1KpVgiDsPAcer0ecRzT7/XZ3Nzk+rXrVCoV5ufn+c1vf8P09AxSCsIgxFMevX4PgMAP8CrhriSmNRaNJo5iojjizp07fP7551y/fp2V5RU8z3NVZFmzpMvluBspiiI63Q5hELKxvsHNmzc5duwYL7/8MhcuXmBifKKQv9CZx9Pv9zHZGNQ0i4m70cEp2hjCrFfg+vXrfPHFF3z99desra2xs7OD7/tUazVqtRpJkmYeaYtWq8Xm5hZ3797l5q1bdDodRkZGuHnzJu+8805RXKG1ZnZ2ljNnzjA9PeVW30oNhjwdAvmqfWtrC6UUlUqFnZ0dbt64yb3797hx4wZLS0uFUZMyDzPm4wPc52ysb7CyvMLf//535ubm+elPX+XSpUtMTU2RJKnzMCthEfIK6sFTl08M7/PgGnXIdan2Nlq67YChhVteRZWHhIwxBbGvra3R7XaL+6/VajE+Ps7MzAzg1HfrmZf3uBDZo9DpdFlZWeHGjRv87W9/4/r163iex+joSEFYtVqNTqdDFEUI4YpZ+v0+N27c4O7du9y4cYMTJ07w0ksvcf78ecbHx4scjlKKOI65d+8+9+7do1qtFrNcnLhqyunTZ4pF2+5xunn+ZBASy70urTVra2t88slfuXLlCiCKwgLP83j11Vfp9br0+9GhJGKeJV448ijCHZm17vV7tNvtoSoqF3bxlMfIyAjNZqM4CalOi/6P7wu7EnMuY70HQxVCGcn0+z3iJObatWu895f3uHXzFjMzLgTV6zmDPzc3x9bWFkIIlFSgwKt5jE+MI4QgjmN22jtsbW3RarWQUnL5lcucOXMGIQSdTmcwMtRTxaoxiRP3np4H1rK8ssL169e4evUqd27fodPpMDk5icqnxGVikDmZAMRJQhxFhJUKUb9fSHQvLS1x584d3njjDU6fOePmSBgxFMcXg7h+Vkpts/j4xsYGn3/+OW+//Ta3b99GeR6zMzOEYYV+v4fKempqtRpxkhAEIbWam9eys7PD9WvX2N7aYnZ2DmttIacBWdgqm3Ph5lkExfGIovipjFu+Xbvd5vq16/zlL3/h/tJ9Wq0W1sLoqNNF09oQRX2iyHnJeTzeeWWWqB9x585tdlotOp0OP//5z1lYWMzUEBzJS/XNKvEPMth5GDhJEuI4HpKgPzg/AtBoNFhbWyMMQ0ZHR+n3+7zzzjtcu3aNIAhYWFgoBjrFcczY2BiLi4vF9VmpVPYvqA65/1evXuWDDz7gq+vX0UazsLAAQK/XY2NjA2tt0aRYqYT4vlvoNBoNxsbG6PV6rK6ucu/ePRe56Pe4cMEp/+ahu1OnTvH1118X4a9arY7Wml6vx/LyMq1Wi+npaYyxSOlsTx7+zfcz2+Oi0KbdbnP//hL37t1ncfF4MYQr/37p0iUWFhYzRe8fttPiBSOPQf+F8jxMbIijOItZB1lFk1vLK89dKGFY2TVmU0pVuJCPNggu8m+spdfrsrGxyc7OziAxOVTx9JS7Xyj85nmJXM49X6MYY9jZafP2229z5fMrtLZbTExMFDX09XqdbrfLlc+vODe3WkN5LvEohSx+TtMU3/NpNpoYY/j444/Zae+gpFvdJ0lCtVJFZCWSOnWaXnnewmjNxsYGV7/8ko8//pjV1VWUUkzPTBP1o2J1pqRCp5qt7a3M6Pg06nUazQZGGxrNBo1Go7ipP/roI6LYhbnOnz9Po9EotJCU8oqSZ8/3nbeYTZr7/PPPeffdd9nY3KTRbNKo17PZ287wSinpdLvstFrUajXAjZH1Mq9obGycKIq5f/8enucVoZPiWhjqHZEyX5HDoKz7ydBaU6/Vebi8zPXr1/jyiy+5eu0qcRzTaDQyDTU3OCyKIuctW0e81liX+/EUvj8YK7Dd2ubvf/+0EBocHxunn62kfd8nyWaNfBMclNeI47jQpXoccqPfbDaL1fy1a26R0Wq1Co/U8zyXj6xUijBcPgAqJyy32k+BJ6+0tU65e/ceV65c4cGDB0ilqFSrbGxsFGGxWq3G5uYmExPj9Hp9Nje3ipyS7/ukaZIV1VRoNptsbm7yl7+8TxTFvPXWW8zMTNNutwtl7Pv33XiFiYmJonF4Y2Odv/3tb/zTP/1T9nfIwgPbf6yc3UmSlLW1NZaXl3flQHLPaHp6hrm5uWKyYx7u+qGGyL1Q5GEzo22t6wYHZySNNVRC16iUs7UU7mbLV2d5LNIlxA6TAHUu/MrKCp988je+/vprwjAcSo4Nj6h9cm2OyNzTPDcwPz/Pb37zG8bHx5B4CCkwqWZra4v3/vIeV69eZXtrGyEFnu/R7XSJ4sgZWanc3JHmiJsV7XkkSVKURrZarWJll4/zjJOYu3fu8tfaX9FGc+H8BVKdIlNJ4AekOi2IxVrLyuoKH330EV99dYONzQ0836NWq2G0odfvYa0lDJww5OTkJJVKhVS7OSlxFJOkKWka0+/3kVKiPI+x8THa7Q63bn2N77twx8WLF/cUEzhjkp/Hra0trn/1FVeuXCma0mS2co2iqOghqNVqVKpVjs3PF8e51Wqxvb1NmqZFcjNJU5Jeb2gKpEt0p4mrgMpLSvMiCindGOPDIoojvv76Fp988gkrKyukaUolrOApjyROSFLn/TYaDcYXxhkZdcnj9k6bjc0Nup1uNhHTQ+BCmN1uh88+/YwwDPnVL39FpVopDO83waM8D3Ar91ar5fIxxrgy7KEcnRSiCAGvra0BjgxdfuB64Q0PJ6EBFhcXOXnSjWbOO9Nz5KOiD4N+P+IPf/gDt29/TRzHxTTQvEhBSkmj0WBqaiqTf5dEUUS77XJ2rVarWPjknp4xmocPH3D9eoP5+TnGxsbo9/s0GnXm5+eYm5vj9u3b9Hq9olKr0+ly5coVfvGLXxSLFbdAHZQLFxVxWJSSdDpdlpaWWFpaKgp7cgmjSqXC4uIik5OTg2Fk4vBh02eBF4o88txBfmNbO9CZyhOH+cG21rpVgB3u4xBF38ZhwxA77Ta3b9/mypUrNJvNojpmOMl9GAhEEdqJoohut8vrr7/G2NiYG5cLdLsdvv76Fh+8/0ERSpFSZsbYaWbV63WOzR9jfn6eZrNJvV5HKknUd4Oq1tbWuHfvXlbGa4gTp63VaDSJk5jr166TpiknTpwkCHx0qtHKJTulcoUErVaLr299zYcfflhISzQaDaSQrGyuIKWkOdpkemqaufl55ubmmBh34bJ2p836+jrra+usr6/z4OFDOt0ulTBkfGKcIAjZ2tzk5s2b1Gq1IkGcx9qHE8C9Xo/bd+5w5coV7t27R71eJwhDon6fbtfNn5+cmuLY/Dz/f3vf2RxHdmV50lZWZXkHUyh4AjSgaXVLao1mZ1cxsdJ+mP+0+5NmYz5OxBhtaEbSSE2xySZBwrtCoby3afbDfe9lFgASYDdaTbJxI9ANooDKrMyX77pzzs1ms0gmkwJZNxyOqP5+WkCxWESv26XNRZIgMafhf8j5cuDztvnMCVnAYK9zoyWcFk6xvb2No6NjAK6YMDkYDDAYDJBIJpCbzSE7lcXU1BTi8ThUVUW71Ua5UkahUMDp6Snq9brX/+p1hTOfmZnBnTt3xLjWbyft4UcsYeL7TqeDp0+fsh4Gg2Hz32drRJbp+tVqNdi2jTYDMfB+D4++ufNIp9O4d48UrAnQMhIbviRJInO87rkTydAVAR5ADfFgMILp6Wnkcjmk0ymEwxERxXc6bRQKpzg9LaBUKqPb7cCybNZ/ouy0VCrhzZst5PPzrJ+nIp3OYHFxEZubm+j3+4LH0uv1cHJyjEqljLm5PD2nrNxHH0XyIcjICfR6PRSLRZRKJZbZedpe0WgUS0tLAsRxdXXk+7dPynlwL84faF4jd2waaakw1IrrOmJhEhfAk1m/ruPgCCZN06DpGisZ8QjDm8YmGuJXsQZcF+PxCIoSZFEZMXLBIMLD4QDFYhHPn79AtVplqIsAHIdKZy6A3FwO9+7dw927dzEzOwOd1XEhAbZlYzCgRvnBAbHtDw8PUW/UocgK4w7QAt7c3MTOzg7urK5C1wM0X13XIMsERSyeFbGzs4PT01NEo1GEw2Eo7DXLsrCwuID79+5jfX0ds7lZBPSAN1jIdTEejdDpdLC/v4+Xr15iZ3sHrVYL3U6XHICuo9ftYn9vD/F4HOlMBrZlQWVRHW8sls7O8Ob1a+zu7JDsDENQKcwJa5qGu+t38cUXnyOfzyNgGKxcp7J+xRC1Wg1bW1v4/R/+gOJpEZIEhEIhscHxdUGNX40QX5K/bEVrTkAn3hLscwjmm603ODo6guPYCIVMaJrKRhdbCJsmHj9+jL/5m18iEqFrSosNLNqUUSic4Ouvv8azZ8/QbDbR6/cAlyb+VSoVvHjxDRKJBKanpy8oO1/X3pV5tFot/Ou//qvIwPw9CX80zMtovGdDJEHqF/GphLZtIxAIYG1tDffu3kU6nQYAkdkBmBj5fB0zDAO/+c1v8PTpU2xvb6Nerwum+/z8PL744gusrq4KROFQlPh0PH78BPV6HU+fPsU337xAoXAqHFkikUC328POzg7W19fx8OEGFEVBLBbDysoKVldX8erVK+Hs6FnqY2trC/F4AqZpipkol+0FhLJqolarin4jwZUpwMjlcpifnxdrnz9PfjDFX9s+MedBnQZyEGApJOlKjceWgLTRv/k8ZgeKMoln95AQ7zaC9EKQEoWEgsRnWL8fzFCWDV/EqFJJhDWIG/UG3rzZwosXL5BIEuqj1+tjOBrCdVzMzMzg0aNHePjwIWu42uBMex69hCNhmOEwEokEwpEwbMdGtVqlYT/WGGaIehG1Wg2///3vkc1kEI1FRXYmQUK1UsGbN29wcHgA0zSJ6OdC4N1X79zBf/tvf4v5/DziiTg0VaMNxLaIX6Hq0BmmPpVKITc3h1TqK/zpT/+FwkkBqVQKAcOAbdtotlp49fKlQLqorFejKAp6/T52dndxeHgoIJ+qqqJer0PTNMzPz+Mnn3+OjQcPROnOBagHYzsiSpyZmSEhTF3H06++wvHxMdNWolnZ1OQcs83O8m2UAIcx0A/ECrr03to2QVT3GKrLDFFGaFkWer0estkMPnvyGb78xZdCRJD3njqdLgaDAQzDQDwWFxps//Iv/4rCyQn0gI5oNArHcfDm9Wskkwnouo6Z6RmxybyPnXcGtDa9iYJXRbz874fDoZgc2G63MRyOEI/FUWfQadM0cf/+fTx+/BjZqSmhNUe9Kts38sAj6l5liqIgl8thbm4OxWIRm5uvsLe3j6mpKTx58gS5XA6qqqLf7wsoscxAF5JEY6IfP34MwzAgSV/h5cuX0FQVoZCJ4ZD4F3t7e7h7d12MGjZNE/l8Hs+fP0e73WJlUSpxvnjxAktLyzDNEIPdqhcUielZ7uHg4ADNZpONgXBYUDFmsOEF0VPhjuV9KiTfh31SzgOAeJ7dib4D4DjeDXMcm1BA7nm+ggvHBZRrSjRTNDlGr99Hr9dDrxcSZStJ9k0YvIZJkgQ9QByU4XDAGm8WJIlS72ariXK5TItL14iTIVPzOpqM4rPPPsP9BwTZ9CuSyqrM+j/AeDSGbdswDAML8wuiuffVV1/BZMN9HMdBNBJFoUBNwEwmAyNI806MgIFWq4WTkxOcFc8QCoWgqdTQ5w37tbU7WF5eFuRDAFBUFbJCjtCyxnBsB5ZtA66LdDqN1ZUVlEsl1Gt1yIoMXdMwdGiDr1Qr2N7awk9+8hPYDB4ZiUTQ6/awv7eHFmuAazo5pV6/j0gkQnpld+4gGo1614NBIzlBT1ZkyJIEwzDw4P59DPp9DAZDFAoFQQbj2HxFUcVGw0EErktO4Tq9Bdu2USgUCDY+HsNVXVgDCypTb15bW8eXv/iSlSnp/XnUruve4KR6vY7jo2Ps7uyi2WzACBrUk2IQ39FohEKhwGDFGYJsG8Z7bTJ+iO75L54VeFEvJ0oCfK6N4wumBoOByNIHgwH29vehaRqWlpawsbGBhw8fIplMAoAogfKSFc82LPa5AoF3N+np3MEUsWVks1mEQiHcvXsPwWBQ6GkB/HckaJoqQDLj8RiBgIpEIoGZmWlkMhmC4LoO2u22KHVXKhU0Gk2k0ymoqopIJIzFRerX8CxH14lTVqvVUamUMTU1JbKPiU2fXdNGo4H9/X10uz1Eo1HRExqNRkgmk8jn52EYhq/0JbP+rn/s8V/XPj3nAQ/SSth6YjPX63VA4nIJClzHRblUEmkpJ1PIrMl9naNYFqXdiwuLomfBIz0qGTBuA9d5ukTWg/NQBoMByzocqCo1eGXWKHRcB6WzEgqFAqGAGHvdsiwEjADu37uPjY0NxKIxRiR0CBWlqkKCxHVJpkIBsbAjkQhWllegazoq5Qrq9TpG4xE0lUpxzWYTu7u7mJmdwdLSEnSNQueZfAAAIABJREFUNq/j42NUyhXhnEdjakxrmobFxUU8evgIsWiMoLzsPqiq4lXuXAAKoLFzUhQFubkcNjY2UKlWUTo7o3INgwNbYwu7u7tYW1tj/RsFY8vC1tYbFM/OMByNoDO0SafTga7rWFxawt27d4VCsv9h5f0w7hx4lhkOh7G+vo5Wq4V2uyVQbzwTdV1n4u5Jb8s0LvEjNHq1g92dXQFW4MFCr9fD0tISVpjDpQ1ZERfKYU70rHiG02IRx8dHODk+QaVaEZs41xLjEX6pVEKpVMLMzAyCweCVQisTp+/LOnjp1R+M8Kjdu5bSpc4GgJBZ545EZJu5HFZWVrC8vCzKa7wSIDhB8BNo36fxL4l+lGEY0HWNslZVwWBAM0M4AbPRaAgINs8yg8Eg0uk0kkk6T44E5EAW13XoWRmNwHsVgYCBqalpzM/Ps5KkA0WRBCH5+PgE09MzME1TXAtRMndJEYDzksiBBUSZ0zRNUoPIZidQoXTBqUz6QyUfn5Tz4BsD36j4phCLx3FSKDB6vwddPD4+YUKJIZ/QIZcguSLrYP9PpVJ48uQJVlaWxabANwD+Xo7jTjLI2Tm6roPd3T1sbm5iOBqCp02qpiLICH6yLKHfp9p8s9lEOGyyiJfqnmEzjNXVVUxPT4tMQpZkwKUGJlFHXEBiqBVWOlZUBbF4DJpOUWCn00F/0CcnwU60WCyiVq1heXkZhmEI/Hqn04Gm6XBcB8MBIVVmc4yRm58TmQ5n5E8AByRAhizOw3YcRKMxLC4uYmFvD8XTU5HF6JomZCTa7TZmZmagqyp6vR729/fRaXfERuXYRAidnqaHeC6fZ4x62vRl30bnoXc4HJK+stkp5HI57O3tMfkMiGjbcRy4Ai3jla6I/OWtl8sg2pxJXigUBGsfACM52lhZWcFsblaUGTUNGA6GaHfaqNVqKBbPcHR0iJOTEzTqDarTy7TRcflywzAQCoWg6zqV/gKGV0p9z82FXyf+uXl0zHtKfKDTVe/Bo3z+d+l0Gvl8Xoya5XBo7jQkgGV1wHkvfF5V9+0bJgV1HL46GhGqrtvtolIpo1SitcSRktx58L6KrutYXlpCknGVTNMUXBQK2GzhELkpioJIJIK1tTU0m01Uq1UAnI0v4/DwEPn8HHK5HOtjUIDqOJxMOcTm5iY6nQ4AT25nOBwy9QVyYh47/f3K69+XfXLOg0f6/KJGIhGkkina0CWC5fHIplwuo9PpIB6PQ5EUuJI7EWW981igDTiVSiGVSr3niQJwXYwtC4PBANvb2wwCy3skpIPDJQha7Rb6gz5kWRIaN3y0bjweRyKRENpP/It0oq7Xt0kmkwgGgxiNRl5pQpYwGBICyLEd1mcguWyq2XpyLlwvK5VKvV+Uyy6FJAEBI4DsVBbBUBCO7cmN8Npvl+k8KaqK0WiEbrcLx7FZpggxWz6RSCCZSAiooyRJsFj9nM9WkWUPxuo9hLRxhUIh9qC+5ZwZCotfWs4Sften5mzrbq8LVVOh6QR3Hg6GCBgUjfNyVavVBuCieFrE7t4u9nb3cFI4EWWTQMCAaZJEBYl80kYZDocxO0sou5WVFeRyOZghE6Px6J26YJd9vvPMctf381gshqmpqSsb2NyhRSIRRCIRRKNRxONxhIJBqD6SHA1FU3zXUrzDxHtd11wXGI9HYt2USiVsb29jZ2cHxWKRbdBEEm53OpQVQwIfNe04Dl69eoW5uTnSHsPV89MBCgRWV1ext7eHer2O8XgsFBbOzs5welpEv99nEGRPtZuj0ba2COXIe57cYS0uLmJmZtbXB5q87rfO44ZMYlGuAy5D4iAcDiOTSYs6Km84caTF3t4e0um0wJdfxy7Ugll55vonCqgKCdq121S2chw6L8uyoKgKdF1DMEj6T41GA91OFy48GQPLthAKUjTH+xySLAk1WUVRvQznHSenyIqoDbdaLZJocWhDGg4IMjy2aGhVp9NBv9+ntFwmVV7bpvJYOk1icu/FtgY4tR5GwMDM9AyMAG2KDnsfx3HQ6/fRbrUwHBLefcC4KravGcy1k9LpNDlTWUZ/OITBmu/XiZS5KF88nsD73VC8M7rnrONBfyDKfaRVJCOTzSCbzYpa+ps3RB6s1mrotNsYjqiGnslkABA8uV6vYzAYCJLa8vIylpdXMDMzLbIPDg75NgQy/7Xyl6UUhfhDv/71rxEMBq++JJIkSjTnm7v+8tj5Y17PLr/gsizBNMM4ODjA5uYmtre3cXp6ina7DQC+MpWCRDIJWaZRCfRcSeh0umgyTTZJktDrdWGaYWjau/sKvFGfy+VQKBQICs8yiPF4hHK5jNPTU7HPUFlbhWV1cXJygnq9hkgkCk0j2Hav18PU1BTm5+cRj8d9n88PVvjhHAfwiTkP4dHZrum6pCeUSCaRSWdQKBQEiYfjv1+8eI7V1RXEYl6Titc/33oUX/3cT/p5++/T/13xH0qna7UagxIOYBhBKLKM3njMmntxlvZT43QwGMAaW95mydjGnKHtug7ANlsXLlRVm+izvM1kWUYsFoOqkQKra9PfcOTLaDQieQym+3Mee8/LGdFIFNFYFJZtQZO1qzMQn2NzHZJo9zcKJVmGyp38aMQUZikzGrN/OzYpyQLezIdIJOIjJA6FCCLfvOh4lydlBCcNstLgtyXYXfwZRykpqiICGMreCACwubmJra0tFAoFER0LqX5Vg2VbgpUdNIJIzicRi8VonMDsLNLpNCKRiJDNANiccdclQMN3iE79vCjet9B1/UqG+cXrMikz8j5BxnWMl5pt20azWcPz58/x7NkzlMtUmopEwqAMgxrj3W5XCDLyRng4HBbrnrPceUZ+9fHJUc/NzeHgYF8AIygz1EVDfGFhQWQkrkuq31tbbxAIGGxfsjEeWyKT4YEvP4boX/6AGQe3T8x5TBIECXmhIRFPIJ/P4/DwEIGALjYcXdexu7eHvf19xONxJr8s+/oe7z4O++7K352okcuScCBHR0dMF8dTaXUckuxIp9Ns3gRpONk2EZaCwSBrirMxuQwFxKGGfodxXYkUTdNEn8SVKIuSZRm2xbD8rOFPhDAPbSPJrKch04PDUT/vZQyKLAECeeRldKznwGfFs59xActJfgVtbpwVDNcV2Yu4V9SAYoe93L1Reeu7PBYXr/l5qClvCrsu0O12sflqE8PhEM1Wk37f8epiLithBoM6ksmkgKFOTU0hlUwhHAkL+RKBrIIEy7VFIPFdxnv5Nyw/s//bOFd+n8EzEXGMy53ue54pHMdBq9XCf/3Xn/Dq1SvUajUAklB+GA69yZ08yPAj0YgZ3hUB03BIZMP3KfnNzs5idjaHw8MjAQfXNA2dTpuRc6tsYimVX0ulEvb29hEOm5AkIhI6joNkMom1tTsIhyNi/VCvxMuAfmgH8sk5DwBiE+aommg0ioWFBfz5z38GGFJJViiKqtaq2HqzhWQigeXlFdIXuuF7QhufA5lrPbGoeH9/H7VaDZrmEdI0TUMqmUI2m2GoKge6HvDVPOmhk2UqffDxnhNoIvYB/LM33mYuXAxHNKCHgwxckKOQJM4YJkfBFV5dBneVJSZd79KY0dGYCeZd5wK6EM6AnztvJnMILdjrnJXMeTUyZyn7ojBJlgFWJuDlLM7tcNnGzSG27yL+c1bxTRo5W4U5PUc0Z22b1I4r1Qr6/T4sy0Y0GsHIHkGRaQZLKBhCJBpFJpPG9PQ0ZmZmkMlkEA6HBcoNkGA5RLoTAQDcb7XBT5w3LoftXibJ/67PftX3fvDCtz5XiXS3zs7O8NVXX6FWq1GmFgwCkNDr9UV/b2ZmRsxRD4fDUBQZlmWLGepnZ2doNpuCtKfrV2tqcfRjLBYT2eDe3p7gYwyHQ1QqFRweHiGRSEJTNTQaDZycnKBSqSCZTAqoNSEXFzA/Pz/BfeGr9od2Gtw+OechSb4FTz9BMBgUKI9KpYLRcARVVRAIGAibYewf7CMWiyEajcEMmzd6Pq7rYmyN4TouNEoZ0O32cHpawNHxEbrdLjSGcLIsC2bYxNRUFslUikV8YDLrXkkCAKuXWmi3W2i324jFonBdryZKvAZAct/tQFyH1EVH4xFN1/ORwQyDEF+qqkKRqWSia5RCW7YFFaroS7TbbbSaLWSnstfeBzwxSmKek7IslVp4Wg+ANlHTFA+irmkwTVM0kQFAkWVYILgu5wsYDPJo80E+qioY4hMlFFDky4UuO532jeIfqdzDrps1FpMcqdShQwJEeYnfg2g0Ssix/DzmF+YxOzsrRC4dx0O5ERw9IGQ2JEkS/KXvTCLz9SwAz4G87/v6Axs/UOEmyy+uS/2gw8NDFItFmrrIVHm73S64Cu79+/exurqKVCrFUGBBttbonHq9HprNJpMieYOnT7/CeHydbJqeX8MIYGaGEH+Hh4fi+XAcUszd2trCnTt3oGkaSqUSjo6ORBmTo9tCoRDW1taRSCQnylQ8CxKo0h/YPjnn4ZWRXMClG6eq1BT+7LMn+OMf/4hC4RS2rSAUMhGPx1GtVrGzs4NUKoloNIJUOu1JQ3zXs5ElBA1qLrpw0WOQzVevXqJaodGbsiLDGlsYjYc0WS/LBvywBzdgBBAKmdADPAqhUbLD0RCVShWVSgWRSERsHooiw3YYZPeKRWbbNkqlEvo9D48vSRIGgwFisRhBM1k5KRwOk5ikTMxoV3YFO7dareKsdEZN82t6D/8GPhwMBG9DYpmOY9HnCYVCiLKaPhiKJxqNolQuYzwaieajJFEfqd1qkZMJBKgEhMky44V7xO6NY9totVok3netT3A940N8uMIsF2yktUkqCFxx1TRNfPnwS+TmcpiZnkEimYCmaRiNRgxxJ7P5JEEEQ7SuxqMxQb1diAzNP+Bs8vO/n73NcVz1fv5SnV9Cw18C87/+Xc4R8Aa/bW9vC+4FANGvWFlZxs9+9nPcYcRR27aFwOB4PGIKFAqDPJPybrvdxrNnCoDrOA+JydTLSKfTWF5ewvPnzxmsnaYi9vt97O7uCn5JsVgUIoj8PBWFFLVXVlYm+i/cCXmO44f3Hp+g8wArvzCOhUs1e03T8NlnP0GhcIpKpYqBYHHbME0TjUYdz549g2mG8dNYHErgOs6Dg029h+tCTdiloVR8E+t0utjf38fXXz+nmqiqCNLfcDhCLBYTTFjeuKfRrQEE9ABToVUEe7fRaKBer2N+fl6wcvnmruuX6+j4zXEc1Gt1mrLn2NAlnWUCjqgJK0zojg+a8o8MlRUZTt9Bs9lEvVYX13+C0zL5DbsukxHocDhEuVRCv9eDqnENMurr6GwOB5XEAE3XRSPcm85IG1Sz2US9QVyIQCAAV5HYdQTLJi4HOPDz6PX6LFK9fvAgNkPXufS9eaM5FApBkRWCNzO0miyTc5yensby0jJWVlcQCUcQMAJCIRkuRHYBULY4GAw9oqNE2kxg4ANX8taemIx5Q6Gqf/O/6pr4j+nXq+J/y5+Va8PjJU+41H8c/v6cS8OPxc/TMALIZqeQzWaFMKZtW7BtDm+n+0OOZAzXJUh/o9FAqVRiKgUkq/62bIk3zAl9qGF6egZ3797Ff/zHfwheh8Wg+Y1GHa5Lg7H6/b74/DSgyhRlLz5i1l9xoGP/8I4D8HdfPiGTfA1o1ScrwZUpc7kcNJVY1JZtMZSKgnK5gj//+c/405//hIODA/R6XbpZEkRKSdPCeJp5TrrBdUQPwi8cJ7NG2OHhIb766s/4y7O/CA0bmUX5kICFhQXcuXMHmUwGkgSWLrs0uzqZQjKZmFTTlGho09bWFk5OTsCn6zmuN9ecXw/em3Adalralo1GvYGt7S0cHB4QGohtmK7rQpEVzOZmEYvFhIidqqqYniY46JBJqQOAGTbRarWwublJ52E73vp2+Zc7+QUaVqQoxGPZ3dvD9va20NACe5hGoxGmslnS0AKbJ6GqWFxcRCQcBp/mp6oqdMaM39/bx/HJiWjKDkc004X3PjibmZ8KZWsKiozB3Wy1rkTcnTdvHXhEQn7/Oedhbm6OUG22I7IrDkaYnp7Gg40HWFxYRCqVQjAYEqKWkm9ioeM4wiHIssyIbyX0+z1B8HRd1x/X3IydQ0pd9QVMwnz9fwcwBV75euAUbnyj59eWlzY5KpBndF5GQc9hMBiiYWlsHjnP+DwItysAKYpCGQKX5/H4U/LE5+HH9ZecuMkyyb5zmC13DuTsgefPX+Dp07/g+PhY8HT4+0xPTwtVZEVRRVDEy/EfQrmK26eZecBLgfnN5559YWEBrXYLg8EABwcHCMpByAFK8/nPBsMBVpZXsL6+hnx+HmbYFNE353S4cCG5vPnqbdIO/LPIKesY9AfY29vDN998g62tLdTrNQQCBjRdoxkOYwuGYeDhw4dYXV1FLBaDy1jkqkqpdCaTQTqdwfHxMTXffUObtre3EIvFsLGxIUanykIXyBIZEW9226z+enB4gL88/QuKp0Ux4IcT2kKhEPJzeSSYw7KZ/PZsbhbZTBZnxTOxOXLC2uHhIZ4+fYqf//zniMaionk+wYPxL37WaC+cFPDq5Uscn5wgzAQOeTNZVVUsLCzQ8CiGsjIMAwuLC8i+yqLDpNT5Z6TzOEAmm0EqmYRpmh43hsFkZcanIZQb9ZVarRa2d3ZwfHyMQb///jV9F2/dNHnZanFxCa9fv0a/14dtWULVoNfrYTQai03GcV1fk18Clys5X+oZjUbY39/H2dkZwuEw1tbWMD097UOXnecFXO+zXLbpcyn66/BlLvv+Xb/HjnLtc+Nrw++M+Pd83gzgBXwyQwNO9gwV8ToHtEgSATUKhQK++eYljo6OEI1G4QcfcGdz+XXwKg+6rmN6agr5/BwODg5hWQM2rVDF/v4+NE1Fvz8QmRR3erOzs8jn8wBwjqMjiQzmQ7FP3nn4zXZsZLNZ3L93XwyA6fV7Al6qqATxPDg4QLVSRblcxr17VSwvryCVSokMhhBPsoCx8j6DLJNulMNUe0ejIXq9PrZ3tvGH3/8B+/v7sCwLyWQCMkNdyQwNlkwmsbZO6rEcoktaWRSxxGIxpBnmezhkQ240HUNniGqNcO0AcPfuXeRyOSHoRtEYpb+GEaCmcK+Hk5MTvHn9RjBbeVmo2+2i1WoiP59HOpMmRVqFfj4YDJBMJLG4uIhisYh6vQ5FISl2VVNhOzb+9Kc/IRKJYHV1FclUkmrvjq+cw26L67jo9XuoVCrY3NzE3t4eXNeBpmsCeizLMqanp7G0vAwjQJBK3htIxBOYX5hHo9nA2VkJo+GQ3tcFmq0Wtre2ETQM3L17l1RzmTBfs9lENpsVEhN8lsaLFy/wevM16mxY0bWRShygIXmRsSxDyKHzzSQQMJBjDPBGo4Fevw/DCCDASJEH+6T8qus6zYzXVKiKyhwMZUmc+MclMgqFAjY3N/H1119jPB7jiy++wK//56/FAKm3jYq9yuRL/sbfp3jXe56vx38fyCAeCHJUHFehJZi2LLJTTrrt9Xool0tot+eE+jLfrLliAneypXIZz549wzfffINms4lMJo1ery+cDG9+AxzW7WXr9DOvz5rJZrG0tIxi8UxMw+Trgci2xMci0VYXyWQSmUxGBDx+ZYAPBWHlN+V//5///X9+6JP4q5hED4ULl4hWyQTC4TBOC6eo12ts2mAALiBmgR8eHuLNmzcoFAoYDofiwVFVb8qYLHubhMvQOqVSCfv7+9jcfIWnT5/in/7pnzAej5FgxxwMhhiNhmg2GwAkLC4u4Fe/+hVWVlYQ0HXYtiOgsgD1b0hPyEGz2UKhUIDruggEdAQCOhzHRatFo0sVRYZpksQGP89AwIAe0AEXKJ2VsLOzi9dvXmN3bxeVSkVoDFm2RUOlZAV/88u/weoK1d9dlyDB8XhclOVGI2LN8gfCdV1YYwvdXhenLN2Px+OIRWPg3Bn/l23bePH8BX73u9/hL8/+gm63i/xcHpZlCdmNVCqF+w/u48njx2Ij5Ndd04iI2Gl3cFYsolavQdd1TE1l4dg2jo+PBH+Hj3d1XReJZBIKQ5Q5Ls1QePnyFX7729/i4GAfFuPScP0mXp4wTROrq6vIZrPioe52uzg4OMTBwYEon9k2RbPZbBb5fB7BYJBdsxHC4Qg6nTaqlSqazQa7RjEAhBIrnZ2hXqsjzuRVFFWFLNA6NiRQJtnpdnBWPMO///bfsbu7K2bEn56e4s2bNwiFQmIyIi9lXmfz4ZlZuVzGwcEBTk9Pfb0lB8FgEEtLS1haWpqQBJ/MVr6d4+AcEP43fEOv1+s4PDwUoqDBYFBI88zNzWF9fZ0idJey6aOjY1Sr1Ynsg5cped/JNEOsRwShZzUej7C7u4t/+7d/w/b2NmzbEoO6SN3a41qpqoqHDzfYhEBXXDeJ9Vr5Z+fX6OjoSJTAedmZy4/Q+zsYj8a4f/8eHjx4gEwmK6oLH6LT4PbJZh4XzIWQ1VANFalUGvfu3YfrAl999RWOjo9QbzQQNsPojXswDENE72elM5T/pYxwOIx4PIZUOo1sJuu9MWt4c+YqNbFraDSa6Ha7SKaScGwHvW6PRSoksBaLxbGwsIBHjx5hcWkRmqoxkhDTsJG8mdEBI4DZ2Rw+++wz1Ot1VKtVdLs9BAIB8UCVSiU8fTrGCZunPJWdEgN4XJegsIeHhzg9PUWj0RAkJtM0UalU4LoukskE5hcWsPFgAyHTFCgQKmlRtLawsADLsrC/T0xaTWMS1JqO4WiIRqOJ//zP/8T+/j4R2qZpIt5oOEKn20Gn00G73cab129IspshVWhWhCLqwLOzs/j5z34+IbAnSaS5pWs6pmdmsLS8JD4PESglwQzudbtiM5iamqI5JuEIHMdGr9dDvdFAuVQSuH4+QOo6DWH/wiJ9JlkEFgBxNHiT249UWl5eRq1Ww2BIYIdOuwMzbGI4HOKsdIZKtYJGo4HcXI7OOZ6AplNkPegPUKlWUCgUSBb/7ExInvDjlytlvHz5CvF4HGtraxPHvsq4U/Sjo4CL9f33K0d9Ozt//TkcnGccwWBwovQkKwqSySTu3buHo6MjEenzDfzk5ATdbhd7e3uYnZ1FPB6nJjmAVruNk5MT7O7uolwui2eKO1LTNMWxVFVlJV6PaX9+vfizhVwuh+npadTrdSHt478ffPRCwDAwP7+AVCo94YQ+ZPtROA/eROSMZYA8fiqVwsOHD6FqKsywieOjY1Yu8eHSbRprOR6PWdmjgdNiEWHTFOkrXzyWZdEEQMuCwxrqXJBR1akEYVsWBoMhDCOA9fU1PNjYwOrKKkJBimLo2IqohYrxuRKTUV9ZRrVaxTfffIOzszP0+302YjMoRNa63Q72dvcQjUURNIIire/3++h0OmxeiEekG4/HsCyam72wsIjPP/+csWBdASVWVRWddodgsrEo5piM+ubmJkrlEhzXRSgYEqWlfr+Po6MjVKtVRHYjCASo3Mab745LKC++0XN28Hg8hhk2sbKygsePHwvRSV4i4GUDQn8ZyM3msLa2RqNYS2W6ZqoKzTcpbmd3F/sHBzBDISSTSVHK6PV6bGTpZPPVtm1I8vUntJ3vE/DrJnoEnEUvSchms1hbW0Ov18Pr169RLpdpDj3blEajEfb291Cu0KbFUUCu48KyLXEPO50OwXaZyOJoOMJgOMDc3BwbHJRiTV5vjV61sftBHhPPD/s8POsEvn95DP8GzDNNfzbI1y6V8SgzoL7SItLpNIrFImtSKwgGDSFV3263UCicwDCCIljg45n7/T4raylsTchimJXXsL5ImvRfLz+c2XVdhEJBzM/Po1wu4ejoWAyConMnUAz1YnOYnp5CKBQS+8YHnHQA+JE4D26yb6GR+CDJV/MZFJvJTexsb6PX62MwHDAWNaWfhmEwiW+bhgaxmiXXZvJHFLTYVQQCBHvlU9Mkl9L6eDyO9fV1bGw8wNxcXnA0ZFliEwRdISuhqgoDLLlQVAWJRBKPHz8SJbRKpYLReCxQZTwD6vf7aLfbFHnJkpAWIalzHaoKsVH2+33E43HMz8/j3r17WFldISSQzR5SZZJZ7tgOIhEaQKVqKp5+9RTtdls4WcMwRGmq1WqhVq+RM2XIM1VVoWqqQLEB9P9er4doLIrl5WU8efIEd+7cmZgqxxFtohbsQlxLx3Xwh9//gTSvXBeKLIvyU6fbRbvdRrPRQL3RAFyXyecTeU9VNYzHI8GhcF1XzFe52iQxu8UPzKCN1iInLXmw0WAwiLm5OYyGIzi2IzLAgB6AIiswAjTwp1KpoFQq+TYoVhCSOG+Cl1uYwoAsYWZ6Bj/96U/x5PETNm3Sea9N/nzD/3yz3fv+e97VXK/x7DW0XREg8S/+vPFnT5GJY7G+vg5JkoQ4IZ+RAxDRrtFoYjQqwXUhrqFlWQKKDgCmGUIkQoPEDg8PcX4i6HnnwWHEFxNWCfPz8zg5ORFjbb0MlfpXsqxgdfUO4vHEjXBe/lr2o3Ae3jwJCbZjC4w9X3jxeBzRaATpdBqGYWB7axvVagXD0QiKogpinGjQGV4zUkB4ffM6KFKzxaIcjoYkxa2qiMXiePToEX71q18hGAyiP+ij1+tSX0LXvQjHR5bwLyNVVTA3l4fjEMppe3sLxycn6HQ6UBRFlEo0NguDb4ac5R406LMMR0Nqpjs2zJCJ9fV13L9/H8sryzBDJpqtJnRNZw6QovJ4PI5Ws0UcCiOA/Hye8UBkvHz5CsViEaOxb7iW5JVCVJYBQaK6/ZA1uDkc17ZtmGETv/jyF1hZWRGDjGRZFs1oDr3kAoBjiwbn5HI5BEMhqKqGP/7xjzhls1sCgQC63a5QpZVAvQUOgwwE6Dr1ej20223Mzs4ik81iOBhga2vr2uJ/dL9dsdF5m5sjAhUFipg6GA6HsbS8hGAoiF6/j2LxFJ12h7JeFilziLema8KJ8V4Zz5RkSRaDjRbmF/Dr3/wajx8/Fj2K992QxV3sAAATX0lEQVSA+FrxIxT5muaZH5+F870Yj+rhcUDG4zF6vR663S4SiYTotw0GNC6Agx54OS0cDuPzzz+Hrut49eoVTk9PmQSQhlgsBsMwxCAonmkZhiHWeaVSwczMjBh9vLW1zeacT86D4V/cCQDcoVxk99MwpwwCgQD6DMnHtc04MfTu3bsIhYIiq7puqfGHtB+F8+BmWWMYjHlq2Rbgizxsx0Ymk8H/+s3/QvWLCra3d/Dq1Svs7e3h7Oxs4qFRVRVG0PDBMxmonu33juNgbDG+h0V9gmwmg42Nh9jYeIBsdkpkB4EAjU/tdnuXbFaXkZGoHjo/TxDieDyOYDCI3d1dVKs1pr4qI2AYMAKG4Cs4joOhNUSn28F4NIbj2NB0HZl0BnfW7mDjwQbm8nMIh8P0UNkOoNE58GhaZ6KSAYWi9V6vh0Qigf/+3/8HZmZm8ezrZzg6PMLe3h5UVUHINBEKhhAI6BiNxyTtDm/4j2EYqNVrMAIGVlZWsLGxgcXFRSQZxJaPt1U1zYOK8osAMD4JkQinp6cRi0aRzWTw9fPn2NneZnwNcnxdhl4JBoPQdB0O25B4BDu/sIBffPklkskkXr9+jWfPnolG+7vMcRwxN53PYuCzJEajMePb0Ck7DvW6AJozw0f17u7sYntnm81P74pSzHA8FERSuMDYIt4PR/3VG3WEgiFs/HQDP/3ZT7G0tATAVzp5zwyBQ2D7/QG6LFtTZAWWbaHZbMIwDJTL5QlOw/dtnC0fCASEHA0vo/kzXf58ShJF+rxhrWkaa1j3AECUKcfjMWKxGLrdLvr9vpjz4zgO1tbW8Pnnn6PVauEf//H/olqtQNcDAhxC42CHIls93yPi5qcLhEIhBINBVKtVwUEbj0fQdU2oI/OgiJ+H635YvI7z9qNxHpIEwYsQvQQJDAUhT4jVpVJphMMRLC4u4qx0hkKhgLPiGer1OrrdDvp90tvXVG0i85BYs9YMmQiHwwiH6f8rK6uiYRsMGgJWSNkM1VPDkfA1cNz04PQHPRiBAJKJBPR7d5GdymJjYwM7O7s4ODhgZSIqA3GyIG/Cm2ETRsKgxvj8gpBriEQjUGQFgz6hQPxT3nj0zMsrQp7EIel2Fy6WlpeQyWRQPCtif28fxWIRjUYd3W4P7XZHbKq8NESSKyHMz5Nu0/zCPPJzeUiShGAoKB5GHg1LkgRN1z2SIdscCC5N7xswDNy5s4ZUKoX1tTUcHPLpe9Ss7LMhUhIk6LqGgGEgHoshn8/j0aNHmJqaQrlcFlLufsjuRegqRNnjiy++ECUyPoshn88jHo+Jc+TyF5qqMRInwTPz+XmkUimS8j48ROnsDMWzIjrtjsjK3BGVMBWmx2aaIUF4XVhYwMzMDOLxuGjeshXvwYevKVRp2zZURUUymcDS0hL6/T6mp6fhujQ7XVVVPHjw4FvNCLnKzl9fDhQJh8PI5XIigwyFQqL0PDU1JZ4jT+aestl0OoUvvvgCi4uLODw8xPb2tpC7J/SVIxyiruvsOaXZKPPz84jFYrAsGw8fPsRwOBSBHR/ylMlkYRhBEVgBfrXkSZACAVNI8t1iAQDn6RiGgfX1dRhGAOol8vkfcgbyo3EegESqtq7rY6CD0f8lgaHnRCOdSWCkUink83k0Gg20Wi102tSs7PW6gsRL/5dE2cg0PecRCpmYmqJGmKekOmbHg6ilaqrmy2LILuJ9aCNQFZU+jywjbIYRNILIpDOYmprCyuoKGnWaid7tdkUqDUgIBHREozGEI2HEYzGkUmkh/c5l3y2Lk5w0FmFycpLH1ueL2QgakBXmDPQAYtEYEskEcrM51Go1VGtVNBnijJO6FFWBrukIBg2k0xkkEgkhh883BlE2YX0fL5IG4OsfeOk/RaL9HqHPZmdnkUgkMDMzg0qF0Eutdhv9Xk/McCDIZhiJRBxT09NIJhIIhUKo1xuihu66EOxfr/bu3Zlw2MSDB/dx584qNE2HLEuirMJhytwJ8o1FkiXIrgxKJmitBQ0DhhFEKp1Cu90Wo3673S6bYzIWEW84HEGUTeebnplGMpmkbFrifJBL9Kyus/dI3jmmkik8fvQY+Tz14+CCdLUkGdmp7PdbuoLXJJclGclEEhsbG8jnKbAI6AFRIg6ZIVHS43/Dy1iUZYYQCYfF3PRyuYxms4Fery8IqKZpimedqxbzQVepVBJ/+8tfUg/NB6iQJAmRSFgAOAAIcAYHOFiWJUpizWYTJycnqFarLEvSmCKyiqkpGn1MvU5P2kiSvJ3lQzXJcZ2Le9SP2FzXEVh9AF7j0IeUGgwozaVmlywIgp7AnSZ6HLQRXg+1cx14qMR6N45LjWteI6XF7WA0GgvxPcd1YDE0B0BRcsgMCQSWh2ih97z0fHwM+vcx2yHZ+UF/QDpilk0blKyI2jmXbrjK/NEXv0Y8yvT/Tq9HpT8h3y5J4qHu9XroM0KYqlAET81yFbKsYDgcwDRN7O/v47e//X/4wx9+j1gsRpBfVp77h3/4B8EruDwavFhm8JyNJHogb40kWRl0MBwIuY3hcEhS9bIEXQ8gGCQIeUAPQJIlXz/Puw7CefheO/97n7q5PACA50RHoxEG/T56rExFvY6A4A4JB++7P961BOALYOB7XwACzRg0DEgsq+Dk22fPnuF3v/sdtre3xaTHer2OTDqNn/385/i7v/s7MVfkfNbiP96HZj+izON6xhnCAMCH6QAElZU1HYqqIhg0YNveUCRPrM3bPC5T47j62Nf/bQmSb/OfJBPqAV3U93kd23FoLrmmamwWBlhzDxQNX3Lsb58uE/IlFAwxCPK5V6/hJN96HpIE10f84j+TQNL1vNTDyV+y7NWbeQbB6+G8bt5ut0QphoQRO2JOxnhMyKlAIICZmRkfo/h6z7TfMV8riJAkGEZQzKHwH8N1XCG37rgOZFfBeZ/wNqf2YzMXJLHPjffYSJE4RAg+SRYinEQgnoRZw7e+JqoM7B8T69iFAHg4LDvRdR39fh97e3uo1Wqi9MWz2FQ6jaWlpYsjfdni+lDLVdxunccl5k8fXZexe7mjkGTIqgRZ8TSuXKZeyv99XufIL1Nxk3aeXwCwh0Q24OqebApthOQGZebkaAO66aSTUEc8K/CE7y7yH7zXr+rznD+EK0oTkCQosgxZUTBm41yDoRCybFgSz0YI1qoJxJZ/rKfMnEwkEoXj2KjXa6hUKjQGV1UxGlEjNRKJwjTDvmvtXmhofudHne1OHHF3/l1deGgu1yHo6mX7y4VN51tVP972Bx9XocIvp8IzdFmWKTOBd61sHwjAz6+C73cmMrl3bOzj8Riu40DRNBwfH2N7e9sjsTKYeDQaRS6XQzabZe8Nj4cmncv1z1/yD8Sn3DqPdxgtEM+R8Fo4l3mnRQn47yZfYPy1d5YpvvO5eeYfN8rTX1HakTy9IlZAmXiP7zKmdPIcaOObZCdflCnnDsM7n/czSaKyXbfdRb1eR71RR71Wx/Pnz5FKpXDv3j2srq4iHI6g1++z8qEsiHgKm2E/Ho+F1AUAHB8f4+TkBJZlIZVMMhmJPgKBABKJOAzjXbyPmykL8fUkOAQs2wC8QFhRVEjU9rqeY7gxx8Ff+/AdCIcJ+AMXMcqYSdMANERMBDnsb/2fznV9o3PZ/yeP4/0N79fxv7MsC69evkK1WhVOzGHnsbiwgHw+j1Aw6L3HRLnxA/EQ77Bb53GJnSdL+Z0EqelCpJUXnIPYQ97dT7gJ89dI4TL3IUtvX4wCeXPOedzQQuWOkzP0Pbso3fCtj+GrCx4eHuLFixdC6+vs7AylUknoD62v30XQMGiCoL/cBK+XxaPRdqeN7e1tnJ6esgddFlyCdJpGwEKSvB38kv7GTZnLnAV3DPIl5a4PvaTxgxsLYkT+5ntWeIQv8WeCf4GXpS4qUlzy9qKcBfZ7NgNjKIqC8XiMWrmM7e0tgpszAi9Hii0sLGB6ehoKG5UM/7E+klt76zzOGVsyACazB35HZchwZQ8J9H1lFu9jXpPUhQx5sqHHNp/Jstn3GT1KkCTfLEGXH++GjyJJqNfr2N3dxdHRkYCqttttHBwcIBqLIZVKIZ1OC4Y8Idsm5S24VMnR4SG2trZRq9UJDt0nHggApNNpmpD4DuLdTX3C8w3v82U/Qdz7sIE4P7gJx3DJzwUIRjp3fdnvcKfxLucxGUiAlawhOEyj0Qjb29s4K5XEWnNYzy0ei2E2l0M8Hp+434AX2HwMdus8zpmoa/r2Vz88E2AL0F+LZhu3D1gj3suDnAI3/7RfFPDz/1uws99Rv/bF0TdxNhN9H//PuF0o832LB4V4J4SbTyaTjBipiIdxMBjgYP8AQcPA/Pw8stkpxGJRQcLi0R+fFlcsnuH1603s7++xOdRBdLvEB0hnMsjl5pBiM+Uvv4c3U7LiJtabBCZpw3trk1Bc2b3q/t4a4D0Tfnj3xOtgj7ufU8Gcw3mwBnDxVksAXAkCzus4DlNrfklgC10XXBRN05Cfn0c6nRbzc2TJV6b6SBwHcOs83mK8vulFe+c3Qc9B+P6By3/2fT3cPjDIJRsbn5TnTvZhJsotvujpJur1/DjX3kxdvCWuuzIxUhUF+Xwe9Xod7XYbOzs7IsIbjUY4OTlGoXBChMH1dayurgoWb73ewHhMkvK7u7vY3tlBq9lCq9Vk8FwDMhMrvLu+jpWVZYTDEXyfpSqR2UoSxATcydv5vYAuPjU7n1Ofd7gTv+srV/F/n399Ihj0O49Leh+8NNXtdsV8ct5j4/3HRCKB9bU1RMIRcXyH9VXed3DXD223zuNS81YML/3wqYHnX3+r3Www+vbDiEheEsf0nhMXcHmfZsLbeU/ZjZ6ke6E5fi07d2oARXLsLS87CkbDET2I6+uCx1Gr1YQSrawo6HV7KJfL6Pf72NnZgWma0DQNnU4HAOH+W60WWq0WG/ZFpK9arYbxeIxcLod79+5hZmaGwbHfefrfwbwP6/iyXDGp8nxp9JIg5tbIziMIRS/jXeXGS147T7B82+/x1/hRZUlGq9VCsVgUsvC8B6LIMhEW5+agsLUmS7JQp/jY7NZ5XGLn99SLkfQHcqN5vnyudOEFTLSsL6n8gg2HFaW1mzohSTrvQN6NM3wboEAUa86HkvB6AYqiYGpqCk+ePEEkEsE///M/YzAYoD8YQAIEOqrf76PX6xEHhpUK/HOnI5EIDMMQmlSO4yAai+GXv/xbLC0tCakW3nSdOMsLp/7trqW4U77r51567/hr30sn6cbf8a9t3sr2//D9cv/3fR740UYjGjlwfHyMw8NDWJaFQCAAiwl6RiIRzM3NIRrxRjTzZ/ddxNEP1W6dxyX2sdSQ31Ueuqx3M+lkvq8SDH9fVme+tKQ3+d073wsALjTgQZLuIImU/Hwe6XQa1WoVe3t7KJfLpD3GxAr9KqWSRHMfhqMRHCb1zuUibNuBaZpIJpOYn5/H5198jlAwKJqn3nm7uHj9/CWNa3y0Sz/txT++dC3eaFZ72VHfbR/wfjbRJ/prPsYcVl0ul7Gzs4PDw0Mhlz/oDyCz2SBLi0uCxCvJk4jNj2Xf4XbrPD5x++FkKd5/U3rXe9GW7b71DQ3DwN///d/j9ZvXeP78Bba3ttBoNAQ7nEN1R0wYkzdDLctCr9+HY9tCbPDhw4e4d++emO0wWRfHBXIgfK/dyKf9CEsYH5T9AJdPkkg7rlar4eTkBM1mU4wgHgwHiMfjpGM1lyMxRzYS4iq5mg/Zbp3HrX005nMhF1+TacjWo4ePMDszi7t317G9tY2DgwO0Wi2BtVdVFc1mUwg1apqORCKOuXweS4uLyOfzQsjyredxSanqdr+/NYBGH6RSKTx69AipZArtThuj0QiZTIZmdgRDVI68zHF8ZPDrW2HEW/vI7C0ILZdmNaiqKqYS1ut1pqTaRK/XE2J1juMgGAzCNE1EIhHEYjFEIlGEwybN+2BNTrKrHcPHLTr4bcpWt1vGZea6Lmq1GgEyXCqt8tENRtCAGTIRMikoIQKjb928zyX9QNbarfO4tY/M3u48+KRHPzyTS6RzhVouqBgKhRAKhcQ8Bz/bXhIlheud0cddZrp1HjdhnLxp2aRgzcEVXPqd990AD5LrV0t4L/tAltut87i1j9Dct/5rPBqLKZGKYJZPit7Zti1mPvh1wBzGiSGJ/etzKm6dx4/b/Mx/rno8yRr3Gvh+VvvHvW5uex639lHa+YeOMduZ7Igue9LX/X4foxGNCw0Gg0KaHZjMUCRJgiLJItvwZoBflYF83BsAL7TfuoPvbued6oRb/tiXySV26zxu7aM3Dp61bRu2Y7PsgaTW+RhbwMsQZEW+MSTLRx48MnufTu2tm3mXXUU69GcbH/KI2evYbdnq1j4J47NXeLWAy+cDLitfKT4BvLeT78T7nZejuczOkTNv7cdpfu0s//d+m+yp+TlBH+/6uc08bu2TMKowyZDhzTz3RgnLE4H1dTZ8joS5rL5/kwyWW/v4jffNPLWEi5ncpRnGR+w4gNvM49Zu7dZu7QbML8tzUePtJtSkPzS7dR63dmu3dms3Zm8XB32bjtvHardlq1u7tVu7tRuzH4/awO2AgFu7tVu7tVt7b7t1Hrd2a7d2a7f23vb/Acs5EG0xxs+sAAAAAElFTkSuQmCC;" vertex="1" parent="zsZflPO1nQ_0W1WZPVxn-1">
          <mxGeometry x="-173.5" y="240.99999999999997" width="47" height="44.29" as="geometry" />
        </mxCell>
        <mxCell id="SxLjk_SFfNbJFgxx-l72-1" value="" style="shape=image;verticalLabelPosition=bottom;labelBackgroundColor=default;verticalAlign=top;aspect=fixed;imageAspect=0;image=https://1000marcas.net/wp-content/uploads/2023/01/Mercado-Pago-Logo.png;" vertex="1" parent="zsZflPO1nQ_0W1WZPVxn-1">
          <mxGeometry x="890" y="145.72" width="209" height="117.56" as="geometry" />
        </mxCell>
      </root>
    </mxGraphModel>
  </diagram>
</mxfile>
